<svg width="604" height="473" viewBox="0 0 604 473" fill="none" xmlns="http://www.w3.org/2000/svg">
<path d="M400.64 456.669C400.64 453.489 397.775 450.911 394.24 450.911V462.427C397.775 462.427 400.64 459.849 400.64 456.669Z" fill="black" fill-opacity="0.05"/>
<path d="M351.272 163.496C351.272 166.675 354.137 169.254 357.671 169.254V157.737C354.137 157.737 351.272 160.316 351.272 163.496Z" fill="black" fill-opacity="0.05"/>
<path d="M400.64 414.787C400.64 411.607 397.775 409.029 394.24 409.029V420.545C397.775 420.545 400.64 417.967 400.64 414.787Z" fill="black" fill-opacity="0.05"/>
<path d="M351.272 205.377C351.272 208.557 354.137 211.135 357.671 211.135V199.619C354.137 199.619 351.272 202.197 351.272 205.377Z" fill="black" fill-opacity="0.05"/>
<path d="M400.64 372.905C400.64 369.725 397.775 367.147 394.24 367.147V378.664C397.775 378.664 400.64 376.085 400.64 372.905Z" fill="black" fill-opacity="0.05"/>
<path d="M351.272 247.259C351.272 250.439 354.137 253.017 357.671 253.017V241.501C354.137 241.501 351.272 244.079 351.272 247.259Z" fill="black" fill-opacity="0.05"/>
<path d="M400.64 331.023C400.64 327.843 397.775 325.265 394.24 325.265V336.781C397.775 336.781 400.64 334.203 400.64 331.023Z" fill="black" fill-opacity="0.05"/>
<path d="M351.272 289.141C351.272 292.321 354.137 294.899 357.671 294.899V283.383C354.137 283.383 351.272 285.961 351.272 289.141Z" fill="black" fill-opacity="0.05"/>
<path d="M220.713 289.141C220.713 292.321 223.578 294.899 227.113 294.899V283.383C223.578 283.383 220.713 285.961 220.713 289.141Z" fill="black" fill-opacity="0.05"/>
<path d="M400.64 289.142C400.64 285.962 397.775 283.383 394.24 283.383V294.9C397.775 294.9 400.64 292.322 400.64 289.142Z" fill="black" fill-opacity="0.05"/>
<path d="M400.64 247.26C400.64 244.08 397.775 241.502 394.24 241.502V253.018C397.775 253.018 400.64 250.44 400.64 247.26Z" fill="black" fill-opacity="0.05"/>
<path d="M351.272 372.905C351.272 376.085 354.137 378.663 357.671 378.663V367.147C354.137 367.147 351.272 369.725 351.272 372.905Z" fill="black" fill-opacity="0.05"/>
<path d="M400.64 205.377C400.64 202.198 397.775 199.619 394.24 199.619V211.136C397.775 211.136 400.64 208.557 400.64 205.377Z" fill="black" fill-opacity="0.05"/>
<path d="M351.272 414.787C351.272 417.967 354.137 420.545 357.671 420.545V409.029C354.137 409.029 351.272 411.607 351.272 414.787Z" fill="black" fill-opacity="0.05"/>
<path d="M400.64 163.496C400.64 160.316 397.775 157.737 394.24 157.737V169.254C397.775 169.254 400.64 166.676 400.64 163.496Z" fill="black" fill-opacity="0.05"/>
<path d="M351.272 456.669C351.272 459.849 354.137 462.427 357.671 462.427V450.911C354.137 450.911 351.272 453.489 351.272 456.669Z" fill="black" fill-opacity="0.05"/>
<path d="M438.4 163.496C438.4 166.675 441.265 169.254 444.799 169.254V157.737C441.265 157.737 438.4 160.316 438.4 163.496Z" fill="black" fill-opacity="0.05"/>
<path d="M438.4 247.259C438.4 250.439 441.265 253.017 444.799 253.017V241.501C441.265 241.501 438.4 244.079 438.4 247.259Z" fill="black" fill-opacity="0.05"/>
<path d="M438.4 289.141C438.4 292.321 441.265 294.899 444.799 294.899V283.383C441.265 283.383 438.4 285.961 438.4 289.141Z" fill="black" fill-opacity="0.05"/>
<path d="M438.4 331.023C438.4 334.203 441.265 336.781 444.799 336.781V325.264C441.265 325.264 438.4 327.843 438.4 331.023Z" fill="black" fill-opacity="0.05"/>
<path d="M438.4 372.905C438.4 376.085 441.265 378.663 444.799 378.663V367.147C441.265 367.147 438.4 369.725 438.4 372.905Z" fill="black" fill-opacity="0.05"/>
<path d="M438.4 414.787C438.4 417.967 441.265 420.545 444.799 420.545V409.029C441.265 409.029 438.4 411.607 438.4 414.787Z" fill="black" fill-opacity="0.05"/>
<path d="M438.4 456.669C438.4 459.849 441.265 462.427 444.799 462.427V450.911C441.265 450.911 438.4 453.489 438.4 456.669Z" fill="black" fill-opacity="0.05"/>
<path d="M2.43015 163.496C2.43015 166.675 5.29516 169.254 8.82959 169.254V157.737C5.29516 157.737 2.43015 160.316 2.43015 163.496Z" fill="black" fill-opacity="0.05"/>
<path d="M45.3979 163.496C45.3979 166.675 48.2629 169.254 51.7974 169.254V157.737C48.2629 157.737 45.3979 160.316 45.3979 163.496Z" fill="black" fill-opacity="0.05"/>
<path d="M88.3651 163.496C88.3651 166.675 91.2301 169.254 94.7645 169.254V157.737C91.2301 157.737 88.3651 160.316 88.3651 163.496Z" fill="black" fill-opacity="0.05"/>
<path d="M131.333 163.496C131.333 166.675 134.198 169.254 137.732 169.254V157.737C134.198 157.737 131.333 160.316 131.333 163.496Z" fill="black" fill-opacity="0.05"/>
<path d="M2.43015 205.377C2.43015 208.557 5.29516 211.135 8.82959 211.135V199.619C5.29516 199.619 2.43015 202.197 2.43015 205.377Z" fill="black" fill-opacity="0.05"/>
<path d="M45.3979 205.377C45.3979 208.557 48.2629 211.135 51.7974 211.135V199.619C48.2629 199.619 45.3979 202.197 45.3979 205.377Z" fill="black" fill-opacity="0.05"/>
<path d="M88.3651 205.377C88.3651 208.557 91.2301 211.135 94.7645 211.135V199.619C91.2301 199.619 88.3651 202.197 88.3651 205.377Z" fill="black" fill-opacity="0.05"/>
<path d="M131.333 205.377C131.333 208.557 134.198 211.135 137.732 211.135V199.619C134.198 199.619 131.333 202.197 131.333 205.377Z" fill="black" fill-opacity="0.05"/>
<path d="M2.43015 247.259C2.43015 250.439 5.29516 253.017 8.82959 253.017V241.501C5.29516 241.501 2.43015 244.079 2.43015 247.259Z" fill="black" fill-opacity="0.05"/>
<path d="M45.3979 247.259C45.3979 250.439 48.2629 253.017 51.7974 253.017V241.501C48.2629 241.501 45.3979 244.079 45.3979 247.259Z" fill="black" fill-opacity="0.05"/>
<path d="M88.3651 247.259C88.3651 250.439 91.2301 253.017 94.7645 253.017V241.501C91.2301 241.501 88.3651 244.079 88.3651 247.259Z" fill="black" fill-opacity="0.05"/>
<path d="M131.333 247.259C131.333 250.439 134.198 253.017 137.732 253.017V241.501C134.198 241.501 131.333 244.079 131.333 247.259Z" fill="black" fill-opacity="0.05"/>
<path d="M2.43015 289.141C2.43015 292.32 5.29516 294.899 8.82959 294.899V283.382C5.29516 283.382 2.43015 285.961 2.43015 289.141Z" fill="black" fill-opacity="0.05"/>
<path d="M45.3979 289.141C45.3979 292.32 48.2629 294.899 51.7974 294.899V283.382C48.2629 283.382 45.3979 285.961 45.3979 289.141Z" fill="black" fill-opacity="0.05"/>
<path d="M88.3651 289.141C88.3651 292.32 91.2301 294.899 94.7645 294.899V283.382C91.2301 283.382 88.3651 285.961 88.3651 289.141Z" fill="black" fill-opacity="0.05"/>
<path d="M131.333 289.141C131.333 292.32 134.198 294.899 137.732 294.899V283.382C134.198 283.382 131.333 285.961 131.333 289.141Z" fill="black" fill-opacity="0.05"/>
<path d="M2.43015 331.023C2.43015 334.203 5.29516 336.781 8.82959 336.781V325.264C5.29516 325.264 2.43015 327.843 2.43015 331.023Z" fill="black" fill-opacity="0.05"/>
<path d="M45.3979 331.023C45.3979 334.203 48.2629 336.781 51.7974 336.781V325.264C48.2629 325.264 45.3979 327.843 45.3979 331.023Z" fill="black" fill-opacity="0.05"/>
<path d="M88.3651 331.023C88.3651 334.203 91.2301 336.781 94.7645 336.781V325.264C91.2301 325.264 88.3651 327.843 88.3651 331.023Z" fill="black" fill-opacity="0.05"/>
<path d="M131.333 331.023C131.333 334.203 134.198 336.781 137.732 336.781V325.264C134.198 325.264 131.333 327.843 131.333 331.023Z" fill="black" fill-opacity="0.05"/>
<path d="M2.43015 372.904C2.43015 376.084 5.29516 378.662 8.82959 378.662V367.146C5.29516 367.146 2.43015 369.724 2.43015 372.904Z" fill="black" fill-opacity="0.05"/>
<path d="M45.3979 372.904C45.3979 376.084 48.2629 378.662 51.7974 378.662V367.146C48.2629 367.146 45.3979 369.724 45.3979 372.904Z" fill="black" fill-opacity="0.05"/>
<path d="M88.3651 372.904C88.3651 376.084 91.2301 378.662 94.7645 378.662V367.146C91.2301 367.146 88.3651 369.724 88.3651 372.904Z" fill="black" fill-opacity="0.05"/>
<path d="M131.333 372.904C131.333 376.084 134.198 378.662 137.732 378.662V367.146C134.198 367.146 131.333 369.724 131.333 372.904Z" fill="black" fill-opacity="0.05"/>
<path d="M2.43015 414.787C2.43015 417.967 5.29516 420.545 8.82959 420.545V409.029C5.29516 409.029 2.43015 411.607 2.43015 414.787Z" fill="black" fill-opacity="0.05"/>
<path d="M45.3979 414.787C45.3979 417.967 48.2629 420.545 51.7974 420.545V409.029C48.2629 409.029 45.3979 411.607 45.3979 414.787Z" fill="black" fill-opacity="0.05"/>
<path d="M88.3651 414.787C88.3651 417.967 91.2301 420.545 94.7645 420.545V409.029C91.2301 409.029 88.3651 411.607 88.3651 414.787Z" fill="black" fill-opacity="0.05"/>
<path d="M131.333 414.787C131.333 417.967 134.198 420.545 137.732 420.545V409.029C134.198 409.029 131.333 411.607 131.333 414.787Z" fill="black" fill-opacity="0.05"/>
<path d="M2.43015 456.669C2.43015 459.849 5.29516 462.427 8.82959 462.427V450.911C5.29516 450.911 2.43015 453.489 2.43015 456.669Z" fill="black" fill-opacity="0.05"/>
<path d="M45.3979 456.669C45.3979 459.849 48.2629 462.427 51.7974 462.427V450.911C48.2629 450.911 45.3979 453.489 45.3979 456.669Z" fill="black" fill-opacity="0.05"/>
<path d="M88.3651 456.669C88.3651 459.849 91.2301 462.427 94.7645 462.427V450.911C91.2301 450.911 88.3651 453.489 88.3651 456.669Z" fill="black" fill-opacity="0.05"/>
<path d="M131.333 456.669C131.333 459.849 134.198 462.427 137.732 462.427V450.911C134.198 450.911 131.333 453.489 131.333 456.669Z" fill="black" fill-opacity="0.05"/>
<path d="M312.826 456.669C312.826 453.489 309.961 450.911 306.427 450.911V462.427C309.961 462.427 312.826 459.849 312.826 456.669Z" fill="black" fill-opacity="0.05"/>
<path d="M177.524 163.496C177.524 166.675 180.389 169.254 183.923 169.254V157.737C180.389 157.737 177.524 160.316 177.524 163.496Z" fill="black" fill-opacity="0.05"/>
<path d="M220.492 163.496C220.492 166.675 223.357 169.254 226.891 169.254V157.737C223.357 157.737 220.492 160.316 220.492 163.496Z" fill="black" fill-opacity="0.05"/>
<path d="M263.459 163.496C263.459 166.675 266.324 169.254 269.858 169.254V157.737C266.324 157.737 263.459 160.316 263.459 163.496Z" fill="black" fill-opacity="0.05"/>
<path d="M312.826 414.787C312.826 411.607 309.961 409.029 306.427 409.029V420.545C309.961 420.545 312.826 417.967 312.826 414.787Z" fill="black" fill-opacity="0.05"/>
<path d="M177.524 205.377C177.524 208.557 180.389 211.135 183.923 211.135V199.619C180.389 199.619 177.524 202.197 177.524 205.377Z" fill="black" fill-opacity="0.05"/>
<path d="M220.492 205.377C220.492 208.557 223.357 211.135 226.891 211.135V199.619C223.357 199.619 220.492 202.197 220.492 205.377Z" fill="black" fill-opacity="0.05"/>
<path d="M263.459 205.377C263.459 208.557 266.324 211.135 269.858 211.135V199.619C266.324 199.619 263.459 202.197 263.459 205.377Z" fill="black" fill-opacity="0.05"/>
<path d="M312.826 372.905C312.826 369.725 309.961 367.147 306.427 367.147V378.664C309.961 378.664 312.826 376.085 312.826 372.905Z" fill="black" fill-opacity="0.05"/>
<path d="M177.524 247.259C177.524 250.439 180.389 253.017 183.923 253.017V241.501C180.389 241.501 177.524 244.079 177.524 247.259Z" fill="black" fill-opacity="0.05"/>
<path d="M220.492 247.259C220.492 250.439 223.357 253.017 226.891 253.017V241.501C223.357 241.501 220.492 244.079 220.492 247.259Z" fill="black" fill-opacity="0.05"/>
<path d="M263.459 247.259C263.459 250.439 266.324 253.017 269.858 253.017V241.501C266.324 241.501 263.459 244.079 263.459 247.259Z" fill="black" fill-opacity="0.05"/>
<path d="M312.826 331.023C312.826 327.843 309.961 325.265 306.427 325.265V336.781C309.961 336.781 312.826 334.203 312.826 331.023Z" fill="black" fill-opacity="0.05"/>
<path d="M177.524 289.141C177.524 292.32 180.389 294.899 183.923 294.899V283.382C180.389 283.382 177.524 285.961 177.524 289.141Z" fill="black" fill-opacity="0.05"/>
<path d="M263.459 289.141C263.459 292.32 266.324 294.899 269.858 294.899V283.382C266.324 283.382 263.459 285.961 263.459 289.141Z" fill="black" fill-opacity="0.05"/>
<path d="M312.826 289.142C312.826 285.962 309.961 283.384 306.427 283.384V294.9C309.961 294.9 312.826 292.322 312.826 289.142Z" fill="black" fill-opacity="0.05"/>
<path d="M177.524 331.023C177.524 334.203 180.389 336.781 183.923 336.781V325.264C180.389 325.264 177.524 327.843 177.524 331.023Z" fill="black" fill-opacity="0.05"/>
<path d="M220.492 331.023C220.492 334.203 223.357 336.781 226.891 336.781V325.264C223.357 325.264 220.492 327.843 220.492 331.023Z" fill="black" fill-opacity="0.05"/>
<path d="M263.459 331.023C263.459 334.203 266.324 336.781 269.858 336.781V325.264C266.324 325.264 263.459 327.843 263.459 331.023Z" fill="black" fill-opacity="0.05"/>
<path d="M312.826 247.26C312.826 244.08 309.961 241.502 306.427 241.502V253.018C309.961 253.018 312.826 250.44 312.826 247.26Z" fill="black" fill-opacity="0.05"/>
<path d="M177.524 372.904C177.524 376.084 180.389 378.662 183.923 378.662V367.146C180.389 367.146 177.524 369.724 177.524 372.904Z" fill="black" fill-opacity="0.05"/>
<path d="M220.492 372.904C220.492 376.084 223.357 378.662 226.891 378.662V367.146C223.357 367.146 220.492 369.724 220.492 372.904Z" fill="black" fill-opacity="0.05"/>
<path d="M263.459 372.904C263.459 376.084 266.324 378.662 269.858 378.662V367.146C266.324 367.146 263.459 369.724 263.459 372.904Z" fill="black" fill-opacity="0.05"/>
<path d="M312.826 205.378C312.826 202.199 309.961 199.62 306.427 199.62V211.137C309.961 211.137 312.826 208.558 312.826 205.378Z" fill="black" fill-opacity="0.05"/>
<path d="M177.524 414.787C177.524 417.967 180.389 420.545 183.923 420.545V409.029C180.389 409.029 177.524 411.607 177.524 414.787Z" fill="black" fill-opacity="0.05"/>
<path d="M220.492 414.787C220.492 417.967 223.357 420.545 226.891 420.545V409.029C223.357 409.029 220.492 411.607 220.492 414.787Z" fill="black" fill-opacity="0.05"/>
<path d="M263.459 414.787C263.459 417.967 266.324 420.545 269.858 420.545V409.029C266.324 409.029 263.459 411.607 263.459 414.787Z" fill="black" fill-opacity="0.05"/>
<path d="M312.826 163.496C312.826 160.316 309.961 157.737 306.427 157.737V169.254C309.961 169.254 312.826 166.676 312.826 163.496Z" fill="black" fill-opacity="0.05"/>
<path d="M177.524 456.669C177.524 459.849 180.389 462.427 183.923 462.427V450.911C180.389 450.911 177.524 453.489 177.524 456.669Z" fill="black" fill-opacity="0.05"/>
<path d="M220.492 456.669C220.492 459.849 223.357 462.427 226.891 462.427V450.911C223.357 450.911 220.492 453.489 220.492 456.669Z" fill="black" fill-opacity="0.05"/>
<path d="M263.459 456.669C263.459 459.849 266.324 462.427 269.858 462.427V450.911C266.324 450.911 263.459 453.489 263.459 456.669Z" fill="black" fill-opacity="0.05"/>
<path d="M351.272 121.613C351.272 124.793 354.137 127.372 357.671 127.372V115.855C354.137 115.855 351.272 118.434 351.272 121.613Z" fill="black" fill-opacity="0.05"/>
<path d="M400.64 121.614C400.64 118.434 397.775 115.855 394.24 115.855V127.372C397.775 127.372 400.64 124.793 400.64 121.614Z" fill="black" fill-opacity="0.05"/>
<path d="M438.4 121.613C438.4 124.793 441.265 127.372 444.799 127.372V115.855C441.265 115.855 438.4 118.434 438.4 121.613Z" fill="black" fill-opacity="0.05"/>
<path d="M2.43015 121.613C2.43015 124.793 5.29516 127.372 8.82959 127.372V115.855C5.29516 115.855 2.43015 118.434 2.43015 121.613Z" fill="black" fill-opacity="0.05"/>
<path d="M45.3979 121.613C45.3979 124.793 48.2629 127.372 51.7974 127.372V115.855C48.2629 115.855 45.3979 118.434 45.3979 121.613Z" fill="black" fill-opacity="0.05"/>
<path d="M88.3651 121.613C88.3651 124.793 91.2301 127.372 94.7645 127.372V115.855C91.2301 115.855 88.3651 118.434 88.3651 121.613Z" fill="black" fill-opacity="0.05"/>
<path d="M131.333 121.613C131.333 124.793 134.198 127.372 137.732 127.372V115.855C134.198 115.855 131.333 118.434 131.333 121.613Z" fill="black" fill-opacity="0.05"/>
<path d="M177.524 121.613C177.524 124.793 180.389 127.372 183.923 127.372V115.855C180.389 115.855 177.524 118.434 177.524 121.613Z" fill="black" fill-opacity="0.05"/>
<path d="M220.492 121.613C220.492 124.793 223.357 127.372 226.891 127.372V115.855C223.357 115.855 220.492 118.434 220.492 121.613Z" fill="black" fill-opacity="0.05"/>
<path d="M263.459 121.613C263.459 124.793 266.324 127.372 269.858 127.372V115.855C266.324 115.855 263.459 118.434 263.459 121.613Z" fill="black" fill-opacity="0.05"/>
<path d="M306.427 121.613C306.427 124.793 309.292 127.372 312.826 127.372V115.855C309.292 115.855 306.427 118.434 306.427 121.613Z" fill="black" fill-opacity="0.05"/>
<path d="M526.275 43.3037V430.081H157.684V43.3037H526.275Z" fill="white"/>
<g opacity="0.813709">
<path d="M502.079 69.1846H172.899V425.444H502.079V69.1846Z" fill="white"/>
<path d="M501.061 69.6558V424.992H173.375V69.6558H501.061Z" fill="white"/>
<path d="M501.061 69.6558V424.992H173.375V69.6558H501.061Z" stroke="#DEDEDE" stroke-width="1.22041"/>
<path d="M197.381 94.6651C197.381 94.1096 197.832 93.6587 198.388 93.6587H228.969C229.525 93.6587 229.975 94.1096 229.975 94.6651V125.003C229.975 125.56 229.525 126.01 228.969 126.01H198.388C197.832 126.01 197.381 125.56 197.381 125.003V94.6651Z" fill="black"/>
<path d="M210.21 111.337H217.146V118.107H220.839V101.196H217.146V107.881H210.21V101.196H206.517V118.107H210.21V111.337Z" fill="white"/>
<path d="M243.646 109.368V104.457H248.929V109.368H251.023V98.0969H248.929V102.654H243.646V98.0969H241.552V109.368H243.646ZM255.673 109.61C257.025 109.61 257.879 108.934 258.362 108.177C258.459 108.885 258.813 109.368 259.828 109.368H261.326V107.823H260.585C260.166 107.823 260.102 107.726 260.102 107.34V104.103C260.102 102.139 258.894 101.108 256.687 101.108C254.432 101.108 253.176 102.283 252.999 103.475L254.787 103.942C254.996 103.233 255.495 102.589 256.687 102.589C257.718 102.589 258.153 103.072 258.153 103.861V104.135C255.528 104.377 253.112 105.069 253.112 107.307C253.112 108.724 254.175 109.61 255.673 109.61ZM256.317 108.129C255.511 108.129 255.109 107.742 255.109 107.13C255.109 105.971 256.51 105.601 258.153 105.423V106.067C258.153 107.501 257.251 108.129 256.317 108.129ZM265.071 109.61C266.649 109.61 267.39 108.579 267.712 108.048V109.368H269.661V101.35H267.696V105.117C267.696 106.39 267.406 107.951 265.876 107.951C265.022 107.951 264.491 107.468 264.491 106.228V101.35H262.526V106.695C262.526 108.451 263.412 109.61 265.071 109.61ZM275.911 109.368L276.941 105.713C277.344 104.328 277.489 103.829 277.618 103.314C277.747 103.797 277.908 104.328 278.294 105.729L279.325 109.368H281.677L284.302 101.35H282.273L281.467 104.119C280.855 106.341 280.678 107.034 280.565 107.42C280.437 107.034 280.243 106.325 279.808 104.715L278.842 101.35H276.523L275.605 104.57C275.121 106.293 274.928 107.05 274.815 107.468C274.686 107.034 274.477 106.261 273.962 104.296L273.14 101.35H271.111L273.704 109.368H275.911ZM287.728 109.61C289.081 109.61 289.934 108.934 290.418 108.177C290.514 108.885 290.869 109.368 291.883 109.368H293.381V107.823H292.64C292.222 107.823 292.157 107.726 292.157 107.34V104.103C292.157 102.139 290.949 101.108 288.743 101.108C286.488 101.108 285.231 102.283 285.054 103.475L286.842 103.942C287.051 103.233 287.551 102.589 288.743 102.589C289.773 102.589 290.208 103.072 290.208 103.861V104.135C287.583 104.377 285.167 105.069 285.167 107.307C285.167 108.724 286.23 109.61 287.728 109.61ZM288.372 108.129C287.567 108.129 287.164 107.742 287.164 107.13C287.164 105.971 288.565 105.601 290.208 105.423V106.067C290.208 107.501 289.306 108.129 288.372 108.129ZM308.43 109.368L304.21 98.0969H301.44L297.155 109.368H299.41L300.393 106.583H305.128L306.094 109.368H308.43ZM301.987 102.074C302.438 100.818 302.631 100.222 302.776 99.7876C302.938 100.238 303.131 100.786 303.566 102.058L304.5 104.779H301.037L301.987 102.074ZM311.744 98.0969H309.795V109.368H311.744V98.0969ZM316.134 98.0808H314.04V100.094H316.134V98.0808ZM316.086 101.35H314.121V109.368H316.086V101.35ZM322.457 104.779L321.748 106.937C321.603 106.599 321.41 106.196 320.814 104.795L319.348 101.35H317.222L320.959 109.304L320.717 110.029C320.476 110.689 320.218 110.882 319.638 110.882H317.754V112.508H319.847C321.249 112.508 321.893 111.929 322.36 110.576L325.63 101.35H323.584L322.457 104.779ZM329.545 109.61C331.123 109.61 331.864 108.579 332.186 108.048V109.368H334.135V101.35H332.17V105.117C332.17 106.39 331.88 107.951 330.35 107.951C329.496 107.951 328.965 107.468 328.965 106.228V101.35H327V106.695C327 108.451 327.886 109.61 329.545 109.61Z" fill="#111111"/>
<path d="M241.21 117.886H323.221C323.841 117.886 324.344 118.39 324.344 119.01V123.502C324.344 124.122 323.841 124.625 323.221 124.625H241.21C240.59 124.625 240.086 124.122 240.086 123.502V119.01C240.086 118.39 240.59 117.886 241.21 117.886Z" fill="#E0E0E0"/>
<path d="M329.652 120.441C330.102 120.441 330.467 120.806 330.467 121.256C330.467 121.707 330.102 122.071 329.652 122.071C329.202 122.071 328.838 121.707 328.838 121.256C328.838 120.806 329.202 120.441 329.652 120.441Z" fill="#E0E0E0"/>
<path d="M336.085 117.886H374.282C374.902 117.886 375.405 118.39 375.405 119.01V123.502C375.405 124.122 374.902 124.625 374.282 124.625H336.085C335.465 124.625 334.962 124.122 334.962 123.502V119.01C334.962 118.39 335.465 117.886 336.085 117.886Z" fill="#E0E0E0"/>
<path d="M499.478 149.83H176.143V148.707H499.478V149.83Z" fill="#F2F2F2"/>
<path d="M212.717 180.568L205.67 173.523L198.624 180.568L205.67 187.613L212.717 180.568ZM203.657 182.581C202.546 181.469 202.546 179.666 203.657 178.555C204.769 177.443 206.572 177.443 207.684 178.555C208.796 179.666 208.796 181.469 207.684 182.581C206.572 183.692 204.769 183.692 203.657 182.581Z" fill="black"/>
<path d="M231.207 185.054L227.423 174.789H225.399L221.541 185.054H223.126L224.094 182.34H228.611L229.565 185.054H231.207ZM225.575 178.205C225.971 177.119 226.206 176.431 226.367 176.005C226.528 176.431 226.749 177.047 227.145 178.205L228.127 180.992H224.578L225.575 178.205Z" fill="black"/>
<path d="M235.571 185.259C237.214 185.259 238.315 184.306 238.798 182.956L237.493 182.502C237.243 183.309 236.701 184.071 235.556 184.071C234.398 184.071 233.474 183.221 233.474 181.418C233.474 179.643 234.413 178.763 235.542 178.763C236.554 178.763 237.082 179.407 237.331 180.125L238.623 179.687C238.255 178.543 237.214 177.574 235.556 177.574C233.518 177.574 232.037 179.144 232.037 181.418C232.037 183.763 233.444 185.259 235.571 185.259Z" fill="black"/>
<path d="M244.727 185.053V183.865H243.202C242.703 183.865 242.483 183.645 242.483 183.147V178.924H244.449V177.78H242.483V175.508H241.104V177.78H239.448V178.924H241.104V183.263C241.104 184.466 241.735 185.053 242.937 185.053H244.727Z" fill="black"/>
<path d="M247.696 174.789H246.228V176.432H247.696V174.789ZM247.666 177.78H246.272V185.054H247.666V177.78Z" fill="black"/>
<path d="M253.383 185.053L255.774 177.781H254.366L253.163 181.769C252.899 182.634 252.649 183.456 252.533 183.808C252.43 183.47 252.18 182.648 251.902 181.769L250.64 177.781H249.189L251.667 185.053H253.383Z" fill="black"/>
<path d="M258.782 174.789H257.314V176.432H258.782V174.789ZM258.752 177.78H257.359V185.054H258.752V177.78Z" fill="black"/>
<path d="M265.467 185.053V183.865H263.942C263.443 183.865 263.224 183.645 263.224 183.147V178.924H265.19V177.78H263.224V175.508H261.844V177.78H260.187V178.924H261.844V183.263C261.844 184.466 262.477 185.053 263.68 185.053H265.467Z" fill="black"/>
<path d="M270.24 181.548C269.903 182.531 269.814 182.809 269.682 183.205C269.55 182.853 269.419 182.531 268.934 181.402L267.438 177.78H265.898L269.11 184.965L268.744 186.006C268.539 186.563 268.245 186.68 267.746 186.68H266.28V187.912H267.791C269.066 187.912 269.609 187.458 270.079 186.079L272.939 177.78H271.486L270.24 181.548Z" fill="black"/>
<path d="M210.783 210.38L205.089 204.687L199.394 210.38L205.089 216.073L210.783 210.38ZM203.462 212.006C202.563 211.109 202.563 209.652 203.462 208.754C204.361 207.855 205.817 207.855 206.715 208.754C207.614 209.652 207.614 211.109 206.715 212.006C205.817 212.905 204.361 212.905 203.462 212.006Z" fill="#666666"/>
<path d="M204.586 238.315H205.593V218.085H204.586V238.315Z" fill="#DADADA"/>
<path d="M222.616 219.31C222.616 218.69 222.624 218.187 222.634 218.187H224.298C224.308 218.187 224.316 218.69 224.316 219.31V225.114C224.316 225.734 224.308 226.238 224.298 226.238H222.634C222.624 226.238 222.616 225.734 222.616 225.114V219.31Z" fill="#F9E9E1"/>
<path d="M334.687 222.212C334.687 222.662 334.322 223.028 333.872 223.028C333.422 223.028 333.056 222.662 333.056 222.212C333.056 221.762 333.422 221.398 333.872 221.398C334.322 221.398 334.687 221.762 334.687 222.212Z" fill="#E0E0E0"/>
<path d="M338.933 219.31C338.933 218.69 338.941 218.187 338.951 218.187H339.725C339.735 218.187 339.743 218.69 339.743 219.31V225.114C339.743 225.734 339.735 226.238 339.725 226.238H338.951C338.941 226.238 338.933 225.734 338.933 225.114V219.31Z" fill="#F9E9E1"/>
<path d="M210.783 248.033L205.089 242.34L199.394 248.033L205.089 253.726L210.783 248.033ZM203.462 249.659C202.563 248.762 202.563 247.304 203.462 246.407C204.361 245.508 205.817 245.508 206.715 246.407C207.614 247.304 207.614 248.762 206.715 249.659C205.817 250.558 204.361 250.558 203.462 249.659Z" fill="#666666"/>
<path d="M204.586 276.108H205.593V255.739H204.586V276.108Z" fill="#DADADA"/>
<path d="M222.616 257.103C222.616 256.483 222.624 255.98 222.634 255.98H223.424C223.434 255.98 223.442 256.483 223.442 257.103V262.908C223.442 263.528 223.434 264.031 223.424 264.031H222.634C222.624 264.031 222.616 263.528 222.616 262.908V257.103Z" fill="#F9E9E1"/>
<path d="M280.327 260.006C280.327 260.456 279.962 260.822 279.512 260.822C279.062 260.822 278.696 260.456 278.696 260.006C278.696 259.556 279.062 259.192 279.512 259.192C279.962 259.192 280.327 259.556 280.327 260.006Z" fill="#E0E0E0"/>
<path d="M284.573 257.103C284.573 256.483 284.581 255.98 284.591 255.98H285.964C285.974 255.98 285.982 256.483 285.982 257.103V262.908C285.982 263.528 285.974 264.031 285.964 264.031H284.591C284.581 264.031 284.573 263.528 284.573 262.908V257.103Z" fill="#F9E9E1"/>
<path d="M210.783 285.827L205.089 280.134L199.394 285.827L205.089 291.52L210.783 285.827ZM203.462 287.453C202.563 286.555 202.563 285.098 203.462 284.2C204.361 283.302 205.817 283.302 206.715 284.2C207.614 285.098 207.614 286.555 206.715 287.453C205.817 288.352 204.361 288.352 203.462 287.453Z" fill="#666666"/>
<path d="M204.586 313.761H205.593V293.532H204.586V313.761Z" fill="#DADADA"/>
<path d="M222.616 294.756C222.616 294.136 222.624 293.633 222.634 293.633H223.926C223.936 293.633 223.944 294.136 223.944 294.756V300.561C223.944 301.181 223.936 301.684 223.926 301.684H222.634C222.624 301.684 222.616 301.181 222.616 300.561V294.756Z" fill="#F9E9E1"/>
<path d="M311.533 297.659C311.533 298.109 311.169 298.475 310.719 298.475C310.269 298.475 309.903 298.109 309.903 297.659C309.903 297.209 310.269 296.844 310.719 296.844C311.169 296.844 311.533 297.209 311.533 297.659Z" fill="#E0E0E0"/>
<path d="M315.78 294.756C315.78 294.136 315.788 293.633 315.798 293.633H317.835C317.845 293.633 317.853 294.136 317.853 294.756V300.561C317.853 301.181 317.845 301.684 317.835 301.684H315.798C315.788 301.684 315.78 301.181 315.78 300.561V294.756Z" fill="#F9E9E1"/>
<path d="M210.783 322.473L205.089 316.78L199.394 322.473L205.089 328.166L210.783 322.473ZM203.462 324.099C202.563 323.202 202.563 321.745 203.462 320.847C204.361 319.948 205.817 319.948 206.715 320.847C207.614 321.745 207.614 323.202 206.715 324.099C205.817 324.998 204.361 324.998 203.462 324.099Z" fill="#666666"/>
<path d="M222.616 331.735C222.616 331.115 222.624 330.612 222.634 330.612H223.213C223.223 330.612 223.231 331.115 223.231 331.735V337.54C223.231 338.159 223.223 338.663 223.213 338.663H222.634C222.624 338.663 222.616 338.159 222.616 337.54V331.735Z" fill="#F9E9E1"/>
<path d="M267.241 334.637C267.241 335.087 266.876 335.453 266.425 335.453C265.975 335.453 265.61 335.087 265.61 334.637C265.61 334.187 265.975 333.823 266.425 333.823C266.876 333.823 267.241 334.187 267.241 334.637Z" fill="#E0E0E0"/>
<path d="M271.486 331.735C271.486 331.115 271.494 330.612 271.504 330.612H272.424C272.434 330.612 272.442 331.115 272.442 331.735V337.54C272.442 338.159 272.434 338.663 272.424 338.663H271.504C271.494 338.663 271.486 338.159 271.486 337.54V331.735Z" fill="#F9E9E1"/>
</g>
<path d="M522.213 49.0569H193.033V405.316H522.213V49.0569Z" fill="white"/>
<path d="M521.194 49.5281V404.864H193.509V49.5281H521.194Z" fill="white"/>
<path d="M521.194 49.5281V404.864H193.509V49.5281H521.194Z" stroke="#DEDEDE" stroke-width="1.22041"/>
<path d="M217.515 74.5374C217.515 73.9819 217.966 73.531 218.521 73.531H249.102C249.659 73.531 250.109 73.9819 250.109 74.5374V104.876C250.109 105.432 249.659 105.882 249.102 105.882H218.521C217.966 105.882 217.515 105.432 217.515 104.876V74.5374Z" fill="black"/>
<path d="M230.344 91.2092H237.28V97.9791H240.972V81.0679H237.28V87.7533H230.344V81.0679H226.65V97.9791H230.344V91.2092Z" fill="white"/>
<path d="M263.779 89.2407V84.3296H269.062V89.2407H271.156V77.9692H269.062V82.5261H263.779V77.9692H261.685V89.2407H263.779ZM275.806 89.4823C277.159 89.4823 278.012 88.806 278.496 88.0492C278.592 88.7577 278.947 89.2407 279.961 89.2407H281.459V87.6949H280.718C280.3 87.6949 280.235 87.5983 280.235 87.2119V83.9753C280.235 82.0109 279.027 80.9803 276.821 80.9803C274.566 80.9803 273.309 82.1558 273.132 83.3473L274.92 83.8143C275.129 83.1058 275.629 82.4617 276.821 82.4617C277.851 82.4617 278.286 82.9448 278.286 83.7338V84.0075C275.661 84.2491 273.245 84.9415 273.245 87.1796C273.245 88.5966 274.308 89.4823 275.806 89.4823ZM276.45 88.0009C275.645 88.0009 275.242 87.6144 275.242 87.0025C275.242 85.8432 276.643 85.4728 278.286 85.2957V85.9398C278.286 87.3729 277.384 88.0009 276.45 88.0009ZM285.204 89.4823C286.783 89.4823 287.523 88.4517 287.846 87.9203V89.2407H289.794V81.2219H287.829V84.9898C287.829 86.2618 287.54 87.8237 286.009 87.8237C285.156 87.8237 284.624 87.3407 284.624 86.1008V81.2219H282.659V86.5678C282.659 88.3229 283.545 89.4823 285.204 89.4823ZM296.044 89.2407L297.075 85.5855C297.477 84.2008 297.622 83.7016 297.751 83.1863C297.88 83.6694 298.041 84.2008 298.428 85.6016L299.458 89.2407H301.81L304.435 81.2219H302.406L301.601 83.9914C300.989 86.2135 300.811 86.9059 300.699 87.2924C300.57 86.9059 300.377 86.1974 299.942 84.5872L298.975 81.2219H296.656L295.738 84.4423C295.255 86.1652 295.061 86.922 294.949 87.3407C294.82 86.9059 294.61 86.133 294.095 84.1685L293.274 81.2219H291.244L293.837 89.2407H296.044ZM307.861 89.4823C309.214 89.4823 310.068 88.806 310.551 88.0492C310.648 88.7577 311.002 89.2407 312.017 89.2407H313.515V87.6949H312.774C312.355 87.6949 312.29 87.5983 312.29 87.2119V83.9753C312.29 82.0109 311.082 80.9803 308.876 80.9803C306.621 80.9803 305.365 82.1558 305.187 83.3473L306.975 83.8143C307.185 83.1058 307.684 82.4617 308.876 82.4617C309.907 82.4617 310.342 82.9448 310.342 83.7338V84.0075C307.716 84.2491 305.3 84.9415 305.3 87.1796C305.3 88.5966 306.363 89.4823 307.861 89.4823ZM308.505 88.0009C307.7 88.0009 307.297 87.6144 307.297 87.0025C307.297 85.8432 308.699 85.4728 310.342 85.2957V85.9398C310.342 87.3729 309.44 88.0009 308.505 88.0009ZM328.563 89.2407L324.343 77.9692H321.573L317.289 89.2407H319.543L320.526 86.4551H325.261L326.228 89.2407H328.563ZM322.121 81.9465C322.572 80.6905 322.765 80.0947 322.91 79.66C323.071 80.1108 323.264 80.6583 323.699 81.9304L324.633 84.6516H321.17L322.121 81.9465ZM331.877 77.9692H329.928V89.2407H331.877V77.9692ZM336.267 77.9531H334.173V79.9659H336.267V77.9531ZM336.219 81.2219H334.254V89.2407H336.219V81.2219ZM342.59 84.6516L341.881 86.8093C341.736 86.4712 341.543 86.0686 340.947 84.6677L339.482 81.2219H337.355L341.092 89.1763L340.851 89.9009C340.609 90.5611 340.351 90.7543 339.771 90.7543H337.887V92.3806H339.981C341.382 92.3806 342.026 91.801 342.493 90.4484L345.763 81.2219H343.718L342.59 84.6516ZM349.678 89.4823C351.257 89.4823 351.997 88.4517 352.32 87.9203V89.2407H354.268V81.2219H352.303V84.9898C352.303 86.2618 352.014 87.8237 350.483 87.8237C349.63 87.8237 349.098 87.3407 349.098 86.1008V81.2219H347.133V86.5678C347.133 88.3229 348.019 89.4823 349.678 89.4823Z" fill="#111111"/>
<path d="M261.343 97.7588H343.354C343.974 97.7588 344.478 98.262 344.478 98.8819V103.374C344.478 103.994 343.974 104.498 343.354 104.498H261.343C260.723 104.498 260.22 103.994 260.22 103.374V98.8819C260.22 98.262 260.723 97.7588 261.343 97.7588Z" fill="#E0E0E0"/>
<path d="M349.786 100.313C350.236 100.313 350.6 100.678 350.6 101.128C350.6 101.579 350.236 101.943 349.786 101.943C349.336 101.943 348.971 101.579 348.971 101.128C348.971 100.678 349.336 100.313 349.786 100.313Z" fill="#E0E0E0"/>
<path d="M356.218 97.7588H394.415C395.035 97.7588 395.539 98.262 395.539 98.8819V103.374C395.539 103.994 395.035 104.498 394.415 104.498H356.218C355.598 104.498 355.095 103.994 355.095 103.374V98.8819C355.095 98.262 355.598 97.7588 356.218 97.7588Z" fill="#E0E0E0"/>
<path d="M519.612 129.702H196.276V128.579H519.612V129.702Z" fill="#F2F2F2"/>
<path d="M225.424 155.698C225.424 154.092 224.138 152.791 222.548 152.791C220.96 152.791 219.672 154.092 219.672 155.698C219.672 157.304 220.96 158.606 222.548 158.606C224.138 158.606 225.424 157.304 225.424 155.698ZM217.515 162.966V164.867H227.581V162.966C227.581 161.033 224.468 160.059 222.548 160.059C220.628 160.059 217.515 161.033 217.515 162.966Z" fill="black"/>
<path d="M239.8 163.846C242.279 163.846 243.6 162.542 243.6 160.753C243.6 159.155 242.367 158.187 240.651 157.821L239.243 157.513C238.128 157.263 237.615 156.851 237.615 156.016C237.615 155.136 238.319 154.491 239.595 154.491C241.209 154.491 241.825 155.533 242.059 156.222L243.437 155.591C243.129 154.565 241.986 153.172 239.727 153.172C237.557 153.172 236.148 154.433 236.148 156.09C236.148 157.835 237.233 158.613 238.832 158.95L240.196 159.257C241.457 159.52 242.059 160.035 242.059 160.885C242.059 161.853 241.296 162.527 239.888 162.527C238.275 162.527 237.425 161.53 237.057 160.357L235.635 161.003C236.119 162.615 237.512 163.846 239.8 163.846Z" fill="black"/>
<path d="M247.793 163.846C249.289 163.846 249.979 162.82 250.213 162.396V163.642H251.563V156.368H250.184V159.535C250.184 160.665 250.097 162.644 248.278 162.644C247.368 162.644 246.782 162.117 246.782 160.812V156.368H245.402V161.135C245.402 162.747 246.136 163.846 247.793 163.846Z" fill="black"/>
<path d="M257.667 163.847C259.383 163.847 260.644 162.381 260.644 160.006C260.644 157.615 259.383 156.162 257.667 156.162C256.391 156.162 255.688 156.867 255.35 157.467V156.075V153.376H253.972V163.642H255.307V162.542C255.658 163.143 256.391 163.847 257.667 163.847ZM257.272 162.673C256.113 162.673 255.277 161.78 255.277 159.99C255.277 158.202 256.113 157.336 257.272 157.336C258.402 157.336 259.223 158.011 259.223 159.99C259.223 161.956 258.402 162.673 257.272 162.673Z" fill="black"/>
<path d="M265.03 163.847C266.908 163.847 267.992 162.967 267.992 161.589C267.992 159.976 266.378 159.505 265.543 159.329L264.677 159.168C263.665 158.978 263.445 158.7 263.445 158.231C263.445 157.718 263.886 157.262 264.853 157.262C265.998 157.262 266.439 157.981 266.615 158.479L267.832 158.01C267.539 157.086 266.672 156.162 264.868 156.162C263.357 156.162 262.126 157.057 262.126 158.362C262.126 159.755 263.168 160.225 264.414 160.474L265.293 160.635C266.291 160.827 266.6 161.193 266.6 161.706C266.6 162.351 266.057 162.718 265.046 162.718C263.857 162.718 263.328 162.088 263.137 161.34L261.833 161.765C262.141 163.143 263.505 163.847 265.03 163.847Z" fill="black"/>
<path d="M272.777 163.847C274.42 163.847 275.52 162.894 276.004 161.545L274.698 161.09C274.449 161.896 273.906 162.659 272.763 162.659C271.603 162.659 270.68 161.809 270.68 160.005C270.68 158.231 271.618 157.351 272.748 157.351C273.759 157.351 274.288 157.996 274.537 158.714L275.828 158.275C275.461 157.131 274.42 156.162 272.763 156.162C270.723 156.162 269.241 157.732 269.241 160.005C269.241 162.351 270.65 163.847 272.777 163.847Z" fill="black"/>
<path d="M278.984 163.641V160.371C278.984 158.655 279.658 157.687 281.272 157.687C281.565 157.687 281.815 157.716 282.049 157.745V156.337C281.888 156.293 281.683 156.264 281.375 156.264C279.923 156.264 279.203 157.35 278.954 157.906V156.368H277.604V163.641H278.984Z" fill="black"/>
<path d="M284.901 153.376H283.433V155.02H284.901V153.376ZM284.872 156.367H283.478V163.642H284.872V156.367Z" fill="black"/>
<path d="M288.638 166.5V163.934V162.541C288.99 163.142 289.68 163.846 290.955 163.846C292.672 163.846 293.934 162.38 293.934 160.004C293.934 157.614 292.672 156.162 290.955 156.162C289.68 156.162 288.946 156.867 288.595 157.467V156.367H287.26V166.5H288.638ZM290.56 162.673C289.401 162.673 288.564 161.779 288.564 159.989C288.564 158.201 289.401 157.336 290.56 157.336C291.689 157.336 292.51 158.01 292.51 159.989C292.51 161.955 291.689 162.673 290.56 162.673Z" fill="black"/>
<path d="M300.08 163.639V162.452H298.555C298.055 162.452 297.836 162.232 297.836 161.733V157.511H299.802V156.367H297.836V154.095H296.457V156.367H294.8V157.511H296.457V161.851C296.457 163.053 297.088 163.639 298.29 163.639H300.08Z" fill="black"/>
<path d="M303.049 153.376H301.582V155.02H303.049V153.376ZM303.019 156.367H301.625V163.642H303.019V156.367Z" fill="black"/>
<path d="M308.296 163.847C310.247 163.847 311.743 162.234 311.743 160.02C311.743 157.806 310.305 156.162 308.296 156.162C306.287 156.162 304.835 157.806 304.835 160.02C304.835 162.204 306.331 163.847 308.296 163.847ZM308.296 162.658C307.094 162.658 306.273 161.809 306.273 160.035C306.273 158.245 307.094 157.351 308.296 157.351C309.485 157.351 310.305 158.245 310.305 160.035C310.305 161.809 309.485 162.658 308.296 162.658Z" fill="black"/>
<path d="M314.95 163.64V160.503C314.95 159.476 314.979 157.365 316.886 157.365C317.825 157.365 318.427 157.893 318.427 159.197V163.64H319.805V158.875C319.805 157.262 319.071 156.162 317.283 156.162C315.756 156.162 315.053 157.233 314.906 157.585V156.367H313.571V163.64H314.95Z" fill="black"/>
<path d="M328.296 163.847C329.572 163.847 330.291 163.143 330.643 162.542V163.642H331.992V153.376H330.614V156.075V157.483C330.261 156.881 329.558 156.162 328.296 156.162C326.58 156.162 325.304 157.629 325.304 160.02C325.304 162.396 326.58 163.847 328.296 163.847ZM328.678 162.673C327.563 162.673 326.727 161.999 326.727 160.02C326.727 158.055 327.563 157.336 328.678 157.336C329.851 157.336 330.687 158.231 330.687 160.02C330.687 161.809 329.851 162.673 328.678 162.673Z" fill="black"/>
<path d="M337.215 163.847C338.725 163.847 339.884 163.142 340.413 161.75L339.151 161.296C338.946 161.809 338.432 162.689 337.258 162.689C336.26 162.689 335.293 162.102 335.234 160.357H340.354C340.618 157.982 339.327 156.162 337.155 156.162C335.264 156.162 333.855 157.658 333.855 160.034C333.855 162.482 335.19 163.847 337.215 163.847ZM335.264 159.257C335.38 157.996 336.217 157.262 337.155 157.262C338.124 157.262 338.946 157.951 338.96 159.257H335.264Z" fill="black"/>
<path d="M346.546 163.639V162.452H345.02C344.521 162.452 344.302 162.232 344.302 161.733V157.511H346.267V156.367H344.302V154.095H342.922V156.367H341.265V157.511H342.922V161.851C342.922 163.053 343.554 163.639 344.757 163.639H346.546Z" fill="black"/>
<path d="M349.983 163.847C351.142 163.847 351.845 163.334 352.359 162.542C352.447 163.157 352.653 163.642 353.709 163.642H354.765V162.469H354.017C353.68 162.469 353.591 162.38 353.591 162.042V158.714C353.591 157.145 352.653 156.162 350.687 156.162C348.766 156.162 347.725 157.204 347.491 158.201L348.809 158.626C349.001 158.068 349.411 157.32 350.687 157.32C351.758 157.32 352.214 157.834 352.214 158.67V158.889C349.852 159.081 347.638 159.756 347.638 161.765C347.638 163.055 348.561 163.847 349.983 163.847ZM350.351 162.717C349.486 162.717 349.059 162.306 349.059 161.647C349.059 160.489 350.512 160.063 352.214 159.887V160.635C352.214 162.088 351.275 162.717 350.351 162.717Z" fill="black"/>
<path d="M357.479 153.376H356.011V155.02H357.479V153.376ZM357.448 156.367H356.055V163.642H357.448V156.367Z" fill="black"/>
<path d="M361.215 153.376H359.836V163.642H361.215V153.376Z" fill="black"/>
<path d="M366.113 163.847C367.99 163.847 369.075 162.967 369.075 161.589C369.075 159.976 367.461 159.505 366.625 159.329L365.76 159.168C364.748 158.978 364.527 158.7 364.527 158.231C364.527 157.718 364.968 157.262 365.936 157.262C367.08 157.262 367.52 157.981 367.696 158.479L368.913 158.01C368.621 157.086 367.755 156.162 365.951 156.162C364.44 156.162 363.208 157.057 363.208 158.362C363.208 159.755 364.25 160.225 365.496 160.474L366.376 160.635C367.373 160.827 367.681 161.193 367.681 161.706C367.681 162.351 367.14 162.718 366.128 162.718C364.939 162.718 364.411 162.088 364.219 161.34L362.915 161.765C363.223 163.143 364.588 163.847 366.113 163.847Z" fill="black"/>
<path d="M221.791 190.411C223.845 190.411 225.101 189.337 225.633 187.815L224.195 187.247C223.857 188.262 223.156 189.059 221.791 189.059C220.172 189.059 219.17 187.863 219.17 185.955C219.17 184.059 220.184 182.936 221.791 182.936C223.168 182.936 223.845 183.805 224.159 184.711L225.62 184.156C225.222 182.791 223.893 181.595 221.803 181.595C219.254 181.595 217.515 183.491 217.515 185.967C217.515 188.491 219.146 190.411 221.791 190.411Z" fill="black"/>
<path d="M228.726 190.411C229.91 190.411 230.466 189.638 230.707 189.24V190.23H232.169V184.216H230.695V187.042C230.695 187.996 230.478 189.167 229.33 189.167C228.69 189.167 228.291 188.805 228.291 187.875V184.216H226.817V188.225C226.817 189.542 227.482 190.411 228.726 190.411Z" fill="black"/>
<path d="M235.429 190.23V187.694C235.429 186.221 235.985 185.605 237.254 185.605C237.471 185.605 237.688 185.617 237.906 185.641V184.144C237.797 184.119 237.676 184.107 237.507 184.107C236.166 184.107 235.611 185.061 235.405 185.545V184.216H233.968V190.23H235.429Z" fill="black"/>
<path d="M240.479 190.23V187.694C240.479 186.221 241.035 185.605 242.303 185.605C242.52 185.605 242.738 185.617 242.955 185.641V184.144C242.847 184.119 242.726 184.107 242.557 184.107C241.216 184.107 240.66 185.061 240.455 185.545V184.216H239.017V190.23H240.479Z" fill="black"/>
<path d="M246.473 190.411C248.067 190.411 248.901 189.602 249.287 188.66L247.958 188.165C247.741 188.672 247.342 189.252 246.497 189.252C245.724 189.252 245.059 188.805 245.011 187.585H249.251C249.444 185.593 248.381 184.035 246.448 184.035C244.781 184.035 243.537 185.303 243.537 187.223C243.537 189.216 244.697 190.411 246.473 190.411ZM245.047 186.499C245.156 185.617 245.724 185.134 246.448 185.134C247.209 185.134 247.741 185.617 247.789 186.499H245.047Z" fill="black"/>
<path d="M252.146 190.23V187.489C252.146 186.764 252.17 185.267 253.523 185.267C254.188 185.267 254.61 185.653 254.61 186.559V190.23H256.084V186.233C256.084 184.917 255.492 184.035 254.055 184.035C252.883 184.035 252.303 184.808 252.11 185.17V184.216H250.684V190.23H252.146Z" fill="black"/>
<path d="M261.724 190.23V189.035H260.443C260.057 189.035 259.887 188.853 259.887 188.467V185.363H261.482V184.216H259.887V182.332H258.414V184.216H257.109V185.363H258.414V188.696C258.414 189.65 258.957 190.23 259.936 190.23H261.724Z" fill="black"/>
<path d="M267.317 192.585V190.472V189.385C267.607 189.844 268.223 190.411 269.261 190.411C270.784 190.411 271.81 189.155 271.81 187.223C271.81 185.291 270.784 184.035 269.261 184.035C268.211 184.035 267.558 184.627 267.28 185.061V184.216H265.855V192.585H267.317ZM268.766 189.252C267.872 189.252 267.256 188.576 267.256 187.211C267.256 185.858 267.872 185.182 268.766 185.182C269.624 185.182 270.276 185.714 270.276 187.211C270.276 188.721 269.624 189.252 268.766 189.252Z" fill="black"/>
<path d="M274.666 181.777H273.205V190.23H274.666V181.777Z" fill="black"/>
<path d="M278.006 190.411C279.021 190.411 279.661 189.904 280.024 189.337C280.096 189.868 280.362 190.23 281.123 190.23H282.246V189.071H281.691C281.377 189.071 281.328 188.998 281.328 188.709V186.281C281.328 184.808 280.422 184.035 278.767 184.035C277.076 184.035 276.134 184.917 276.001 185.81L277.342 186.16C277.499 185.629 277.874 185.146 278.767 185.146C279.541 185.146 279.867 185.508 279.867 186.1V186.305C277.898 186.486 276.086 187.006 276.086 188.684C276.086 189.747 276.883 190.411 278.006 190.411ZM278.49 189.3C277.886 189.3 277.584 189.01 277.584 188.552C277.584 187.682 278.635 187.404 279.867 187.271V187.755C279.867 188.829 279.19 189.3 278.49 189.3Z" fill="black"/>
<path d="M284.694 190.23V187.489C284.694 186.764 284.718 185.267 286.071 185.267C286.735 185.267 287.158 185.653 287.158 186.559V190.23H288.632V186.233C288.632 184.917 288.04 184.035 286.602 184.035C285.431 184.035 284.851 184.808 284.657 185.17V184.216H283.232V190.23H284.694Z" fill="black"/>
<path d="M437.787 209.922L438.277 210.412L433.98 214.708H433.49V214.216L437.787 209.922ZM439.704 206.715C439.571 206.715 439.432 206.768 439.332 206.87L438.356 207.845L440.355 209.843L441.33 208.867C441.537 208.66 441.537 208.324 441.33 208.117L440.083 206.87C439.976 206.763 439.843 206.715 439.704 206.715ZM437.787 208.415L432.425 213.775V215.772H434.423L439.785 210.412L437.787 208.415Z" fill="black"/>
<path d="M451.06 215.388C453 215.388 454.185 214.372 454.687 212.935L453.329 212.4C453.01 213.358 452.35 214.111 451.06 214.111C449.532 214.111 448.584 212.981 448.584 211.178C448.584 209.388 449.543 208.327 451.06 208.327C452.361 208.327 452.999 209.148 453.295 210.004L454.677 209.479C454.301 208.19 453.046 207.061 451.073 207.061C448.666 207.061 447.023 208.851 447.023 211.189C447.023 213.573 448.563 215.388 451.06 215.388Z" fill="black"/>
<path d="M457.495 215.217V212.627C457.495 211.943 457.517 210.529 458.796 210.529C459.423 210.529 459.821 210.894 459.821 211.75V215.217H461.214V211.442C461.214 210.199 460.632 209.365 459.365 209.365C458.191 209.365 457.677 210.096 457.495 210.439V209.308V207.232H456.114V215.217H457.495Z" fill="black"/>
<path d="M464.544 215.387C465.502 215.387 466.106 214.908 466.448 214.372C466.517 214.874 466.767 215.216 467.486 215.216H468.548V214.121H468.023C467.727 214.121 467.681 214.052 467.681 213.779V211.486C467.681 210.095 466.824 209.365 465.261 209.365C463.664 209.365 462.774 210.198 462.649 211.041L463.916 211.372C464.064 210.87 464.417 210.414 465.261 210.414C465.991 210.414 466.3 210.757 466.3 211.315V211.509C464.441 211.68 462.73 212.171 462.73 213.756C462.73 214.759 463.483 215.387 464.544 215.387ZM465 214.337C464.43 214.337 464.144 214.064 464.144 213.631C464.144 212.81 465.137 212.547 466.3 212.421V212.878C466.3 213.892 465.662 214.337 465 214.337Z" fill="black"/>
<path d="M471.086 215.216V212.626C471.086 211.942 471.108 210.528 472.387 210.528C473.014 210.528 473.412 210.893 473.412 211.749V215.216H474.805V211.441C474.805 210.198 474.246 209.365 472.888 209.365C471.782 209.365 471.234 210.095 471.052 210.438V209.536H469.705V215.216H471.086Z" fill="black"/>
<path d="M480.416 217.44C481.476 217.44 482.333 216.858 482.333 215.751C482.333 214.816 481.579 214.087 480.416 214.087H477.964C477.598 214.087 477.416 213.995 477.416 213.79C477.416 213.597 477.563 213.437 477.883 213.334C478.213 213.482 478.614 213.528 479.014 213.528C480.325 213.528 481.273 212.752 481.386 211.497L481.408 211.326C481.466 210.71 481.592 210.62 482.002 210.62H482.56V209.536H482.07C481.373 209.536 481.147 209.81 481.078 210.46C480.759 209.867 480.016 209.365 478.978 209.365C477.586 209.365 476.583 210.243 476.583 211.486C476.583 212.091 476.845 212.604 477.21 212.9C476.777 213.152 476.332 213.562 476.332 214.132C476.332 214.623 476.525 214.908 476.856 215.124C476.525 215.341 476.15 215.751 476.15 216.277C476.15 216.983 476.617 217.44 477.78 217.44H480.416ZM479.014 212.558C478.351 212.558 477.917 212.136 477.917 211.475C477.917 210.825 478.351 210.357 479.014 210.357C479.675 210.357 480.108 210.825 480.108 211.475C480.108 212.136 479.675 212.558 479.014 212.558ZM477.964 216.379C477.553 216.379 477.267 216.219 477.267 215.82C477.267 215.535 477.46 215.306 477.62 215.216H480.176C480.678 215.216 480.952 215.409 480.952 215.785C480.952 216.196 480.678 216.379 480.176 216.379H477.964Z" fill="black"/>
<path d="M485.936 215.387C487.442 215.387 488.231 214.623 488.596 213.733L487.34 213.265C487.134 213.745 486.758 214.292 485.96 214.292C485.23 214.292 484.602 213.87 484.556 212.718H488.561C488.743 210.836 487.739 209.365 485.914 209.365C484.34 209.365 483.165 210.562 483.165 212.376C483.165 214.258 484.259 215.387 485.936 215.387ZM484.591 211.692C484.694 210.859 485.23 210.403 485.914 210.403C486.633 210.403 487.135 210.859 487.182 211.692H484.591Z" fill="black"/>
<path d="M496.743 223.32H422.766C421.867 223.32 421.137 222.59 421.137 221.692V200.797C421.137 199.899 421.867 199.167 422.766 199.167H496.743C497.642 199.167 498.373 199.899 498.373 200.797V221.692C498.373 222.59 497.642 223.32 496.743 223.32ZM422.766 199.982C422.317 199.982 421.951 200.347 421.951 200.797V221.692C421.951 222.141 422.317 222.506 422.766 222.506H496.743C497.193 222.506 497.559 222.141 497.559 221.692V200.797C497.559 200.347 497.193 199.982 496.743 199.982H422.766Z" fill="#DADADA"/>
<path d="M217.627 201.759C217.627 201.139 217.634 200.636 217.644 200.636H219.541C219.55 200.636 219.558 201.139 219.558 201.759V216.622C219.558 217.243 219.55 217.745 219.541 217.745H217.644C217.634 217.745 217.627 217.243 217.627 216.622V201.759Z" fill="#E5EDFF"/>
<path d="M343.659 209.191C343.659 209.64 343.295 210.007 342.845 210.007C342.395 210.007 342.028 209.64 342.028 209.191C342.028 208.741 342.395 208.376 342.845 208.376C343.295 208.376 343.659 208.741 343.659 209.191Z" fill="#E0E0E0"/>
<path d="M348.648 201.759C348.648 201.139 348.656 200.636 348.666 200.636H349.602C349.612 200.636 349.62 201.139 349.62 201.759V216.622C349.62 217.243 349.612 217.745 349.602 217.745H348.666C348.656 217.745 348.648 217.243 348.648 216.622V201.759Z" fill="#E5EDFF"/>
<path d="M216.524 226.919C216.524 226.299 216.532 225.796 216.542 225.796H217.64C217.65 225.796 217.658 226.299 217.658 226.919V230.711C217.658 231.332 217.65 231.834 217.64 231.834H216.542C216.532 231.834 216.524 231.332 216.524 230.711V226.919Z" fill="#E5EDFF"/>
<path d="M294.105 228.815C294.105 229.265 293.739 229.631 293.289 229.631C292.839 229.631 292.474 229.265 292.474 228.815C292.474 228.365 292.839 228.001 293.289 228.001C293.739 228.001 294.105 228.365 294.105 228.815Z" fill="#E0E0E0"/>
<path d="M298.599 226.919C298.599 226.299 298.607 225.796 298.617 225.796H299.115C299.125 225.796 299.133 226.299 299.133 226.919V230.711C299.133 231.332 299.125 231.834 299.115 231.834H298.617C298.607 231.834 298.599 231.332 298.599 230.711V226.919Z" fill="#E5EDFF"/>
<path d="M249.193 295.352C249.193 294.731 249.195 294.229 249.198 294.229H249.799C249.802 294.229 249.804 294.731 249.804 295.352V304.176C249.804 304.796 249.802 305.299 249.799 305.299H249.198C249.195 305.299 249.193 304.796 249.193 304.176V295.352Z" fill="#E5EDFF"/>
<path d="M249.1 315.414C249.1 314.793 249.108 314.291 249.118 314.291H249.697C249.707 314.291 249.716 314.793 249.716 315.414V320.213C249.716 320.833 249.707 321.336 249.697 321.336H249.118C249.108 321.336 249.1 320.833 249.1 320.213V315.414Z" fill="#E5EDFF"/>
<path d="M293.828 315.414C293.828 314.793 293.836 314.291 293.846 314.291H294.426C294.436 314.291 294.444 314.793 294.444 315.414V320.213C294.444 320.833 294.436 321.336 294.426 321.336H293.846C293.836 321.336 293.828 320.833 293.828 320.213V315.414Z" fill="#E5EDFF"/>
<path d="M353.544 315.414C353.544 314.793 353.552 314.291 353.562 314.291H353.752C353.762 314.291 353.77 314.793 353.77 315.414V320.213C353.77 320.833 353.762 321.336 353.752 321.336H353.562C353.552 321.336 353.544 320.833 353.544 320.213V315.414Z" fill="#E5EDFF"/>
<path d="M371.636 315.414C371.636 314.793 371.644 314.291 371.654 314.291H371.86C371.87 314.291 371.878 314.793 371.878 315.414V320.213C371.878 320.833 371.87 321.336 371.86 321.336H371.654C371.644 321.336 371.636 320.833 371.636 320.213V315.414Z" fill="#E5EDFF"/>
<path d="M542.346 29.9355H213.166V386.195H542.346V29.9355Z" fill="white"/>
<path d="M541.328 30.4067V385.743H213.642V30.4067H541.328Z" fill="white"/>
<path d="M541.328 30.4067V385.743H213.642V30.4067H541.328Z" stroke="#DEDEDE" stroke-width="1.22041"/>
<path d="M239.492 55.3556C239.492 54.7988 239.937 54.3469 240.485 54.3469H270.664C271.214 54.3469 271.658 54.7988 271.658 55.3556V85.7619C271.658 86.3197 271.214 86.7706 270.664 86.7706H240.485C239.937 86.7706 239.492 86.3197 239.492 85.7619V55.3556Z" fill="black"/>
<path d="M252.152 72.0647H258.997V78.8498H262.641V61.9006H258.997V68.601H252.152V61.9006H248.508V78.8498H252.152V72.0647Z" fill="white"/>
<path d="M285.149 70.0917V65.1695H290.363V70.0917H292.429V58.7949H290.363V63.3621H285.149V58.7949H283.083V70.0917H285.149ZM297.018 70.3338C298.353 70.3338 299.195 69.6559 299.672 68.8975C299.767 69.6075 300.117 70.0917 301.119 70.0917H302.597V68.5424H301.866C301.452 68.5424 301.389 68.4456 301.389 68.0583V64.8145C301.389 62.8456 300.197 61.8128 298.019 61.8128C295.794 61.8128 294.554 62.9909 294.379 64.1851L296.143 64.6531C296.35 63.943 296.843 63.2975 298.019 63.2975C299.036 63.2975 299.465 63.7816 299.465 64.5724V64.8468C296.875 65.0888 294.49 65.7828 294.49 68.026C294.49 69.4462 295.539 70.3338 297.018 70.3338ZM297.653 68.849C296.859 68.849 296.461 68.4617 296.461 67.8485C296.461 66.6865 297.844 66.3153 299.465 66.1378V66.7834C299.465 68.2197 298.575 68.849 297.653 68.849ZM306.292 70.3338C307.85 70.3338 308.581 69.3009 308.899 68.7683V70.0917H310.823V62.0549H308.883V65.8312C308.883 67.1061 308.597 68.6715 307.087 68.6715C306.245 68.6715 305.72 68.1874 305.72 66.9447V62.0549H303.781V67.4127C303.781 69.1718 304.655 70.3338 306.292 70.3338ZM316.99 70.0917L318.007 66.4283C318.405 65.0404 318.548 64.5401 318.675 64.0237C318.802 64.5079 318.961 65.0404 319.342 66.4444L320.36 70.0917H322.68L325.271 62.0549H323.269L322.474 64.8306C321.87 67.0577 321.695 67.7516 321.584 68.139C321.456 67.7516 321.266 67.0416 320.837 65.4277L319.883 62.0549H317.594L316.688 65.2825C316.211 67.0093 316.02 67.7678 315.909 68.1874C315.782 67.7516 315.575 66.977 315.067 65.0082L314.256 62.0549H312.253L314.812 70.0917H316.99ZM328.652 70.3338C329.987 70.3338 330.83 69.6559 331.307 68.8975C331.402 69.6075 331.752 70.0917 332.753 70.0917H334.231V68.5424H333.5C333.087 68.5424 333.023 68.4456 333.023 68.0583V64.8145C333.023 62.8456 331.831 61.8128 329.653 61.8128C327.428 61.8128 326.188 62.9909 326.013 64.1851L327.778 64.6531C327.984 63.943 328.477 63.2975 329.653 63.2975C330.671 63.2975 331.1 63.7816 331.1 64.5724V64.8468C328.509 65.0888 326.125 65.7828 326.125 68.026C326.125 69.4462 327.174 70.3338 328.652 70.3338ZM329.288 68.849C328.493 68.849 328.096 68.4617 328.096 67.8485C328.096 66.6865 329.479 66.3153 331.1 66.1378V66.7834C331.1 68.2197 330.21 68.849 329.288 68.849ZM349.082 70.0917L344.918 58.7949H342.184L337.956 70.0917H340.181L341.151 67.2998H345.824L346.778 70.0917H349.082ZM342.724 62.7811C343.169 61.5223 343.36 60.9252 343.503 60.4895C343.662 60.9413 343.853 61.49 344.282 62.7649L345.204 65.4923H341.786L342.724 62.7811ZM352.353 58.7949H350.429V70.0917H352.353V58.7949ZM356.685 58.7788H354.619V60.7961H356.685V58.7788ZM356.637 62.0549H354.698V70.0917H356.637V62.0549ZM362.925 65.4923L362.226 67.6548C362.083 67.3159 361.892 66.9125 361.304 65.5084L359.857 62.0549H357.759L361.447 70.0271L361.208 70.7533C360.97 71.415 360.716 71.6087 360.143 71.6087H358.284V73.2386H360.35C361.733 73.2386 362.369 72.6577 362.83 71.302L366.056 62.0549H364.038L362.925 65.4923ZM369.92 70.3338C371.478 70.3338 372.209 69.3009 372.527 68.7683V70.0917H374.45V62.0549H372.511V65.8312C372.511 67.1061 372.225 68.6715 370.715 68.6715C369.872 68.6715 369.348 68.1874 369.348 66.9447V62.0549H367.408V67.4127C367.408 69.1718 368.283 70.3338 369.92 70.3338Z" fill="#111111"/>
<path d="M282.745 78.6289H363.679C364.291 78.6289 364.788 79.1332 364.788 79.7545V84.2571C364.788 84.8784 364.291 85.3827 363.679 85.3827H282.745C282.133 85.3827 281.636 84.8784 281.636 84.2571V79.7545C281.636 79.1332 282.133 78.6289 282.745 78.6289Z" fill="#E0E0E0"/>
<path d="M370.026 81.1887C370.47 81.1887 370.83 81.5549 370.83 82.0057C370.83 82.4576 370.47 82.8227 370.026 82.8227C369.582 82.8227 369.222 82.4576 369.222 82.0057C369.222 81.5549 369.582 81.1887 370.026 81.1887Z" fill="#E0E0E0"/>
<path d="M376.374 78.6289H414.07C414.682 78.6289 415.178 79.1332 415.178 79.7545V84.2571C415.178 84.8784 414.682 85.3827 414.07 85.3827H376.374C375.762 85.3827 375.266 84.8784 375.266 84.2571V79.7545C375.266 79.1332 375.762 78.6289 376.374 78.6289Z" fill="#E0E0E0"/>
<path d="M538.836 110.644H217.318V109.518H538.836V110.644Z" fill="#F2F2F2"/>
<path d="M247.413 140.423C247.916 140.423 248.359 140.148 248.588 139.732L250.991 135.377C251.238 134.934 250.916 134.384 250.407 134.384H240.474L239.843 133.042H237.648V134.384H238.991L241.407 139.477L240.501 141.115C240.011 142.013 240.655 143.107 241.675 143.107H249.728V141.766H241.675L242.414 140.423H247.413ZM241.111 135.727H249.265L247.413 139.081H242.702L241.111 135.727ZM241.675 143.779C240.937 143.779 240.34 144.382 240.34 145.12C240.34 145.858 240.937 146.462 241.675 146.462C242.414 146.462 243.018 145.858 243.018 145.12C243.018 144.382 242.414 143.779 241.675 143.779ZM248.386 143.779C247.648 143.779 247.05 144.382 247.05 145.12C247.05 145.858 247.648 146.462 248.386 146.462C249.124 146.462 249.728 145.858 249.728 145.12C249.728 144.382 249.124 143.779 248.386 143.779Z" fill="black"/>
<path d="M260.596 144.884V140.647H262.722C264.1 140.647 264.776 141.131 265.01 142.436L265.421 144.884H267.02L266.507 142.304C266.258 141.057 265.758 140.369 264.379 140.148C265.714 139.885 266.828 138.989 266.828 137.405C266.828 135.836 265.642 134.619 263.515 134.619H259.129V144.884H260.596ZM260.596 135.969H263.295C264.439 135.969 265.288 136.481 265.288 137.641C265.288 138.799 264.439 139.326 263.295 139.326H260.596V135.969Z" fill="black"/>
<path d="M271.723 145.09C273.234 145.09 274.391 144.385 274.919 142.992L273.659 142.539C273.453 143.052 272.94 143.931 271.767 143.931C270.769 143.931 269.8 143.344 269.742 141.6H274.861C275.124 139.224 273.835 137.405 271.664 137.405C269.772 137.405 268.363 138.902 268.363 141.277C268.363 143.725 269.698 145.09 271.723 145.09ZM269.771 140.5C269.889 139.239 270.725 138.505 271.664 138.505C272.632 138.505 273.452 139.194 273.467 140.5H269.771Z" fill="black"/>
<path d="M279.776 145.09C281.419 145.09 282.519 144.137 283.003 142.788L281.698 142.333C281.448 143.139 280.906 143.902 279.762 143.902C278.602 143.902 277.679 143.052 277.679 141.248C277.679 139.474 278.617 138.594 279.747 138.594C280.759 138.594 281.287 139.239 281.537 139.957L282.827 139.517C282.46 138.373 281.419 137.405 279.762 137.405C277.723 137.405 276.242 138.975 276.242 141.248C276.242 143.594 277.649 145.09 279.776 145.09Z" fill="black"/>
<path d="M287.422 145.09C288.933 145.09 290.091 144.385 290.619 142.992L289.358 142.539C289.152 143.052 288.638 143.931 287.464 143.931C286.467 143.931 285.499 143.344 285.441 141.6H290.561C290.824 139.224 289.534 137.405 287.363 137.405C285.471 137.405 284.061 138.902 284.061 141.277C284.061 143.725 285.397 145.09 287.422 145.09ZM285.47 140.5C285.588 139.239 286.424 138.505 287.363 138.505C288.331 138.505 289.152 139.194 289.167 140.5H285.47Z" fill="black"/>
<path d="M293.876 144.884V141.747C293.876 140.72 293.906 138.609 295.812 138.609C296.752 138.609 297.353 139.137 297.353 140.442V144.884H298.731V140.119C298.731 138.506 297.997 137.406 296.208 137.406C294.682 137.406 293.978 138.477 293.831 138.829V137.612H292.497V144.884H293.876Z" fill="black"/>
<path d="M305.362 144.884V143.696H303.835C303.336 143.696 303.118 143.477 303.118 142.978V138.755H305.083V137.612H303.118V135.339H301.738V137.612H300.082V138.755H301.738V143.095C301.738 144.297 302.369 144.884 303.571 144.884H305.362Z" fill="black"/>
<path d="M315.353 145.089C318.3 145.089 320.472 142.949 320.472 139.753C320.472 136.571 318.3 134.415 315.353 134.415C312.404 134.415 310.19 136.571 310.19 139.753C310.19 142.949 312.389 145.089 315.353 145.089ZM315.338 143.755C313.094 143.755 311.759 142.041 311.759 139.753C311.759 137.466 313.094 135.75 315.338 135.75C317.582 135.75 318.916 137.466 318.916 139.753C318.916 142.041 317.582 143.755 315.338 143.755Z" fill="black"/>
<path d="M323.799 144.885V141.615C323.799 139.899 324.473 138.931 326.087 138.931C326.38 138.931 326.629 138.96 326.864 138.989V137.581C326.703 137.538 326.498 137.508 326.19 137.508C324.737 137.508 324.017 138.594 323.767 139.15V137.611H322.419V144.885H323.799Z" fill="black"/>
<path d="M330.64 145.09C331.916 145.09 332.635 144.386 332.988 143.785V144.884H334.336V134.619H332.958V137.317V138.725C332.606 138.124 331.901 137.405 330.64 137.405C328.925 137.405 327.648 138.872 327.648 141.263C327.648 143.639 328.925 145.09 330.64 145.09ZM331.022 143.916C329.907 143.916 329.071 143.242 329.071 141.263C329.071 139.298 329.907 138.578 331.022 138.578C332.195 138.578 333.031 139.474 333.031 141.263C333.031 143.052 332.195 143.916 331.022 143.916Z" fill="black"/>
<path d="M339.558 145.09C341.069 145.09 342.229 144.385 342.757 142.992L341.496 142.539C341.291 143.052 340.776 143.931 339.602 143.931C338.605 143.931 337.637 143.344 337.578 141.6H342.698C342.963 139.224 341.67 137.405 339.5 137.405C337.607 137.405 336.2 138.902 336.2 141.277C336.2 143.725 337.535 145.09 339.558 145.09ZM337.608 140.5C337.726 139.239 338.56 138.505 339.5 138.505C340.468 138.505 341.291 139.194 341.305 140.5H337.608Z" fill="black"/>
<path d="M346.013 144.885V141.615C346.013 139.899 346.689 138.931 348.302 138.931C348.596 138.931 348.845 138.96 349.08 138.989V137.581C348.918 137.538 348.713 137.508 348.405 137.508C346.953 137.508 346.233 138.594 345.984 139.15V137.611H344.635V144.885H346.013Z" fill="black"/>
<path d="M352.972 145.09C354.849 145.09 355.935 144.21 355.935 142.831C355.935 141.219 354.322 140.748 353.485 140.573L352.621 140.411C351.608 140.221 351.388 139.943 351.388 139.474C351.388 138.961 351.828 138.505 352.797 138.505C353.94 138.505 354.38 139.225 354.556 139.724L355.773 139.253C355.48 138.329 354.615 137.405 352.811 137.405C351.3 137.405 350.069 138.3 350.069 139.605C350.069 140.998 351.11 141.468 352.357 141.717L353.237 141.878C354.233 142.07 354.541 142.436 354.541 142.949C354.541 143.594 353.999 143.961 352.987 143.961C351.799 143.961 351.271 143.331 351.08 142.583L349.775 143.008C350.083 144.386 351.447 145.09 352.972 145.09Z" fill="black"/>
<path d="M237.499 182.972C237.499 182.351 237.507 181.849 237.517 181.849H238.836C238.846 181.849 238.854 182.351 238.854 182.972V187.465C238.854 188.085 238.846 188.588 238.836 188.588H237.517C237.507 188.588 237.499 188.085 237.499 187.465V182.972Z" fill="#BAE3E0"/>
<path d="M332.61 182.972C332.61 182.351 332.618 181.849 332.628 181.849H333.242C333.252 181.849 333.26 182.351 333.26 182.972V187.465C333.26 188.085 333.252 188.588 333.242 188.588H332.628C332.618 188.588 332.61 188.085 332.61 187.465V182.972Z" fill="#BAE3E0"/>
<path d="M328.028 185.22C328.028 185.67 327.663 186.035 327.213 186.035C326.763 186.035 326.397 185.67 326.397 185.22C326.397 184.77 326.763 184.404 327.213 184.404C327.663 184.404 328.028 184.77 328.028 185.22Z" fill="#E0E0E0"/>
<path d="M237.499 234.082C237.499 233.461 237.507 232.959 237.517 232.959H238.836C238.846 232.959 238.854 233.461 238.854 234.082V238.575C238.854 239.195 238.846 239.698 238.836 239.698H237.517C237.507 239.698 237.499 239.195 237.499 238.575V234.082Z" fill="#BAE3E0"/>
<path d="M328.028 236.33C328.028 236.779 327.663 237.144 327.213 237.144C326.763 237.144 326.397 236.779 326.397 236.33C326.397 235.88 326.763 235.513 327.213 235.513C327.663 235.513 328.028 235.88 328.028 236.33Z" fill="#E0E0E0"/>
<path d="M333.105 234.082C333.105 233.461 333.113 232.959 333.123 232.959H333.738C333.748 232.959 333.756 233.461 333.756 234.082V238.575C333.756 239.195 333.748 239.698 333.738 239.698H333.123C333.113 239.698 333.105 239.195 333.105 238.575V234.082Z" fill="#BAE3E0"/>
<path d="M237.648 245.314C237.648 244.693 237.656 244.19 237.666 244.19H238.456C238.466 244.19 238.474 244.693 238.474 245.314V250.112C238.474 250.732 238.466 251.235 238.456 251.235H237.666C237.656 251.235 237.648 250.732 237.648 250.112V245.314Z" fill="#BAE3E0"/>
<path d="M295.112 247.714C295.112 248.164 294.747 248.528 294.297 248.528C293.846 248.528 293.481 248.164 293.481 247.714C293.481 247.264 293.846 246.898 294.297 246.898C294.747 246.898 295.112 247.264 295.112 247.714Z" fill="#E0E0E0"/>
<path d="M299.605 245.314C299.605 244.693 299.614 244.19 299.624 244.19H299.976C299.986 244.19 299.994 244.693 299.994 245.314V250.112C299.994 250.732 299.986 251.235 299.976 251.235H299.624C299.614 251.235 299.605 250.732 299.605 250.112V245.314Z" fill="#B8E1DF"/>
<path d="M237.994 296.73C237.994 296.109 238.002 295.606 238.012 295.606H239.331C239.341 295.606 239.35 296.109 239.35 296.73V301.222C239.35 301.842 239.341 302.345 239.331 302.345H238.012C238.002 302.345 237.994 301.842 237.994 301.222V296.73Z" fill="#BAE3E0"/>
<path d="M328.028 298.977C328.028 299.427 327.663 299.791 327.213 299.791C326.763 299.791 326.397 299.427 326.397 298.977C326.397 298.527 326.763 298.161 327.213 298.161C327.663 298.161 328.028 298.527 328.028 298.977Z" fill="#E0E0E0"/>
<path d="M332.61 296.73C332.61 296.109 332.618 295.606 332.628 295.606H333.242C333.252 295.606 333.26 296.109 333.26 296.73V301.222C333.26 301.842 333.252 302.345 333.242 302.345H332.628C332.618 302.345 332.61 301.842 332.61 301.222V296.73Z" fill="#BAE3E0"/>
<path d="M472.622 178.202L470.065 175.594L470.908 174.736L474.903 178.809L470.908 182.884L470.065 182.024L472.622 179.418H465.94V178.202H472.622Z" fill="black"/>
<path d="M486.236 182.721L488.928 174.738H487.297L485.814 179.47C485.415 180.748 485.301 181.101 485.164 181.489C485.05 181.101 484.935 180.748 484.535 179.459L483.076 174.738H481.42L484.103 182.721H486.236Z" fill="black"/>
<path d="M491.612 174.726H490.13V176.152H491.612V174.726ZM491.578 177.042H490.188V182.721H491.578V177.042Z" fill="black"/>
<path d="M495.851 182.892C497.357 182.892 498.145 182.128 498.511 181.238L497.254 180.769C497.049 181.248 496.673 181.797 495.874 181.797C495.144 181.797 494.516 181.375 494.471 180.223H498.475C498.658 178.342 497.654 176.869 495.829 176.869C494.254 176.869 493.08 178.067 493.08 179.879C493.08 181.761 494.174 182.892 495.851 182.892ZM494.506 179.196C494.609 178.363 495.144 177.908 495.829 177.908C496.548 177.908 497.05 178.363 497.096 179.196H494.506Z" fill="black"/>
<path d="M502.784 182.721L503.515 180.131C503.8 179.15 503.902 178.798 503.994 178.432C504.085 178.775 504.199 179.15 504.473 180.142L505.203 182.721H506.868L508.728 177.041H507.291L506.72 179.003C506.286 180.577 506.161 181.067 506.081 181.341C505.99 181.067 505.853 180.564 505.545 179.424L504.861 177.041H503.218L502.568 179.321C502.225 180.542 502.088 181.078 502.009 181.375C501.917 181.067 501.769 180.52 501.404 179.129L500.822 177.041H499.384L501.222 182.721H502.784Z" fill="black"/>
<path d="M457.791 166.997H516.876C517.552 166.997 518.098 167.544 518.098 168.219V189.399C518.098 190.074 517.552 190.621 516.876 190.621H457.791C457.116 190.621 456.569 190.074 456.569 189.399V168.219C456.569 167.544 457.116 166.997 457.791 166.997Z" stroke="#DADADA" stroke-width="0.809"/>
<path d="M472.622 235.08L470.065 232.472L470.908 231.614L474.903 235.687L470.908 239.761L470.065 238.902L472.622 236.295H465.94V235.08H472.622Z" fill="black"/>
<path d="M486.236 239.599L488.928 231.617H487.297L485.814 236.35C485.415 237.627 485.301 237.98 485.164 238.368C485.05 237.98 484.935 237.627 484.535 236.338L483.076 231.617H481.42L484.103 239.599H486.236Z" fill="black"/>
<path d="M491.612 231.604H490.13V233.031H491.612V231.604ZM491.578 233.92H490.188V239.599H491.578V233.92Z" fill="black"/>
<path d="M495.851 239.77C497.357 239.77 498.145 239.007 498.511 238.117L497.254 237.65C497.049 238.128 496.673 238.676 495.874 238.676C495.144 238.676 494.516 238.253 494.471 237.102H498.475C498.658 235.22 497.654 233.748 495.829 233.748C494.254 233.748 493.08 234.947 493.08 236.76C493.08 238.641 494.174 239.77 495.851 239.77ZM494.506 236.075C494.609 235.242 495.144 234.787 495.829 234.787C496.548 234.787 497.05 235.242 497.096 236.075H494.506Z" fill="black"/>
<path d="M502.784 239.599L503.515 237.01C503.8 236.029 503.902 235.676 503.994 235.311C504.085 235.653 504.199 236.029 504.473 237.021L505.203 239.599H506.868L508.728 233.919H507.291L506.72 235.882C506.286 237.456 506.161 237.946 506.081 238.219C505.99 237.946 505.853 237.444 505.545 236.302L504.861 233.919H503.218L502.568 236.2C502.225 237.42 502.088 237.957 502.009 238.254C501.917 237.946 501.769 237.398 501.404 236.007L500.822 233.919H499.384L501.222 239.599H502.784Z" fill="black"/>
<path d="M457.791 223.875H516.876C517.552 223.875 518.098 224.423 518.098 225.097V246.278C518.098 246.953 517.552 247.499 516.876 247.499H457.791C457.116 247.499 456.569 246.953 456.569 246.278V225.097C456.569 224.423 457.116 223.875 457.791 223.875Z" stroke="#DADADA" stroke-width="0.809"/>
<path d="M472.622 291.958L470.065 289.353L470.908 288.492L474.903 292.565L470.908 296.64L470.065 295.781L472.622 293.174H465.94V291.958H472.622Z" fill="black"/>
<path d="M486.236 296.478L488.928 288.495H487.297L485.814 293.228C485.415 294.505 485.301 294.859 485.164 295.247C485.05 294.859 484.935 294.505 484.535 293.216L483.076 288.495H481.42L484.103 296.478H486.236Z" fill="black"/>
<path d="M491.612 288.483H490.13V289.909H491.612V288.483ZM491.578 290.799H490.188V296.478H491.578V290.799Z" fill="black"/>
<path d="M495.851 296.649C497.357 296.649 498.145 295.885 498.511 294.996L497.254 294.529C497.049 295.008 496.673 295.555 495.874 295.555C495.144 295.555 494.516 295.132 494.471 293.98H498.475C498.658 292.098 497.654 290.627 495.829 290.627C494.254 290.627 493.08 291.826 493.08 293.639C493.08 295.521 494.174 296.649 495.851 296.649ZM494.506 292.954C494.609 292.12 495.144 291.665 495.829 291.665C496.548 291.665 497.05 292.12 497.096 292.954H494.506Z" fill="black"/>
<path d="M502.784 296.478L503.515 293.889C503.8 292.907 503.902 292.555 503.994 292.19C504.085 292.532 504.199 292.907 504.473 293.9L505.203 296.478H506.868L508.728 290.798H507.291L506.72 292.761C506.286 294.335 506.161 294.825 506.081 295.098C505.99 294.825 505.853 294.322 505.545 293.181L504.861 290.798H503.218L502.568 293.079C502.225 294.299 502.088 294.836 502.009 295.132C501.917 294.824 501.769 294.277 501.404 292.886L500.822 290.798H499.384L501.222 296.478H502.784Z" fill="black"/>
<path d="M457.791 280.754H516.876C517.552 280.754 518.098 281.302 518.098 281.976V303.157C518.098 303.832 517.552 304.378 516.876 304.378H457.791C457.116 304.378 456.569 303.832 456.569 303.157V281.976C456.569 281.302 457.116 280.754 457.791 280.754Z" stroke="#DADADA" stroke-width="0.809"/>
<g opacity="0.186291">
<path d="M562.479 8.8894H233.299V365.149H562.479V8.8894Z" fill="white"/>
<path d="M561.461 9.3606V364.697H233.775V9.3606H561.461Z" fill="white"/>
<path d="M561.461 9.3606V364.697H233.775V9.3606H561.461Z" stroke="#DEDEDE" stroke-width="1.22041"/>
<path d="M257.782 34.3699C257.782 33.8144 258.233 33.3635 258.788 33.3635H289.369C289.925 33.3635 290.375 33.8144 290.375 34.3699V64.7083C290.375 65.2649 289.925 65.7147 289.369 65.7147H258.788C258.233 65.7147 257.782 65.2649 257.782 64.7083V34.3699Z" fill="black"/>
<path d="M270.61 51.0417H277.546V57.8117H281.239V40.9004H277.546V47.5858H270.61V40.9004H266.917V57.8117H270.61V51.0417Z" fill="white"/>
<path d="M304.046 49.0732V44.1621H309.329V49.0732H311.423V37.8017H309.329V42.3586H304.046V37.8017H301.952V49.0732H304.046ZM316.073 49.3148C317.426 49.3148 318.279 48.6385 318.762 47.8817C318.859 48.5902 319.213 49.0732 320.228 49.0732H321.726V47.5274H320.985C320.566 47.5274 320.502 47.4308 320.502 47.0444V43.8078C320.502 41.8434 319.294 40.8128 317.087 40.8128C314.832 40.8128 313.576 41.9883 313.399 43.1799L315.187 43.6468C315.396 42.9383 315.895 42.2942 317.087 42.2942C318.118 42.2942 318.553 42.7773 318.553 43.5663V43.84C315.928 44.0816 313.512 44.774 313.512 47.0122C313.512 48.4292 314.575 49.3148 316.073 49.3148ZM316.717 47.8334C315.912 47.8334 315.509 47.4469 315.509 46.835C315.509 45.6757 316.91 45.3053 318.553 45.1282V45.7723C318.553 47.2054 317.651 47.8334 316.717 47.8334ZM325.471 49.3148C327.049 49.3148 327.79 48.2842 328.112 47.7529V49.0732H330.061V41.0544H328.096V44.8223C328.096 46.0943 327.806 47.6563 326.276 47.6563C325.422 47.6563 324.891 47.1732 324.891 45.9333V41.0544H322.926V46.4003C322.926 48.1554 323.812 49.3148 325.471 49.3148ZM336.311 49.0732L337.341 45.4181C337.744 44.0333 337.889 43.5341 338.018 43.0188C338.147 43.5019 338.308 44.0333 338.694 45.4342L339.725 49.0732H342.077L344.702 41.0544H342.673L341.867 43.8239C341.255 46.046 341.078 46.7384 340.965 47.1249C340.837 46.7384 340.643 46.0299 340.208 44.4197L339.242 41.0544H336.923L336.005 44.2748C335.521 45.9977 335.328 46.7545 335.215 47.1732C335.086 46.7384 334.877 45.9655 334.362 44.0011L333.54 41.0544H331.511L334.104 49.0732H336.311ZM348.128 49.3148C349.481 49.3148 350.334 48.6385 350.818 47.8817C350.914 48.5902 351.269 49.0732 352.283 49.0732H353.781V47.5274H353.04C352.622 47.5274 352.557 47.4308 352.557 47.0444V43.8078C352.557 41.8434 351.349 40.8128 349.143 40.8128C346.888 40.8128 345.631 41.9883 345.454 43.1799L347.242 43.6468C347.451 42.9383 347.951 42.2942 349.143 42.2942C350.173 42.2942 350.608 42.7773 350.608 43.5663V43.84C347.983 44.0816 345.567 44.774 345.567 47.0122C345.567 48.4292 346.63 49.3148 348.128 49.3148ZM348.772 47.8334C347.967 47.8334 347.564 47.4469 347.564 46.835C347.564 45.6757 348.965 45.3053 350.608 45.1282V45.7723C350.608 47.2054 349.706 47.8334 348.772 47.8334ZM368.83 49.0732L364.61 37.8017H361.84L357.555 49.0732H359.81L360.793 46.2876H365.528L366.494 49.0732H368.83ZM362.387 41.779C362.838 40.523 363.032 39.9272 363.177 39.4925C363.338 39.9433 363.531 40.4908 363.966 41.7629L364.9 44.4841H361.437L362.387 41.779ZM372.144 37.8017H370.195V49.0732H372.144V37.8017ZM376.534 37.7856H374.44V39.7984H376.534V37.7856ZM376.486 41.0544H374.521V49.0732H376.486V41.0544ZM382.857 44.4841L382.148 46.6418C382.003 46.3037 381.81 45.9011 381.214 44.5002L379.748 41.0544H377.622L381.359 49.0088L381.117 49.7334C380.876 50.3936 380.618 50.5868 380.038 50.5868H378.154V52.2132H380.248C381.649 52.2132 382.293 51.6335 382.76 50.2809L386.03 41.0544H383.984L382.857 44.4841ZM389.945 49.3148C391.523 49.3148 392.264 48.2842 392.586 47.7529V49.0732H394.535V41.0544H392.57V44.8223C392.57 46.0943 392.28 47.6563 390.75 47.6563C389.896 47.6563 389.365 47.1732 389.365 45.9333V41.0544H387.4V46.4003C387.4 48.1554 388.286 49.3148 389.945 49.3148Z" fill="#111111"/>
<path d="M301.61 57.5913H383.621C384.241 57.5913 384.744 58.0945 384.744 58.7144V63.2069C384.744 63.8269 384.241 64.3301 383.621 64.3301H301.61C300.99 64.3301 300.486 63.8269 300.486 63.2069V58.7144C300.486 58.0945 300.99 57.5913 301.61 57.5913Z" fill="#E0E0E0"/>
<path d="M390.052 60.1455C390.502 60.1455 390.867 60.5108 390.867 60.9607C390.867 61.4115 390.502 61.7758 390.052 61.7758C389.603 61.7758 389.238 61.4115 389.238 60.9607C389.238 60.5108 389.603 60.1455 390.052 60.1455Z" fill="#E0E0E0"/>
<path d="M396.485 57.5913H434.682C435.302 57.5913 435.805 58.0945 435.805 58.7144V63.2069C435.805 63.8269 435.302 64.3301 434.682 64.3301H396.485C395.865 64.3301 395.362 63.8269 395.362 63.2069V58.7144C395.362 58.0945 395.865 57.5913 396.485 57.5913Z" fill="#E0E0E0"/>
<path d="M559.878 89.5347H236.543V88.4116H559.878V89.5347Z" fill="#F2F2F2"/>
<path d="M273.117 120.273L266.07 113.228L259.024 120.273L266.07 127.318L273.117 120.273ZM264.057 122.286C262.946 121.174 262.946 119.371 264.057 118.26C265.169 117.148 266.972 117.148 268.084 118.26C269.196 119.371 269.196 121.174 268.084 122.286C266.972 123.397 265.169 123.397 264.057 122.286Z" fill="black"/>
<path d="M291.608 124.759L287.823 114.493H285.799L281.942 124.759H283.526L284.494 122.045H289.011L289.965 124.759H291.608ZM285.975 117.91C286.371 116.824 286.606 116.136 286.767 115.71C286.929 116.136 287.149 116.752 287.545 117.91L288.527 120.697H284.978L285.975 117.91Z" fill="black"/>
<path d="M295.971 124.964C297.614 124.964 298.715 124.011 299.198 122.661L297.893 122.207C297.644 123.013 297.101 123.776 295.956 123.776C294.798 123.776 293.874 122.926 293.874 121.122C293.874 119.348 294.813 118.468 295.942 118.468C296.954 118.468 297.482 119.112 297.731 119.83L299.023 119.391C298.655 118.248 297.614 117.279 295.956 117.279C293.918 117.279 292.437 118.849 292.437 121.122C292.437 123.468 293.844 124.964 295.971 124.964Z" fill="black"/>
<path d="M305.127 124.757V123.57H303.602C303.103 123.57 302.883 123.35 302.883 122.851V118.629H304.849V117.485H302.883V115.213H301.504V117.485H299.848V118.629H301.504V122.968C301.504 124.171 302.135 124.757 303.337 124.757H305.127Z" fill="black"/>
<path d="M308.096 114.493H306.628V116.137H308.096V114.493ZM308.067 117.484H306.672V124.759H308.067V117.484Z" fill="black"/>
<path d="M313.783 124.757L316.174 117.485H314.766L313.563 121.474C313.299 122.339 313.05 123.16 312.933 123.513C312.83 123.174 312.58 122.353 312.302 121.474L311.04 117.485H309.589L312.067 124.757H313.783Z" fill="black"/>
<path d="M319.182 114.493H317.714V116.137H319.182V114.493ZM319.152 117.484H317.759V124.759H319.152V117.484Z" fill="black"/>
<path d="M325.867 124.757V123.57H324.342C323.843 123.57 323.624 123.35 323.624 122.851V118.629H325.59V117.485H323.624V115.213H322.244V117.485H320.587V118.629H322.244V122.968C322.244 124.171 322.877 124.757 324.08 124.757H325.867Z" fill="black"/>
<path d="M330.64 121.253C330.303 122.236 330.214 122.514 330.082 122.91C329.95 122.558 329.819 122.236 329.334 121.106L327.838 117.484H326.298L329.511 124.67L329.144 125.711C328.939 126.268 328.645 126.385 328.147 126.385H326.68V127.617H328.191C329.466 127.617 330.009 127.163 330.479 125.784L333.339 117.484H331.886L330.64 121.253Z" fill="black"/>
<path d="M271.183 150.085L265.489 144.392L259.794 150.085L265.489 155.778L271.183 150.085ZM263.862 151.711C262.963 150.814 262.963 149.356 263.862 148.459C264.761 147.56 266.217 147.56 267.115 148.459C268.014 149.356 268.014 150.814 267.115 151.711C266.217 152.61 264.761 152.61 263.862 151.711Z" fill="#666666"/>
<path d="M264.986 178.02H265.993V157.79H264.986V178.02Z" fill="#DADADA"/>
<path d="M285.83 151.577C287.34 151.577 288.276 150.621 288.276 149.233C288.276 147.844 287.391 146.988 286.052 146.988C285.267 146.988 284.753 147.3 284.391 147.733L284.532 146.787L284.753 145.318H288.075V144.392H284.008L283.404 148.417L284.471 148.588C284.733 148.156 285.176 147.824 285.8 147.824C286.686 147.824 287.24 148.397 287.24 149.263C287.24 150.138 286.686 150.702 285.79 150.702C285.015 150.702 284.451 150.259 284.28 149.464L283.263 149.796C283.465 150.792 284.34 151.577 285.83 151.577Z" fill="#C84218"/>
<path d="M292.592 151.437V150.621H291.545C291.203 150.621 291.052 150.47 291.052 150.128V147.23H292.401V146.445H291.052V144.885H290.106V146.445H288.968V147.23H290.106V150.209C290.106 151.034 290.538 151.437 291.364 151.437H292.592Z" fill="#C84218"/>
<path d="M294.609 151.437V149.283C294.609 148.578 294.63 147.129 295.938 147.129C296.582 147.129 296.995 147.492 296.995 148.387V151.437H297.941V148.166C297.941 147.059 297.408 146.304 296.27 146.304C295.133 146.304 294.7 147.039 294.609 147.28V146.244V144.392H293.663V151.437H294.609Z" fill="#C84218"/>
<path d="M307.802 151.437L305.205 144.392H303.815L301.168 151.437H302.255L302.919 149.575H306.02L306.674 151.437H307.802ZM303.936 146.737C304.208 145.992 304.369 145.519 304.48 145.227C304.591 145.519 304.742 145.942 305.013 146.737L305.688 148.649H303.252L303.936 146.737Z" fill="#C84218"/>
<path d="M309.749 153.399V151.638V150.682C309.99 151.094 310.463 151.577 311.339 151.577C312.517 151.577 313.383 150.571 313.383 148.941C313.383 147.3 312.517 146.304 311.339 146.304C310.463 146.304 309.96 146.787 309.718 147.2V146.445H308.802V153.399H309.749ZM311.067 150.772C310.272 150.772 309.698 150.158 309.698 148.931C309.698 147.703 310.272 147.109 311.067 147.109C311.843 147.109 312.406 147.572 312.406 148.931C312.406 150.279 311.843 150.772 311.067 150.772Z" fill="#C84218"/>
<path d="M315.618 151.437V149.192C315.618 148.015 316.081 147.351 317.188 147.351C317.389 147.351 317.56 147.371 317.721 147.391V146.425C317.611 146.395 317.47 146.375 317.258 146.375C316.262 146.375 315.769 147.119 315.597 147.502V146.445H314.671V151.437H315.618Z" fill="#C84218"/>
<path d="M319.678 144.392H318.672V145.519H319.678V144.392ZM319.658 146.445H318.702V151.437H319.658V146.445Z" fill="#C84218"/>
<path d="M322.243 144.392H321.297V151.437H322.243V144.392Z" fill="#C84218"/>
<path d="M283.263 159.014C283.263 158.395 283.767 157.891 284.387 157.891H387.84C388.461 157.891 388.963 158.395 388.963 159.014V164.819C388.963 165.439 388.461 165.942 387.84 165.942H284.387C283.767 165.942 283.263 165.439 283.263 164.819V159.014Z" fill="#F9E9E1"/>
<path d="M395.087 161.917C395.087 162.367 394.722 162.733 394.272 162.733C393.822 162.733 393.456 162.367 393.456 161.917C393.456 161.467 393.822 161.103 394.272 161.103C394.722 161.103 395.087 161.467 395.087 161.917Z" fill="#E0E0E0"/>
<path d="M399.581 159.014C399.581 158.395 400.084 157.891 400.704 157.891H448.791C449.412 157.891 449.914 158.395 449.914 159.014V164.819C449.914 165.439 449.412 165.942 448.791 165.942H400.704C400.084 165.942 399.581 165.439 399.581 164.819V159.014Z" fill="#F9E9E1"/>
<path d="M271.183 187.738L265.489 182.045L259.794 187.738L265.489 193.431L271.183 187.738ZM263.862 189.364C262.963 188.466 262.963 187.009 263.862 186.111C264.761 185.213 266.217 185.213 267.115 186.111C268.014 187.009 268.014 188.466 267.115 189.364C266.217 190.263 264.761 190.263 263.862 189.364Z" fill="#666666"/>
<path d="M264.986 215.813H265.993V195.444H264.986V215.813Z" fill="#DADADA"/>
<path d="M285.78 189.371C287.27 189.371 288.156 188.496 288.156 187.429C288.156 186.473 287.572 185.798 286.736 185.607C287.481 185.366 288.025 184.772 288.025 183.906C288.025 182.85 287.199 182.045 285.78 182.045C284.371 182.045 283.525 182.92 283.434 184.007L284.471 184.178C284.542 183.444 285.015 182.92 285.78 182.92C286.454 182.92 287.008 183.363 287.008 184.068C287.008 184.792 286.444 185.225 285.76 185.225H285.256V186.08H285.76C286.545 186.08 287.119 186.533 287.119 187.298C287.119 188.043 286.535 188.496 285.78 188.496C284.924 188.496 284.361 187.912 284.32 186.996L283.263 187.217C283.364 188.526 284.31 189.371 285.78 189.371Z" fill="#C84218"/>
<path d="M290.51 189.23V186.986C290.51 185.809 290.973 185.144 292.081 185.144C292.282 185.144 292.453 185.165 292.614 185.185V184.219C292.503 184.188 292.363 184.168 292.151 184.168C291.155 184.168 290.661 184.913 290.49 185.295V184.239H289.564V189.23H290.51Z" fill="#C84218"/>
<path d="M295.206 189.371C296.082 189.371 296.575 188.888 296.817 188.475V189.23H297.743V182.186H296.797V184.037V185.003C296.555 184.591 296.072 184.098 295.206 184.098C294.029 184.098 293.153 185.104 293.153 186.744C293.153 188.375 294.029 189.371 295.206 189.371ZM295.468 188.566C294.703 188.566 294.129 188.103 294.129 186.744C294.129 185.396 294.703 184.903 295.468 184.903C296.273 184.903 296.847 185.517 296.847 186.744C296.847 187.972 296.273 188.566 295.468 188.566Z" fill="#C84218"/>
<path d="M307.674 189.23L305.077 182.186H303.688L301.04 189.23H302.127L302.792 187.368H305.892L306.546 189.23H307.674ZM303.808 184.53C304.08 183.786 304.241 183.313 304.352 183.021C304.463 183.313 304.614 183.735 304.885 184.53L305.56 186.443H303.124L303.808 184.53Z" fill="#C84218"/>
<path d="M309.621 191.193V189.431V188.475C309.862 188.888 310.336 189.371 311.211 189.371C312.389 189.371 313.255 188.365 313.255 186.734C313.255 185.094 312.389 184.098 311.211 184.098C310.336 184.098 309.832 184.581 309.591 184.993V184.239H308.675V191.193H309.621ZM310.94 188.566C310.144 188.566 309.571 187.952 309.571 186.724C309.571 185.497 310.144 184.903 310.94 184.903C311.715 184.903 312.278 185.366 312.278 186.724C312.278 188.073 311.715 188.566 310.94 188.566Z" fill="#C84218"/>
<path d="M315.49 189.23V186.986C315.49 185.809 315.953 185.144 317.06 185.144C317.261 185.144 317.433 185.165 317.594 185.185V184.219C317.483 184.188 317.342 184.168 317.131 184.168C316.134 184.168 315.641 184.913 315.47 185.295V184.239H314.543V189.23H315.49Z" fill="#C84218"/>
<path d="M319.551 182.186H318.544V183.313H319.551V182.186ZM319.53 184.239H318.574V189.23H319.53V184.239Z" fill="#C84218"/>
<path d="M322.117 182.186H321.17V189.23H322.117V182.186Z" fill="#C84218"/>
<path d="M283.263 196.808C283.263 196.188 283.767 195.685 284.387 195.685H333.48C334.101 195.685 334.603 196.188 334.603 196.808V202.613C334.603 203.233 334.101 203.736 333.48 203.736H284.387C283.767 203.736 283.263 203.233 283.263 202.613V196.808Z" fill="#F9E9E1"/>
<path d="M340.727 199.711C340.727 200.161 340.362 200.527 339.912 200.527C339.462 200.527 339.096 200.161 339.096 199.711C339.096 199.261 339.462 198.896 339.912 198.896C340.362 198.896 340.727 199.261 340.727 199.711Z" fill="#E0E0E0"/>
<path d="M345.221 196.808C345.221 196.188 345.724 195.685 346.344 195.685H431.677C432.298 195.685 432.801 196.188 432.801 196.808V202.613C432.801 203.233 432.298 203.736 431.677 203.736H346.344C345.724 203.736 345.221 203.233 345.221 202.613V196.808Z" fill="#F9E9E1"/>
<path d="M271.183 225.531L265.489 219.838L259.794 225.531L265.489 231.225L271.183 225.531ZM263.862 227.158C262.963 226.26 262.963 224.803 263.862 223.905C264.761 223.006 266.217 223.006 267.115 223.905C268.014 224.803 268.014 226.26 267.115 227.158C266.217 228.057 264.761 228.057 263.862 227.158Z" fill="#666666"/>
<path d="M264.986 253.466H265.993V233.237H264.986V253.466Z" fill="#DADADA"/>
<path d="M286.153 226.883V219.838H285.338C284.885 220.684 284.1 221.187 283.264 221.388V222.435C284.039 222.324 284.774 221.791 285.157 221.147V222.133V226.883H286.153Z" fill="#C84218"/>
<path d="M289.727 227.024C291.016 227.024 291.761 226.42 291.761 225.474C291.761 224.367 290.653 224.045 290.079 223.924L289.485 223.814C288.791 223.683 288.64 223.492 288.64 223.169C288.64 222.817 288.942 222.505 289.606 222.505C290.391 222.505 290.693 222.998 290.814 223.341L291.65 223.019C291.448 222.385 290.855 221.75 289.616 221.75C288.579 221.75 287.734 222.364 287.734 223.26C287.734 224.216 288.449 224.538 289.304 224.709L289.908 224.82C290.593 224.951 290.804 225.202 290.804 225.555C290.804 225.997 290.432 226.249 289.737 226.249C288.922 226.249 288.559 225.816 288.428 225.303L287.533 225.595C287.744 226.541 288.68 227.024 289.727 227.024Z" fill="#C84218"/>
<path d="M295.91 226.883V226.068H294.863C294.521 226.068 294.37 225.917 294.37 225.575V222.676H295.719V221.891H294.37V220.332H293.424V221.891H292.286V222.676H293.424V225.655C293.424 226.481 293.856 226.883 294.682 226.883H295.91Z" fill="#C84218"/>
<path d="M305.26 226.883L302.663 219.838H301.274L298.626 226.883H299.713L300.378 225.021H303.478L304.132 226.883H305.26ZM301.394 222.183C301.666 221.439 301.827 220.966 301.938 220.674C302.049 220.966 302.2 221.388 302.471 222.183L303.146 224.095H300.71L301.394 222.183Z" fill="#C84218"/>
<path d="M307.207 228.845V227.084V226.128C307.448 226.541 307.922 227.024 308.797 227.024C309.975 227.024 310.841 226.018 310.841 224.387C310.841 222.747 309.975 221.75 308.797 221.75C307.922 221.75 307.418 222.234 307.177 222.646V221.891H306.261V228.845H307.207ZM308.526 226.219C307.73 226.219 307.156 225.605 307.156 224.377C307.156 223.149 307.73 222.556 308.526 222.556C309.301 222.556 309.864 223.019 309.864 224.377C309.864 225.726 309.301 226.219 308.526 226.219Z" fill="#C84218"/>
<path d="M313.076 226.883V224.639C313.076 223.461 313.539 222.797 314.646 222.797C314.847 222.797 315.019 222.817 315.18 222.837V221.871C315.069 221.841 314.928 221.821 314.717 221.821C313.72 221.821 313.227 222.566 313.056 222.948V221.891H312.129V226.883H313.076Z" fill="#C84218"/>
<path d="M317.138 219.838H316.131V220.966H317.138V219.838ZM317.117 221.891H316.161V226.883H317.117V221.891Z" fill="#C84218"/>
<path d="M319.703 219.838H318.756V226.883H319.703V219.838Z" fill="#C84218"/>
<path d="M283.263 234.461C283.263 233.841 283.767 233.338 284.387 233.338H364.687C365.308 233.338 365.81 233.841 365.81 234.461V240.266C365.81 240.886 365.308 241.389 364.687 241.389H284.387C283.767 241.389 283.263 240.886 283.263 240.266V234.461Z" fill="#F9E9E1"/>
<path d="M371.934 237.363C371.934 237.813 371.569 238.18 371.119 238.18C370.669 238.18 370.303 237.813 370.303 237.363C370.303 236.914 370.669 236.549 371.119 236.549C371.569 236.549 371.934 236.914 371.934 237.363Z" fill="#E0E0E0"/>
<path d="M376.427 234.461C376.427 233.841 376.931 233.338 377.551 233.338H504.157C504.778 233.338 505.281 233.841 505.281 234.461V240.266C505.281 240.886 504.778 241.389 504.157 241.389H377.551C376.931 241.389 376.427 240.886 376.427 240.266V234.461Z" fill="#F9E9E1"/>
<path d="M271.183 262.178L265.489 256.485L259.794 262.178L265.489 267.871L271.183 262.178ZM263.862 263.804C262.963 262.907 262.963 261.449 263.862 260.552C264.761 259.653 266.217 259.653 267.115 260.552C268.014 261.449 268.014 262.907 267.115 263.804C266.217 264.703 264.761 264.703 263.862 263.804Z" fill="#666666"/>
<path d="M285.78 264.818C287.27 264.818 288.156 263.942 288.156 262.875C288.156 261.919 287.572 261.245 286.736 261.054C287.481 260.812 288.025 260.219 288.025 259.353C288.025 258.296 287.199 257.491 285.78 257.491C284.371 257.491 283.525 258.367 283.434 259.454L284.471 259.625C284.542 258.89 285.015 258.367 285.78 258.367C286.454 258.367 287.008 258.81 287.008 259.514C287.008 260.239 286.444 260.671 285.76 260.671H285.256V261.527H285.76C286.545 261.527 287.119 261.98 287.119 262.745C287.119 263.489 286.535 263.942 285.78 263.942C284.924 263.942 284.361 263.358 284.32 262.443L283.263 262.664C283.364 263.972 284.31 264.818 285.78 264.818Z" fill="#C84218"/>
<path d="M292.141 264.818C293.812 264.818 294.95 263.54 294.95 261.134C294.95 258.719 293.681 257.491 292.141 257.491C290.591 257.491 289.312 258.719 289.312 261.134C289.312 263.54 290.46 264.818 292.141 264.818ZM292.141 263.922C291.044 263.922 290.369 262.946 290.369 261.134C290.369 259.444 291.064 258.387 292.141 258.387C293.198 258.387 293.893 259.444 293.893 261.134C293.893 262.956 293.218 263.922 292.141 263.922Z" fill="#C84218"/>
<path d="M299.317 264.677V263.862H298.27C297.927 263.862 297.776 263.711 297.776 263.369V260.47H299.125V259.685H297.776V258.125H296.83V259.685H295.693V260.47H296.83V263.449C296.83 264.274 297.263 264.677 298.088 264.677H299.317Z" fill="#C84218"/>
<path d="M301.334 264.677V262.523C301.334 261.819 301.354 260.369 302.663 260.369C303.307 260.369 303.72 260.732 303.72 261.627V264.677H304.666V261.406C304.666 260.299 304.132 259.544 302.995 259.544C301.857 259.544 301.425 260.279 301.334 260.52V259.484V257.632H300.388V264.677H301.334Z" fill="#C84218"/>
<path d="M310 264.677V261.014V258.659L312.406 264.677H313.121L315.497 258.659V261.014V264.677H316.503V257.632H314.903L313.322 261.668C312.98 262.533 312.859 262.825 312.789 262.996C312.718 262.825 312.598 262.543 312.255 261.668L310.635 257.632H308.994V264.677H310Z" fill="#C84218"/>
<path d="M319.568 264.818C320.363 264.818 320.846 264.465 321.199 263.922C321.259 264.345 321.4 264.677 322.125 264.677H322.849V263.872H322.336C322.105 263.872 322.044 263.811 322.044 263.58V261.295C322.044 260.218 321.4 259.544 320.051 259.544C318.732 259.544 318.017 260.259 317.856 260.943L318.762 261.235C318.893 260.852 319.175 260.339 320.051 260.339C320.786 260.339 321.098 260.691 321.098 261.265V261.416C319.477 261.547 317.957 262.01 317.957 263.389C317.957 264.274 318.591 264.818 319.568 264.818ZM319.819 264.043C319.225 264.043 318.934 263.761 318.934 263.308C318.934 262.513 319.93 262.221 321.098 262.1V262.614C321.098 263.61 320.454 264.043 319.819 264.043Z" fill="#C84218"/>
<path d="M324.692 264.677V262.433C324.692 261.255 325.155 260.591 326.262 260.591C326.463 260.591 326.634 260.611 326.796 260.631V259.665C326.685 259.635 326.544 259.615 326.332 259.615C325.336 259.615 324.843 260.359 324.671 260.742V259.685H323.745V264.677H324.692Z" fill="#C84218"/>
<path d="M329.75 264.818C330.878 264.818 331.633 264.163 331.965 263.238L331.069 262.926C330.898 263.479 330.525 264.002 329.74 264.002C328.945 264.002 328.311 263.419 328.311 262.181C328.311 260.963 328.955 260.359 329.73 260.359C330.425 260.359 330.787 260.802 330.958 261.295L331.844 260.993C331.592 260.208 330.878 259.544 329.74 259.544C328.341 259.544 327.324 260.621 327.324 262.181C327.324 263.791 328.29 264.818 329.75 264.818Z" fill="#C84218"/>
<path d="M334.011 264.677V262.523C334.011 261.819 334.032 260.369 335.34 260.369C335.984 260.369 336.397 260.732 336.397 261.627V264.677H337.343V261.406C337.343 260.299 336.81 259.544 335.672 259.544C334.535 259.544 334.102 260.279 334.011 260.52V259.484V257.632H333.065V264.677H334.011Z" fill="#C84218"/>
<path d="M283.263 271.44C283.263 270.82 283.767 270.317 284.387 270.317H320.393C321.013 270.317 321.517 270.82 321.517 271.44V277.245C321.517 277.864 321.013 278.368 320.393 278.368H284.387C283.767 278.368 283.263 277.864 283.263 277.245V271.44Z" fill="#F9E9E1"/>
<path d="M327.641 274.342C327.641 274.792 327.276 275.158 326.825 275.158C326.375 275.158 326.01 274.792 326.01 274.342C326.01 273.892 326.375 273.528 326.825 273.528C327.276 273.528 327.641 273.892 327.641 274.342Z" fill="#E0E0E0"/>
<path d="M332.134 271.44C332.134 270.82 332.637 270.317 333.257 270.317H390.404C391.025 270.317 391.527 270.82 391.527 271.44V277.245C391.527 277.864 391.025 278.368 390.404 278.368H333.257C332.637 278.368 332.134 277.864 332.134 277.245V271.44Z" fill="#F9E9E1"/>
</g>
<path d="M103.973 247.267L92.3868 258.851L80.8002 247.267L92.3868 235.684L103.973 247.267Z" fill="white"/>
<path d="M103.973 247.267L92.3868 258.851L80.8002 247.267L92.3868 235.684L103.973 247.267ZM95.7098 243.945C93.8758 242.112 90.8978 242.112 89.0639 243.945C87.23 245.779 87.23 248.756 89.0639 250.589C90.8978 252.423 93.8758 252.423 95.7098 250.589C97.5437 248.756 97.5437 245.779 95.7098 243.945Z" fill="#BAE3E0"/>
<path d="M368.727 456.595L357.14 468.178L345.553 456.595L357.14 445.012L368.727 456.595Z" fill="white"/>
<path d="M368.727 456.595L357.14 468.178L345.553 456.595L357.14 445.012L368.727 456.595ZM360.463 453.273C358.629 451.44 355.651 451.44 353.817 453.273C351.983 455.107 351.983 458.084 353.817 459.917C355.651 461.751 358.629 461.751 360.463 459.917C362.297 458.084 362.297 455.107 360.463 453.273Z" fill="#BAE3E0"/>
<path d="M140.582 211.125L131.057 209.404L132.779 199.88L142.304 201.602L140.582 211.125Z" fill="white"/>
<path d="M140.582 211.125L131.057 209.404L132.779 199.88L142.304 201.602L140.582 211.125ZM139.412 205.996C139.685 204.489 138.682 203.044 137.174 202.771C135.667 202.499 134.221 203.501 133.949 205.009C133.676 206.516 134.679 207.961 136.186 208.234C137.694 208.506 139.14 207.504 139.412 205.996Z" fill="#F3CEBC"/>
<path d="M54.2603 378.688L44.7349 376.967L46.4571 367.443L55.9825 369.165L54.2603 378.688Z" fill="white"/>
<path d="M54.2603 378.688L44.7349 376.967L46.4571 367.443L55.9825 369.165L54.2603 378.688ZM53.0905 373.559C53.363 372.052 52.3603 370.607 50.8526 370.334C49.3449 370.062 47.8995 371.064 47.6269 372.572C47.3543 374.079 48.3571 375.524 49.8648 375.797C51.3725 376.069 52.8179 375.067 53.0905 373.559Z" fill="#F3CEBC"/>
</svg>
