<svg width="604" height="473" viewBox="0 0 604 473" fill="none" xmlns="http://www.w3.org/2000/svg">
<path d="M23.4064 90.9297V98.7961H15.5378V90.9297H23.4064Z" fill="black" fill-opacity="0.05"/>
<path d="M56.3099 90.9297V98.7961H48.4413V90.9297H56.3099Z" fill="black" fill-opacity="0.05"/>
<path d="M89.2134 90.9297V98.7961H81.3448V90.9297H89.2134Z" fill="black" fill-opacity="0.05"/>
<path d="M122.117 90.9297V98.7961H114.248V90.9297H122.117Z" fill="black" fill-opacity="0.05"/>
<path d="M155.02 90.9297V98.7961H147.151V90.9297H155.02Z" fill="black" fill-opacity="0.05"/>
<path d="M187.924 90.9297V98.7961H180.055V90.9297H187.924Z" fill="black" fill-opacity="0.05"/>
<path d="M220.827 90.9297V98.7961H212.958V90.9297H220.827Z" fill="black" fill-opacity="0.05"/>
<path d="M253.731 90.9297V98.7961H245.862V90.9297H253.731Z" fill="black" fill-opacity="0.05"/>
<path d="M286.633 90.9297V98.7961H278.765V90.9297H286.633Z" fill="black" fill-opacity="0.05"/>
<path d="M23.4064 48.6277V56.4941H15.5378V48.6277H23.4064Z" fill="black" fill-opacity="0.05"/>
<path d="M56.3099 48.6277V56.4941H48.4413V48.6277H56.3099Z" fill="black" fill-opacity="0.05"/>
<path d="M89.2134 48.6277V56.4941H81.3448V48.6277H89.2134Z" fill="black" fill-opacity="0.05"/>
<path d="M122.117 48.6277V56.4941H114.248V48.6277H122.117Z" fill="black" fill-opacity="0.05"/>
<path d="M155.02 48.6277V56.4941H147.151V48.6277H155.02Z" fill="black" fill-opacity="0.05"/>
<path d="M187.924 10.0974V17.9639H180.055V10.0974H187.924Z" fill="black" fill-opacity="0.05"/>
<path d="M187.652 48.7032V56.5697H179.783V48.7032H187.652Z" fill="black" fill-opacity="0.05"/>
<path d="M220.827 48.6277V56.4941H212.958V48.6277H220.827Z" fill="black" fill-opacity="0.05"/>
<path d="M253.731 48.6277V56.4941H245.862V48.6277H253.731Z" fill="black" fill-opacity="0.05"/>
<path d="M286.633 48.6277V56.4941H278.765V48.6277H286.633Z" fill="black" fill-opacity="0.05"/>
<path d="M23.4064 130.187V138.054H15.5378V130.187H23.4064Z" fill="black" fill-opacity="0.05"/>
<path d="M56.3099 130.187V138.054H48.4413V130.187H56.3099Z" fill="black" fill-opacity="0.05"/>
<path d="M89.2134 130.187V138.054H81.3448V130.187H89.2134Z" fill="black" fill-opacity="0.05"/>
<path d="M122.117 130.187V138.054H114.248V130.187H122.117Z" fill="black" fill-opacity="0.05"/>
<path d="M155.02 130.187V138.054H147.151V130.187H155.02Z" fill="black" fill-opacity="0.05"/>
<path d="M187.924 130.187V138.054H180.055V130.187H187.924Z" fill="black" fill-opacity="0.05"/>
<path d="M220.827 130.187V138.054H212.958V130.187H220.827Z" fill="black" fill-opacity="0.05"/>
<path d="M253.731 130.187V138.054H245.862V130.187H253.731Z" fill="black" fill-opacity="0.05"/>
<path d="M286.633 130.187V138.054H278.765V130.187H286.633Z" fill="black" fill-opacity="0.05"/>
<path d="M23.4064 170.232V178.099H15.5378V170.232H23.4064Z" fill="black" fill-opacity="0.05"/>
<path d="M56.3099 170.232V178.099H48.4413V170.232H56.3099Z" fill="black" fill-opacity="0.05"/>
<path d="M89.2134 170.232V178.099H81.3448V170.232H89.2134Z" fill="black" fill-opacity="0.05"/>
<path d="M122.117 170.232V178.099H114.248V170.232H122.117Z" fill="black" fill-opacity="0.05"/>
<path d="M155.02 170.232V178.099H147.151V170.232H155.02Z" fill="black" fill-opacity="0.05"/>
<path d="M187.924 170.232V178.099H180.055V170.232H187.924Z" fill="black" fill-opacity="0.05"/>
<path d="M220.827 170.232V178.099H212.958V170.232H220.827Z" fill="black" fill-opacity="0.05"/>
<path d="M253.731 170.232V178.099H245.862V170.232H253.731Z" fill="black" fill-opacity="0.05"/>
<path d="M286.633 170.232V178.099H278.765V170.232H286.633Z" fill="black" fill-opacity="0.05"/>
<path d="M23.4064 210.277V218.144H15.5378V210.277H23.4064Z" fill="black" fill-opacity="0.05"/>
<path d="M56.3099 210.277V218.144H48.4413V210.277H56.3099Z" fill="black" fill-opacity="0.05"/>
<path d="M89.2134 210.277V218.144H81.3448V210.277H89.2134Z" fill="black" fill-opacity="0.05"/>
<path d="M122.117 210.277V218.144H114.248V210.277H122.117Z" fill="black" fill-opacity="0.05"/>
<path d="M155.02 210.277V218.144H147.151V210.277H155.02Z" fill="black" fill-opacity="0.05"/>
<path d="M187.924 210.277V218.144H180.055V210.277H187.924Z" fill="black" fill-opacity="0.05"/>
<path d="M220.827 210.277V218.144H212.958V210.277H220.827Z" fill="black" fill-opacity="0.05"/>
<path d="M253.731 210.277V218.144H245.862V210.277H253.731Z" fill="black" fill-opacity="0.05"/>
<path d="M286.633 210.277V218.144H278.765V210.277H286.633Z" fill="black" fill-opacity="0.05"/>
<path d="M23.4064 253.897V261.764H15.5378V253.897H23.4064Z" fill="black" fill-opacity="0.05"/>
<path d="M56.3099 253.897V261.764H48.4413V253.897H56.3099Z" fill="black" fill-opacity="0.05"/>
<path d="M89.2134 253.897V261.764H81.3448V253.897H89.2134Z" fill="black" fill-opacity="0.05"/>
<path d="M122.117 253.897V261.764H114.248V253.897H122.117Z" fill="black" fill-opacity="0.05"/>
<path d="M155.02 253.897V261.764H147.151V253.897H155.02Z" fill="black" fill-opacity="0.05"/>
<path d="M187.924 253.897V261.764H180.055V253.897H187.924Z" fill="black" fill-opacity="0.05"/>
<path d="M220.827 253.897V261.764H212.958V253.897H220.827Z" fill="black" fill-opacity="0.05"/>
<path d="M253.731 253.897V261.764H245.862V253.897H253.731Z" fill="black" fill-opacity="0.05"/>
<path d="M286.633 253.897V261.764H278.765V253.897H286.633Z" fill="black" fill-opacity="0.05"/>
<path d="M23.4064 301.08V308.947H15.5378V301.08H23.4064Z" fill="black" fill-opacity="0.05"/>
<path d="M56.3099 301.08V308.947H48.4413V301.08H56.3099Z" fill="black" fill-opacity="0.05"/>
<path d="M89.2134 301.08V308.947H81.3448V301.08H89.2134Z" fill="black" fill-opacity="0.05"/>
<path d="M122.117 301.08V308.947H114.248V301.08H122.117Z" fill="black" fill-opacity="0.05"/>
<path d="M155.02 301.08V308.947H147.151V301.08H155.02Z" fill="black" fill-opacity="0.05"/>
<path d="M187.924 301.08V308.947H180.055V301.08H187.924Z" fill="black" fill-opacity="0.05"/>
<path d="M220.827 301.08V308.947H212.958V301.08H220.827Z" fill="black" fill-opacity="0.05"/>
<path d="M253.731 301.08V308.947H245.862V301.08H253.731Z" fill="black" fill-opacity="0.05"/>
<path d="M286.633 301.08V308.947H278.765V301.08H286.633Z" fill="black" fill-opacity="0.05"/>
<path d="M324.762 90.9297V98.7961H316.894V90.9297H324.762Z" fill="black" fill-opacity="0.05"/>
<path d="M324.762 48.6277V56.4941H316.894V48.6277H324.762Z" fill="black" fill-opacity="0.05"/>
<path d="M23.4064 10.0974V17.9639H15.5378V10.0974H23.4064Z" fill="black" fill-opacity="0.05"/>
<path d="M56.3099 10.0974V17.9639H48.4413V10.0974H56.3099Z" fill="black" fill-opacity="0.05"/>
<path d="M89.2131 10.0974V17.9639H81.3444V10.0974H89.2131Z" fill="black" fill-opacity="0.05"/>
<path d="M122.117 10.0974V17.9639H114.248V10.0974H122.117Z" fill="black" fill-opacity="0.05"/>
<path d="M155.02 10.0974V17.9639H147.152V10.0974H155.02Z" fill="black" fill-opacity="0.05"/>
<path d="M220.827 10.0974V17.9639H212.958V10.0974H220.827Z" fill="black" fill-opacity="0.05"/>
<path d="M253.731 10.0974V17.9639H245.862V10.0974H253.731Z" fill="black" fill-opacity="0.05"/>
<path d="M286.633 10.0974V17.9639H278.765V10.0974H286.633Z" fill="black" fill-opacity="0.05"/>
<path d="M324.763 10.0974V17.9639H316.894V10.0974H324.763Z" fill="black" fill-opacity="0.05"/>
<path d="M324.762 130.187V138.054H316.894V130.187H324.762Z" fill="black" fill-opacity="0.05"/>
<path d="M361.347 130.187V138.054H353.478V130.187H361.347Z" fill="black" fill-opacity="0.05"/>
<path d="M324.762 170.232V178.099H316.894V170.232H324.762Z" fill="black" fill-opacity="0.05"/>
<path d="M324.762 210.277V218.144H316.894V210.277H324.762Z" fill="black" fill-opacity="0.05"/>
<path d="M324.762 253.897V261.764H316.894V253.897H324.762Z" fill="black" fill-opacity="0.05"/>
<path d="M324.762 301.08V308.947H316.894V301.08H324.762Z" fill="black" fill-opacity="0.05"/>
<path d="M361.347 90.9297V98.7961H353.478V90.9297H361.347Z" fill="black" fill-opacity="0.05"/>
<path d="M361.347 48.6277V56.4941H353.478V48.6277H361.347Z" fill="black" fill-opacity="0.05"/>
<path d="M361.347 10.0974V17.9639H353.478V10.0974H361.347Z" fill="black" fill-opacity="0.05"/>
<path d="M361.347 170.232V178.099H353.478V170.232H361.347Z" fill="black" fill-opacity="0.05"/>
<path d="M361.347 210.277V218.144H353.478V210.277H361.347Z" fill="black" fill-opacity="0.05"/>
<path d="M361.347 253.897V261.764H353.478V253.897H361.347Z" fill="black" fill-opacity="0.05"/>
<path d="M361.347 301.081V308.947H353.478V301.081H361.347Z" fill="black" fill-opacity="0.05"/>
<path d="M396.915 90.9297V98.7961H389.046V90.9297H396.915Z" fill="black" fill-opacity="0.05"/>
<path d="M396.915 48.6277V56.4941H389.046V48.6277H396.915Z" fill="black" fill-opacity="0.05"/>
<path d="M396.915 10.0974V17.9639H389.046V10.0974H396.915Z" fill="black" fill-opacity="0.05"/>
<path d="M396.915 130.187V138.054H389.046V130.187H396.915Z" fill="black" fill-opacity="0.05"/>
<path d="M396.915 170.232V178.099H389.046V170.232H396.915Z" fill="black" fill-opacity="0.05"/>
<path d="M396.915 210.277V218.144H389.046V210.277H396.915Z" fill="black" fill-opacity="0.05"/>
<path d="M396.915 253.897V261.764H389.046V253.897H396.915Z" fill="black" fill-opacity="0.05"/>
<path d="M396.915 301.081V308.947H389.046V301.081H396.915Z" fill="black" fill-opacity="0.05"/>
<path d="M518.136 91.6018V385.536H115.264V91.6018H518.136Z" fill="white"/>
<path d="M518.136 91.6018V385.536H115.264V91.6018H518.136Z" stroke="#E0E0E0" stroke-width="0.955532"/>
<path d="M178.73 207.721C177.642 207.721 176.791 208.446 176.628 209.768H180.741C180.669 208.446 179.871 207.721 178.73 207.721Z" fill="white"/>
<path d="M142.925 202.686H140.569V215.366H142.925V202.686Z" fill="#1C1C1C"/>
<path d="M189.306 209.895L188.128 209.678C187.041 209.479 186.769 209.207 186.769 208.682C186.769 208.138 187.222 207.667 188.237 207.667C189.36 207.667 189.958 208.355 190.212 209.044L192.078 208.247C191.698 207.232 190.574 206.073 188.327 206.073C186.135 206.073 184.631 207.196 184.631 208.881C184.631 210.62 185.827 211.236 187.566 211.58L188.78 211.815C189.831 212.015 190.103 212.431 190.103 212.939C190.103 213.554 189.541 213.989 188.49 213.989C186.859 213.989 186.425 212.884 186.298 212.377L184.268 213.029C184.649 214.678 186.37 215.62 188.4 215.62C190.918 215.62 192.386 214.478 192.386 212.721C192.386 210.873 190.719 210.185 189.306 209.895Z" fill="#1C1C1C"/>
<path d="M149.224 213.989C147.593 213.989 147.159 212.884 147.032 212.377L145.002 213.029C145.383 214.678 147.104 215.62 149.134 215.62C151.652 215.62 153.12 214.478 153.12 212.721C153.12 210.873 151.453 210.185 150.04 209.895L148.862 209.678C147.775 209.479 147.503 209.207 147.503 208.682C147.503 208.138 147.956 207.667 148.971 207.667C150.094 207.667 150.692 208.355 150.946 209.044L152.812 208.247C152.432 207.232 151.308 206.073 149.061 206.073C146.869 206.073 145.365 207.196 145.365 208.881C145.365 210.62 146.561 211.236 148.3 211.58L149.514 211.815C150.565 212.015 150.837 212.431 150.837 212.939C150.837 213.554 150.275 213.989 149.224 213.989Z" fill="#1C1C1C"/>
<path d="M172.298 215.366V206.345H170.087V210.584C170.087 212.015 169.761 213.772 168.04 213.772C167.08 213.772 166.482 213.228 166.482 211.834V206.345H164.271V212.359C164.271 214.333 165.268 215.638 167.134 215.638C168.91 215.638 169.743 214.478 170.106 213.881V215.366H172.298Z" fill="#1C1C1C"/>
<path d="M158.514 213.989C156.883 213.989 156.448 212.884 156.321 212.377L154.292 213.029C154.672 214.678 156.394 215.62 158.423 215.62C160.942 215.62 162.41 214.478 162.41 212.721C162.41 210.873 160.743 210.185 159.329 209.895L158.151 209.678C157.064 209.479 156.792 209.207 156.792 208.682C156.792 208.138 157.245 207.667 158.26 207.667C159.384 207.667 159.982 208.355 160.235 209.044L162.102 208.247C161.721 207.232 160.598 206.073 158.351 206.073C156.158 206.073 154.654 207.196 154.654 208.881C154.654 210.62 155.85 211.236 157.59 211.58L158.804 211.815C159.855 212.015 160.126 212.431 160.126 212.939C160.126 213.554 159.565 213.989 158.514 213.989Z" fill="#1C1C1C"/>
<path d="M178.802 213.899C177.642 213.899 176.646 213.228 176.573 211.399H182.933C183.223 208.41 181.629 206.073 178.73 206.073C176.229 206.073 174.363 207.975 174.363 210.855C174.363 213.844 176.102 215.638 178.766 215.638C181.158 215.638 182.408 214.424 182.988 213.011L180.995 212.268C180.668 213.029 180.071 213.899 178.802 213.899ZM178.73 207.721C179.871 207.721 180.668 208.446 180.741 209.768H176.628C176.791 208.446 177.642 207.721 178.73 207.721Z" fill="#1C1C1C"/>
<path d="M178.18 238.513H141.94C140.828 238.513 139.927 239.414 139.927 240.526V276.756C139.927 277.868 140.828 278.768 141.94 278.768H178.18C179.292 278.768 180.193 277.868 180.193 276.756V240.526C180.193 239.414 179.292 238.513 178.18 238.513Z" fill="#E2F7F6"/>
<path d="M160.06 244.551C152.276 244.551 145.967 250.859 145.967 258.641C145.967 266.422 152.276 272.73 160.06 272.73C167.844 272.73 174.153 266.422 174.153 258.641C174.153 250.859 167.844 244.551 160.06 244.551ZM169.12 267.698H151V249.583H169.12V267.698Z" fill="#85DAD4"/>
<path d="M164.331 258.641L160.059 254.371L155.789 258.641L160.059 262.911L164.331 258.641Z" fill="#85DAD4"/>
<path d="M206.688 247.042C205.721 247.042 204.861 247.797 204.74 249.095H208.545C208.53 247.751 207.684 247.042 206.688 247.042Z" fill="white"/>
<path d="M196.912 264.884H194.689V267.65H196.912C197.854 267.65 198.555 267.215 198.555 266.261C198.555 265.307 197.854 264.884 196.912 264.884Z" fill="white"/>
<path d="M264.553 247.117C263.405 247.117 262.544 247.857 262.544 249.88C262.544 251.918 263.405 252.612 264.553 252.612C265.761 252.612 266.637 251.722 266.637 249.88C266.637 248.038 265.761 247.117 264.553 247.117Z" fill="white"/>
<path d="M275.843 271.417C276.821 271.417 277.498 270.717 277.498 269.256C277.498 267.782 276.821 267.046 275.843 267.046C274.852 267.046 274.176 267.782 274.176 269.256C274.176 270.717 274.852 271.417 275.843 271.417Z" fill="white"/>
<path d="M281.996 247.042C281.029 247.042 280.168 247.797 280.048 249.095H283.853C283.838 247.751 282.992 247.042 281.996 247.042Z" fill="white"/>
<path d="M237.833 247.117C236.685 247.117 235.825 247.857 235.825 249.88C235.825 251.918 236.685 252.612 237.833 252.612C239.041 252.612 239.902 251.722 239.902 249.88C239.902 248.038 239.041 247.117 237.833 247.117Z" fill="white"/>
<path d="M200.125 246.151C200.125 244.959 199.25 244.431 198.072 244.431H195.293V247.887H198.072C199.25 247.887 200.125 247.344 200.125 246.151Z" fill="white"/>
<path d="M206.895 266.261C206.895 265.307 206.195 264.884 205.252 264.884H203.03V267.65H205.252C206.195 267.65 206.895 267.215 206.895 266.261Z" fill="white"/>
<path d="M256.352 247.042C255.385 247.042 254.525 247.797 254.404 249.095H258.209C258.194 247.751 257.348 247.042 256.352 247.042Z" fill="white"/>
<path d="M270.336 246.121V251.027C270.336 252.688 271.091 253.82 272.798 253.82C274.338 253.82 275.048 252.763 275.289 252.325V253.609H276.678V246.121H275.259V249.382C275.259 250.544 275.168 252.582 273.296 252.582C272.36 252.582 271.756 252.039 271.756 250.695V246.121H270.336Z" fill="black"/>
<path d="M292.914 251.495C292.914 249.835 291.253 249.351 290.392 249.17L289.501 249.004C288.459 248.808 288.233 248.521 288.233 248.038C288.233 247.51 288.686 247.042 289.682 247.042C290.86 247.042 291.313 247.782 291.494 248.295L292.748 247.812C292.446 246.861 291.555 245.91 289.698 245.91C288.142 245.91 286.874 246.831 286.874 248.174C286.874 249.608 287.946 250.091 289.229 250.348L290.135 250.514C291.162 250.71 291.479 251.087 291.479 251.616C291.479 252.28 290.921 252.657 289.879 252.657C288.656 252.657 288.112 252.008 287.916 251.238L286.572 251.676C286.889 253.095 288.293 253.82 289.864 253.82C291.796 253.82 292.914 252.914 292.914 251.495Z" fill="black"/>
<path d="M232.548 253.608V248.702C232.548 247.042 231.792 245.91 229.95 245.91C228.379 245.91 227.655 247.012 227.504 247.374V246.121H226.13V253.608H227.549V250.378C227.549 249.321 227.579 247.148 229.542 247.148C230.509 247.148 231.128 247.691 231.128 249.034V253.608H232.548Z" fill="black"/>
<path d="M299.139 252.386H297.569C297.055 252.386 296.829 252.16 296.829 251.647V247.299H298.852V246.121H296.829V243.781H295.409V246.121H293.703V247.299H295.409V251.768C295.409 253.006 296.059 253.61 297.297 253.61H299.139V252.386Z" fill="black"/>
<path d="M239.856 252.476V253.609H241.246V243.042H239.826V245.819V247.268C239.464 246.649 238.739 245.91 237.44 245.91C235.674 245.91 234.36 247.419 234.36 249.88C234.36 252.325 235.674 253.82 237.44 253.82C238.754 253.82 239.494 253.095 239.856 252.476ZM237.833 252.612C236.685 252.612 235.825 251.918 235.825 249.88C235.825 247.857 236.685 247.117 237.833 247.117C239.041 247.117 239.902 248.038 239.902 249.88C239.902 251.722 239.041 252.612 237.833 252.612Z" fill="black"/>
<path d="M247.571 246.121V253.61H248.99V250.243C248.99 248.477 249.686 247.48 251.347 247.48C251.649 247.48 251.905 247.51 252.147 247.54V246.091C251.981 246.046 251.769 246.015 251.452 246.015C249.957 246.015 249.216 247.133 248.96 247.707V246.121H247.571Z" fill="black"/>
<path d="M256.351 245.91C254.403 245.91 252.953 247.449 252.953 249.895C252.953 252.416 254.327 253.82 256.411 253.82C257.966 253.82 259.16 253.095 259.704 251.661L258.405 251.193C258.194 251.722 257.664 252.627 256.456 252.627C255.43 252.627 254.433 252.023 254.373 250.227H259.644C259.915 247.782 258.586 245.91 256.351 245.91ZM254.403 249.095C254.524 247.797 255.385 247.042 256.352 247.042C257.348 247.042 258.194 247.751 258.209 249.095H254.403Z" fill="black"/>
<path d="M266.546 256.553H267.966V246.121H266.576V247.268C266.214 246.649 265.474 245.91 264.16 245.91C262.394 245.91 261.08 247.419 261.08 249.88C261.08 252.325 262.394 253.821 264.16 253.821C265.459 253.821 266.184 253.096 266.546 252.477V253.911V256.553ZM264.553 252.612C263.405 252.612 262.545 251.918 262.545 249.88C262.545 247.857 263.405 247.117 264.553 247.117C265.761 247.117 266.637 248.038 266.637 249.88C266.637 251.722 265.761 252.612 264.553 252.612Z" fill="black"/>
<path d="M206.687 245.91C204.739 245.91 203.289 247.449 203.289 249.895C203.289 252.416 204.663 253.82 206.747 253.82C208.302 253.82 209.495 253.095 210.039 251.661L208.741 251.193C208.53 251.722 208 252.627 206.792 252.627C205.766 252.627 204.769 252.023 204.709 250.227H209.98C210.251 247.782 208.922 245.91 206.687 245.91ZM204.739 249.095C204.86 247.797 205.72 247.042 206.687 247.042C207.683 247.042 208.529 247.751 208.544 249.095H204.739Z" fill="black"/>
<path d="M214.753 244.264H216.218V243.042H214.481C213.243 243.042 212.594 243.66 212.594 245.019V246.121H210.963V247.299H212.594V253.609H214.013V247.299H215.946V246.121H214.013V245.004C214.013 244.491 214.225 244.264 214.753 244.264Z" fill="black"/>
<path d="M222.262 252.325V253.609H223.651V246.121H222.232V249.382C222.232 250.544 222.141 252.582 220.269 252.582C219.333 252.582 218.729 252.039 218.729 250.695V246.121H217.309V251.027C217.309 252.688 218.064 253.82 219.77 253.82C221.311 253.82 222.02 252.763 222.262 252.325Z" fill="black"/>
<path d="M201.907 253.609L201.379 250.952C201.122 249.669 200.609 248.959 199.189 248.733C200.563 248.461 201.711 247.54 201.711 245.91C201.711 244.294 200.488 243.042 198.298 243.042H193.783V253.609H195.293V249.246H197.483C198.902 249.246 199.597 249.744 199.838 251.088L200.261 253.609H201.907ZM195.293 247.887V244.43H198.072C199.25 244.43 200.125 244.959 200.125 246.151C200.125 247.344 199.25 247.887 198.072 247.887H195.293Z" fill="black"/>
<path d="M282.056 253.82C283.611 253.82 284.804 253.095 285.348 251.661L284.05 251.193C283.839 251.722 283.309 252.627 282.101 252.627C281.074 252.627 280.078 252.023 280.017 250.227H285.288C285.56 247.782 284.23 245.91 281.996 245.91C280.048 245.91 278.598 247.449 278.598 249.895C278.598 252.416 279.972 253.82 282.056 253.82ZM281.996 247.042C282.992 247.042 283.838 247.751 283.853 249.095H280.048C280.168 247.797 281.029 247.042 281.996 247.042Z" fill="black"/>
<path d="M203.03 268.736H204.781C205.917 268.736 206.472 269.135 206.666 270.21L207.004 272.227H208.321L207.898 270.101C207.692 269.075 207.282 268.507 206.146 268.326C207.246 268.108 208.164 267.372 208.164 266.068C208.164 264.775 207.185 263.773 205.434 263.773H201.822V272.227H203.03V268.736ZM203.03 264.884H205.252C206.195 264.884 206.895 265.307 206.895 266.261C206.895 267.215 206.195 267.65 205.252 267.65H203.03V264.884Z" fill="#666666"/>
<path d="M221.841 270.898V272.227H227.507V271.116H225.139H223.17C224.668 270.21 225.791 269.413 226.516 268.58C227.096 267.903 227.41 267.13 227.41 266.225C227.41 264.715 226.371 263.604 224.62 263.604C222.856 263.604 221.781 264.775 221.769 266.382L222.989 266.551C222.989 265.355 223.689 264.691 224.607 264.691C225.441 264.691 226.142 265.258 226.142 266.357C226.142 268.048 224.197 269.449 221.841 270.898Z" fill="#666666"/>
<path d="M199.823 266.068C199.823 264.775 198.845 263.773 197.093 263.773H193.481V272.227H194.689V268.736H196.441C197.576 268.736 198.132 269.135 198.325 270.21L198.664 272.227H199.98L199.558 270.101C199.352 269.075 198.942 268.507 197.806 268.326C198.905 268.108 199.823 267.372 199.823 266.068ZM196.912 267.65H194.689V264.884H196.912C197.854 264.884 198.555 265.307 198.555 266.261C198.555 267.215 197.854 267.65 196.912 267.65Z" fill="#666666"/>
<path d="M212.517 272.396C214.305 272.396 215.368 271.345 215.368 270.065C215.368 268.918 214.668 268.109 213.665 267.879C214.559 267.589 215.211 266.877 215.211 265.838C215.211 264.57 214.221 263.604 212.517 263.604C210.826 263.604 209.811 264.655 209.703 265.959L210.947 266.164C211.032 265.283 211.599 264.655 212.517 264.655C213.327 264.655 213.991 265.186 213.991 266.031C213.991 266.901 213.315 267.42 212.493 267.42H211.889V268.447H212.493C213.435 268.447 214.124 268.99 214.124 269.908C214.124 270.802 213.423 271.345 212.517 271.345C211.491 271.345 210.814 270.645 210.766 269.546L209.497 269.811C209.618 271.381 210.754 272.396 212.517 272.396Z" fill="#666666"/>
<path d="M218.689 272.227H219.885V263.773H218.907C218.363 264.787 217.421 265.391 216.418 265.633V266.889C217.348 266.756 218.23 266.116 218.689 265.343V266.526V272.227Z" fill="#666666"/>
<path d="M233.547 266.691C232.991 266.691 232.54 267.142 232.54 267.698C232.54 268.253 232.991 268.704 233.547 268.704C234.102 268.704 234.553 268.253 234.553 267.698C234.553 267.142 234.102 266.691 233.547 266.691Z" fill="#C4C4C4"/>
<path d="M257.089 270.536C257.089 269.208 255.76 268.821 255.071 268.676L254.358 268.543C253.525 268.386 253.344 268.157 253.344 267.77C253.344 267.348 253.706 266.973 254.503 266.973C255.446 266.973 255.808 267.565 255.953 267.976L256.956 267.589C256.714 266.828 256.001 266.068 254.516 266.068C253.271 266.068 252.257 266.804 252.257 267.879C252.257 269.026 253.114 269.413 254.141 269.618L254.866 269.751C255.687 269.908 255.941 270.21 255.941 270.633C255.941 271.164 255.494 271.466 254.66 271.466C253.682 271.466 253.247 270.947 253.09 270.331L252.015 270.681C252.269 271.816 253.392 272.396 254.648 272.396C256.195 272.396 257.089 271.671 257.089 270.536Z" fill="#7A7A7A"/>
<path d="M275.843 272.396C277.449 272.396 278.682 271.067 278.682 269.244C278.682 267.42 277.498 266.068 275.843 266.068C274.188 266.068 272.992 267.42 272.992 269.244C272.992 271.043 274.224 272.396 275.843 272.396ZM275.843 267.046C276.821 267.046 277.498 267.783 277.498 269.256C277.498 270.717 276.821 271.418 275.843 271.418C274.852 271.418 274.176 270.717 274.176 269.256C274.176 267.783 274.852 267.046 275.843 267.046Z" fill="#7A7A7A"/>
<path d="M241.213 271.321C240.356 271.321 240.03 270.657 240.042 269.376L238.797 269.678C238.822 271.381 239.691 272.396 241.226 272.396C242.832 272.396 243.605 271.466 243.605 269.497V263.773H242.397V269.461C242.397 270.705 242.047 271.321 241.213 271.321Z" fill="#7A7A7A"/>
<path d="M282.712 272.227L283.618 269.328C283.969 268.217 284.077 267.843 284.198 267.48L284.766 269.34L285.648 272.227H286.989L289.006 266.237H287.81L286.952 268.99C286.578 270.234 286.421 270.729 286.324 271.007L285.829 269.352L284.887 266.237H283.558L282.688 269.087C282.326 270.27 282.193 270.705 282.108 271.019L281.504 269.026L280.659 266.237H279.475L281.432 272.227H282.712Z" fill="#7A7A7A"/>
<path d="M270.431 272.227H271.566V268.302C271.566 266.973 270.962 266.068 269.489 266.068C268.232 266.068 267.653 266.949 267.532 267.239V266.237H266.432V272.227H267.568V269.642C267.568 268.797 267.592 267.058 269.163 267.058C269.936 267.058 270.431 267.493 270.431 268.567V272.227Z" fill="#7A7A7A"/>
<path d="M262.069 271.248H260.812C260.402 271.248 260.22 271.067 260.22 270.657V267.179H261.839V266.237H260.22V264.365H259.085V266.237H257.72V267.179H259.085V270.753C259.085 271.744 259.604 272.227 260.595 272.227H262.069V271.248Z" fill="#7A7A7A"/>
<path d="M250.6 272.227V266.237H249.464V268.845C249.464 269.775 249.392 271.405 247.894 271.405C247.145 271.405 246.662 270.971 246.662 269.896V266.237H245.526V270.161C245.526 271.49 246.13 272.396 247.495 272.396C248.727 272.396 249.295 271.55 249.488 271.2V272.227H250.6Z" fill="#7A7A7A"/>
<path d="M294.953 266.691C294.398 266.691 293.947 267.142 293.947 267.698C293.947 268.253 294.398 268.704 294.953 268.704C295.509 268.704 295.96 268.253 295.96 267.698C295.96 267.142 295.509 266.691 294.953 266.691Z" fill="#C4C4C4"/>
<path d="M343.273 259.647H299.987V275.749H343.273V259.647ZM310.883 271.893C308.443 271.893 306.631 270.129 306.631 267.497C306.631 264.876 308.455 263.101 310.883 263.101C313.311 263.101 315.099 264.876 315.099 267.497C315.099 270.129 313.311 271.893 310.883 271.893ZM319.747 271.893C318.696 271.893 318.128 271.313 317.838 270.818V271.965V274.078H316.702V265.734H317.802V266.639C318.092 266.144 318.696 265.564 319.747 265.564C321.16 265.564 322.199 266.76 322.199 268.729C322.199 270.685 321.16 271.893 319.747 271.893ZM326.064 271.893C324.397 271.893 323.298 270.77 323.298 268.753C323.298 266.796 324.458 265.564 326.016 265.564C327.804 265.564 328.867 267.062 328.649 269.018H324.434C324.482 270.456 325.279 270.939 326.101 270.939C327.067 270.939 327.49 270.214 327.659 269.791L328.698 270.166C328.263 271.313 327.309 271.893 326.064 271.893ZM335.379 271.724H334.244V268.064C334.244 266.99 333.748 266.555 332.975 266.555C331.405 266.555 331.381 268.294 331.381 269.139V271.724H330.245V265.734H331.344V266.736C331.465 266.446 332.045 265.564 333.301 265.564C334.775 265.564 335.379 266.47 335.379 267.799V271.724Z" fill="#E5EDFF"/>
<path d="M326.016 266.47C325.243 266.47 324.554 267.074 324.458 268.113H327.502C327.49 267.038 326.813 266.47 326.016 266.47Z" fill="#E5EDFF"/>
<path d="M319.42 266.531C318.466 266.531 317.777 267.243 317.777 268.717C317.777 270.19 318.466 270.927 319.42 270.927C320.351 270.927 321.027 270.335 321.027 268.717C321.027 267.086 320.351 266.531 319.42 266.531Z" fill="#E5EDFF"/>
<path d="M310.871 264.2C309.023 264.2 307.923 265.613 307.923 267.497C307.923 269.381 309.023 270.794 310.871 270.794C312.719 270.794 313.818 269.381 313.818 267.497C313.818 265.613 312.719 264.2 310.871 264.2Z" fill="#E5EDFF"/>
<path d="M326.101 270.939C325.279 270.939 324.482 270.455 324.434 269.018H328.649C328.867 267.062 327.804 265.564 326.016 265.564C324.458 265.564 323.298 266.796 323.298 268.753C323.298 270.769 324.397 271.893 326.064 271.893C327.309 271.893 328.263 271.313 328.698 270.166L327.659 269.791C327.49 270.214 327.067 270.939 326.101 270.939ZM326.016 266.47C326.813 266.47 327.49 267.038 327.502 268.113H324.458C324.554 267.074 325.243 266.47 326.016 266.47Z" fill="#0B3DB2"/>
<path d="M319.747 265.564C318.696 265.564 318.092 266.144 317.802 266.639V265.734H316.702V274.078H317.838V271.965V270.818C318.128 271.313 318.696 271.893 319.747 271.893C321.16 271.893 322.199 270.685 322.199 268.729C322.199 266.76 321.16 265.564 319.747 265.564ZM319.42 270.926C318.466 270.926 317.778 270.19 317.778 268.716C317.778 267.243 318.466 266.531 319.42 266.531C320.351 266.531 321.027 267.086 321.027 268.716C321.027 270.335 320.351 270.926 319.42 270.926Z" fill="#0B3DB2"/>
<path d="M333.301 265.564C332.045 265.564 331.465 266.446 331.344 266.736V265.734H330.245V271.723H331.381V269.139C331.381 268.294 331.405 266.555 332.975 266.555C333.748 266.555 334.244 266.989 334.244 268.064V271.723H335.379V267.799C335.379 266.47 334.775 265.564 333.301 265.564Z" fill="#0B3DB2"/>
<path d="M310.883 263.101C308.455 263.101 306.631 264.876 306.631 267.497C306.631 270.129 308.443 271.893 310.883 271.893C313.311 271.893 315.099 270.129 315.099 267.497C315.099 264.876 313.311 263.101 310.883 263.101ZM310.871 270.794C309.023 270.794 307.923 269.381 307.923 267.497C307.923 265.613 309.023 264.2 310.871 264.2C312.719 264.2 313.818 265.613 313.818 267.497C313.818 269.381 312.719 270.794 310.871 270.794Z" fill="#0B3DB2"/>
<path d="M480.247 255.714C479.402 255.714 478.74 256.278 478.613 257.306H481.812C481.755 256.278 481.135 255.714 480.247 255.714Z" fill="white"/>
<path d="M460.941 255.827C459.898 255.827 459.179 256.616 459.179 258.18C459.179 259.729 459.898 260.476 460.941 260.476C461.969 260.476 462.688 259.729 462.688 258.18C462.688 256.616 461.969 255.827 460.941 255.827Z" fill="white"/>
<path d="M439.118 254.798C439.118 253.812 438.385 253.375 437.413 253.375H434.975V256.235H437.413C438.385 256.235 439.118 255.784 439.118 254.798Z" fill="white"/>
<path d="M445.743 255.714C444.897 255.714 444.235 256.278 444.108 257.306H447.307C447.251 256.278 446.631 255.714 445.743 255.714Z" fill="white"/>
<path d="M418.834 252.877L421.907 255.956H411.055V257.299H421.907L418.827 260.378L419.78 261.324L424.478 256.628L419.78 251.931L418.834 252.877Z" fill="black"/>
<path d="M460.941 254.432C458.883 254.432 457.389 255.954 457.389 258.151C457.389 260.293 458.897 261.871 460.941 261.871C462.984 261.871 464.478 260.378 464.478 258.151C464.478 255.954 462.998 254.432 460.941 254.432ZM460.941 260.476C459.898 260.476 459.179 259.729 459.179 258.18C459.179 256.616 459.898 255.827 460.941 255.827C461.969 255.827 462.688 256.616 462.688 258.18C462.688 259.729 461.969 260.476 460.941 260.476Z" fill="black"/>
<path d="M445.799 260.518C444.897 260.518 444.122 259.997 444.066 258.574H449.013C449.238 256.249 447.998 254.432 445.743 254.432C443.798 254.432 442.346 255.911 442.346 258.151C442.346 260.476 443.699 261.871 445.771 261.871C447.631 261.871 448.604 260.927 449.055 259.828L447.505 259.25C447.251 259.842 446.786 260.518 445.799 260.518ZM445.743 255.714C446.631 255.714 447.251 256.278 447.307 257.306H444.108C444.235 256.278 444.897 255.714 445.743 255.714Z" fill="black"/>
<path d="M438.583 257.137C439.823 256.897 441.021 256.094 441.021 254.432C441.021 252.896 439.823 251.797 437.737 251.797H433.143V261.66H434.975V257.771H436.863C438.132 257.771 438.709 258.222 438.893 259.405L439.231 261.66H441.204L440.753 259.25C440.513 257.898 439.837 257.292 438.583 257.137ZM437.413 256.235H434.975V253.375H437.413C438.385 253.375 439.118 253.812 439.118 254.798C439.118 255.784 438.385 256.235 437.413 256.235Z" fill="black"/>
<path d="M453.968 257.405L453.052 257.236C452.207 257.081 451.995 256.869 451.995 256.461C451.995 256.038 452.348 255.672 453.137 255.672C454.011 255.672 454.476 256.207 454.673 256.743L456.125 256.123C455.829 255.334 454.955 254.432 453.207 254.432C451.502 254.432 450.332 255.305 450.332 256.616C450.332 257.968 451.263 258.447 452.615 258.715L453.56 258.898C454.377 259.053 454.589 259.377 454.589 259.772C454.589 260.251 454.152 260.589 453.334 260.589C452.066 260.589 451.728 259.729 451.629 259.335L450.05 259.842C450.346 261.124 451.685 261.857 453.264 261.857C455.223 261.857 456.364 260.969 456.364 259.603C456.364 258.166 455.068 257.63 453.968 257.405Z" fill="black"/>
<path d="M466.086 261.66H467.791V251.797H466.086V261.66Z" fill="black"/>
<path d="M480.304 260.518C479.402 260.518 478.627 259.997 478.57 258.574H483.517C483.743 256.249 482.502 254.432 480.247 254.432C478.303 254.432 476.851 255.911 476.851 258.151C476.851 260.476 478.204 261.871 480.276 261.871C482.136 261.871 483.108 260.927 483.559 259.828L482.009 259.25C481.755 259.842 481.29 260.518 480.304 260.518ZM480.247 255.714C481.135 255.714 481.755 256.278 481.812 257.306H478.613C478.739 256.278 479.402 255.714 480.247 255.714Z" fill="black"/>
<path d="M473.352 257.926C472.971 259.152 472.76 259.828 472.647 260.166C472.534 259.842 472.323 259.18 471.9 257.926L470.829 254.643H469.025L471.604 261.66H473.676L476.128 254.643H474.381L473.352 257.926Z" fill="black"/>
<path d="M494.273 239.519H399.647C397.979 239.519 396.627 240.871 396.627 242.538V270.717C396.627 272.385 397.979 273.736 399.647 273.736H494.273C495.941 273.736 497.293 272.385 497.293 270.717V242.538C497.293 240.871 495.941 239.519 494.273 239.519ZM496.287 271.724C496.287 272.279 495.836 272.73 495.28 272.73H398.64C398.084 272.73 397.633 272.279 397.633 271.724V241.532C397.633 240.977 398.084 240.526 398.64 240.526H495.28C495.836 240.526 496.287 240.977 496.287 241.532V271.724Z" fill="#C4C4C4"/>
<path d="M151.066 314.059C148.698 316.427 148.698 320.265 151.066 322.633C153.435 325.001 157.275 325.001 159.643 322.633C162.012 320.265 162.012 316.427 159.643 314.059C157.275 311.691 153.435 311.691 151.066 314.059Z" fill="#F9E9E1"/>
<path d="M178.18 302.921H141.94C140.828 302.921 139.927 303.822 139.927 304.934V341.164C139.927 342.276 140.828 343.177 141.94 343.177H178.18C179.292 343.177 180.193 342.276 180.193 341.164V304.934C180.193 303.822 179.292 302.921 178.18 302.921Z" fill="#F9E9E1"/>
<path d="M148.535 323.378L160.389 335.23L172.244 323.378L160.389 311.527L148.535 323.378ZM160.389 329.441C157.039 329.441 154.324 326.726 154.324 323.377C154.324 320.029 157.039 317.314 160.388 317.314C163.738 317.314 166.454 320.029 166.454 323.378C166.454 326.727 163.739 329.441 160.389 329.441Z" fill="#FFB18F"/>
<path d="M153.737 323.378L160.389 330.029L167.042 323.378L160.389 316.727L153.737 323.378Z" fill="#FFB18F"/>
<path d="M198.328 308.613C196.018 308.613 194.644 310.379 194.644 312.734C194.644 315.089 196.018 316.855 198.328 316.855C200.639 316.855 202.013 315.089 202.013 312.734C202.013 310.379 200.639 308.613 198.328 308.613Z" fill="white"/>
<path d="M214.475 311.526C213.328 311.526 212.467 312.266 212.467 314.288C212.467 316.326 213.328 317.021 214.475 317.021C215.683 317.021 216.544 316.13 216.544 314.288C216.544 312.447 215.683 311.526 214.475 311.526Z" fill="white"/>
<path d="M280.876 331.454C279.886 331.454 279.209 332.191 279.209 333.664C279.209 335.126 279.886 335.826 280.876 335.826C281.855 335.826 282.531 335.126 282.531 333.664C282.531 332.191 281.855 331.454 280.876 331.454Z" fill="white"/>
<path d="M285.831 314.742C286.812 314.742 287.447 314.093 287.447 313.097C287.447 312.116 286.812 311.435 285.831 311.435C284.849 311.435 284.215 312.116 284.215 313.097C284.215 314.093 284.849 314.742 285.831 314.742Z" fill="white"/>
<path d="M223.203 311.45C222.237 311.45 221.376 312.205 221.255 313.503H225.06C225.045 312.16 224.2 311.45 223.203 311.45Z" fill="white"/>
<path d="M288.64 318.878C288.64 318.168 288.111 318.017 287.507 318.017H284.003C283.761 318.168 283.459 318.501 283.459 318.969C283.459 319.573 283.867 319.754 284.592 319.754H287.507C288.111 319.754 288.64 319.587 288.64 318.878Z" fill="white"/>
<path d="M197.117 329.112C195.269 329.112 194.17 330.525 194.17 332.408C194.17 334.292 195.269 335.705 197.117 335.705C198.966 335.705 200.065 334.292 200.065 332.408C200.065 330.525 198.966 329.112 197.117 329.112Z" fill="white"/>
<path d="M228.67 333.326H229.818V331.116V329.136L227.04 333.326H228.67Z" fill="white"/>
<path d="M207.037 314.652C207.037 312.886 207.733 311.888 209.394 311.888C209.696 311.888 209.952 311.919 210.194 311.949V310.5C210.028 310.454 209.817 310.424 209.499 310.424C208.005 310.424 207.264 311.542 207.007 312.116V310.531H205.618V318.018H207.037V314.652Z" fill="black"/>
<path d="M252.855 307.45H251.345V309.141H252.855V307.45Z" fill="black"/>
<path d="M279.142 313.443V318.017H280.561V313.111C280.561 311.451 279.805 310.318 277.963 310.318C276.392 310.318 275.669 311.42 275.518 311.783V310.53H274.143V318.017H275.563V314.787C275.563 313.73 275.592 311.556 277.555 311.556C278.522 311.556 279.142 312.1 279.142 313.443Z" fill="black"/>
<path d="M265.885 313.579L264.994 313.413C263.952 313.217 263.726 312.93 263.726 312.447C263.726 311.918 264.179 311.451 265.175 311.451C266.353 311.451 266.806 312.19 266.987 312.703L268.24 312.22C267.938 311.269 267.048 310.318 265.19 310.318C263.635 310.318 262.367 311.239 262.367 312.583C262.367 314.017 263.439 314.5 264.722 314.756L265.628 314.923C266.655 315.119 266.972 315.496 266.972 316.025C266.972 316.689 266.413 317.066 265.371 317.066C264.148 317.066 263.605 316.417 263.408 315.647L262.065 316.085C262.382 317.504 263.786 318.228 265.356 318.228C267.289 318.228 268.407 317.323 268.407 315.904C268.407 314.243 266.746 313.76 265.885 313.579Z" fill="black"/>
<path d="M257.865 318.228C259.798 318.228 260.915 317.323 260.915 315.904C260.915 314.243 259.254 313.76 258.393 313.579L257.502 313.413C256.46 313.217 256.234 312.93 256.234 312.447C256.234 311.918 256.687 311.451 257.684 311.451C258.861 311.451 259.314 312.19 259.496 312.703L260.749 312.22C260.447 311.269 259.556 310.318 257.699 310.318C256.143 310.318 254.875 311.239 254.875 312.583C254.875 314.017 255.947 314.5 257.231 314.756L258.137 314.923C259.163 315.119 259.48 315.496 259.48 316.025C259.48 316.689 258.922 317.066 257.88 317.066C256.657 317.066 256.113 316.417 255.917 315.647L254.573 316.085C254.89 317.504 256.294 318.228 257.865 318.228Z" fill="black"/>
<path d="M290.074 318.863C290.074 317.61 289.123 316.765 287.658 316.765H284.412C283.898 316.765 283.747 316.523 283.747 316.281C283.747 316.009 284.004 315.738 284.412 315.572C284.834 315.798 285.318 315.858 285.831 315.858C287.507 315.858 288.67 314.773 288.806 313.082L288.836 312.72C288.896 311.859 289.138 311.707 289.772 311.707H290.391V310.531H289.621C288.851 310.531 288.519 310.999 288.383 311.648C288.036 311.059 287.205 310.318 285.816 310.318C284.064 310.318 282.796 311.527 282.796 313.112C282.796 314.003 283.188 314.682 283.626 315.075C283.113 315.407 282.509 315.919 282.509 316.659C282.509 317.262 282.751 317.626 283.173 317.882C282.735 318.154 282.207 318.697 282.207 319.452C282.207 320.328 282.735 320.962 284.2 320.962H287.688C288.987 320.962 290.074 320.266 290.074 318.863ZM285.831 311.435C286.812 311.435 287.447 312.116 287.447 313.097C287.447 314.093 286.812 314.741 285.831 314.741C284.849 314.741 284.215 314.093 284.215 313.097C284.215 312.116 284.849 311.435 285.831 311.435ZM284.593 319.753C283.868 319.753 283.46 319.572 283.46 318.968C283.46 318.5 283.762 318.169 284.004 318.018H287.507C288.111 318.018 288.64 318.168 288.64 318.878C288.64 319.587 288.111 319.753 287.507 319.753H284.593Z" fill="black"/>
<path d="M229.878 312.115V310.53H228.488V318.018H229.908V314.652C229.908 312.886 230.603 311.888 232.264 311.888C232.566 311.888 232.823 311.919 233.064 311.949V310.5C232.898 310.454 232.687 310.424 232.37 310.424C230.875 310.424 230.135 311.541 229.878 312.115Z" fill="black"/>
<path d="M246.457 310.318C244.962 310.318 244.268 311.194 243.951 311.873C243.558 310.907 242.712 310.318 241.625 310.318C240.342 310.318 239.677 311.103 239.36 311.662V310.53H237.986V318.017H239.405V314.485C239.405 313.458 239.481 311.571 241.233 311.571C242.184 311.571 242.818 312.069 242.818 313.443V318.017H244.207V314.485C244.207 313.458 244.252 311.571 246.048 311.571C247 311.571 247.62 312.069 247.62 313.443V318.017H249.053V313.051C249.053 311.269 248.118 310.318 246.457 310.318Z" fill="black"/>
<path d="M252.824 310.53H251.389V318.017H252.824V310.53Z" fill="black"/>
<path d="M198.344 307.239C195.308 307.239 193.027 309.458 193.027 312.734C193.027 316.024 195.293 318.228 198.344 318.228C201.379 318.228 203.613 316.024 203.613 312.734C203.613 309.458 201.379 307.239 198.344 307.239ZM198.328 316.855C196.018 316.855 194.644 315.089 194.644 312.734C194.644 310.379 196.018 308.612 198.328 308.612C200.639 308.612 202.012 310.379 202.012 312.734C202.012 315.089 200.639 316.855 198.328 316.855Z" fill="black"/>
<path d="M225.257 315.602C225.045 316.13 224.516 317.036 223.308 317.036C222.281 317.036 221.284 316.432 221.224 314.636H226.495C226.767 312.19 225.437 310.318 223.202 310.318C221.254 310.318 219.805 311.858 219.805 314.304C219.805 316.825 221.179 318.228 223.263 318.228C224.818 318.228 226.011 317.504 226.554 316.07L225.257 315.602ZM223.203 311.451C224.2 311.451 225.044 312.16 225.059 313.504H221.254C221.375 312.205 222.237 311.451 223.203 311.451Z" fill="black"/>
<path d="M217.888 318.017V307.45H216.469V310.228V311.677C216.106 311.058 215.381 310.318 214.083 310.318C212.316 310.318 211.002 311.828 211.002 314.289C211.002 316.734 212.316 318.229 214.083 318.229C215.396 318.229 216.136 317.504 216.499 316.885V318.017H217.888ZM214.475 317.021C213.328 317.021 212.467 316.326 212.467 314.289C212.467 312.266 213.328 311.526 214.475 311.526C215.683 311.526 216.544 312.447 216.544 314.289C216.544 316.13 215.683 317.021 214.475 317.021Z" fill="black"/>
<path d="M271.714 307.45H270.204V309.141H271.714V307.45Z" fill="black"/>
<path d="M271.684 310.53H270.249V318.017H271.684V310.53Z" fill="black"/>
<path d="M230.99 328.182H229.19L225.844 333.218V334.341H229.818V336.635H230.99V334.341H232.234V333.326H230.99V328.182ZM229.818 331.116V333.326H228.67H227.04L229.818 329.136V331.116Z" fill="#666666"/>
<path d="M220.794 330.041V331.297C221.724 331.165 222.606 330.524 223.065 329.752V330.935V336.635H224.261V328.182H223.283C222.739 329.196 221.797 329.8 220.794 330.041Z" fill="#666666"/>
<path d="M208.361 333.024C207.95 334.063 207.805 334.413 207.721 334.618C207.636 334.413 207.491 334.075 207.08 333.024L205.136 328.182H203.166V336.635H204.374V332.239V329.413L207.262 336.635H208.119L210.97 329.413V332.239V336.635H212.178V328.182H210.257L208.361 333.024Z" fill="#666666"/>
<path d="M197.13 328.012C194.701 328.012 192.877 329.788 192.877 332.408C192.877 335.041 194.689 336.804 197.13 336.804C199.558 336.804 201.345 335.041 201.345 332.408C201.345 329.788 199.558 328.012 197.13 328.012ZM197.117 335.705C195.269 335.705 194.17 334.292 194.17 332.408C194.17 330.524 195.269 329.111 197.117 329.111C198.966 329.111 200.065 330.524 200.065 332.408C200.065 334.292 198.966 335.705 197.117 335.705Z" fill="#666666"/>
<path d="M215.444 335.524C216.942 334.618 218.065 333.821 218.79 332.988C219.37 332.312 219.684 331.539 219.684 330.633C219.684 329.123 218.645 328.012 216.893 328.012C215.13 328.012 214.055 329.184 214.043 330.79L215.263 330.959C215.263 329.764 215.963 329.099 216.881 329.099C217.715 329.099 218.415 329.667 218.415 330.766C218.415 332.457 216.471 333.858 214.115 335.307V336.635H219.781V335.524H217.413H215.444Z" fill="#666666"/>
<path d="M238.58 331.1C238.024 331.1 237.573 331.551 237.573 332.106C237.573 332.662 238.024 333.113 238.58 333.113C239.136 333.113 239.587 332.662 239.587 332.106C239.587 331.551 239.136 331.1 238.58 331.1Z" fill="#C4C4C4"/>
<path d="M247.431 333.87C247.431 335.114 247.08 335.73 246.247 335.73C245.389 335.73 245.063 335.065 245.075 333.785L243.831 334.087C243.855 335.79 244.725 336.804 246.259 336.804C247.866 336.804 248.639 335.874 248.639 333.906V328.182H247.431V333.87Z" fill="#7A7A7A"/>
<path d="M265.254 335.065V331.587H266.872V330.645H265.254V328.773H264.118V330.645H262.753V331.587H264.118V335.162C264.118 336.152 264.638 336.635 265.628 336.635H267.102V335.657H265.846C265.435 335.657 265.254 335.476 265.254 335.065Z" fill="#7A7A7A"/>
<path d="M274.522 330.476C273.266 330.476 272.686 331.358 272.565 331.648V330.645H271.466V336.635H272.601V334.051C272.601 333.205 272.626 331.466 274.196 331.466C274.969 331.466 275.464 331.901 275.464 332.976V336.635H276.6V332.71C276.6 331.382 275.996 330.476 274.522 330.476Z" fill="#7A7A7A"/>
<path d="M291.986 333.399C291.611 334.643 291.454 335.138 291.358 335.415L290.862 333.761L289.92 330.645H288.591L287.721 333.495C287.359 334.679 287.226 335.114 287.142 335.428L286.538 333.435L285.692 330.645H284.508L286.465 336.635H287.746L288.652 333.737C289.002 332.626 289.111 332.251 289.231 331.889L289.799 333.749L290.681 336.635H292.022L294.039 330.645H292.843L291.986 333.399Z" fill="#7A7A7A"/>
<path d="M254.497 333.254C254.497 334.184 254.425 335.814 252.927 335.814C252.178 335.814 251.695 335.379 251.695 334.304V330.645H250.559V334.57C250.559 335.899 251.163 336.804 252.528 336.804C253.761 336.804 254.328 335.959 254.522 335.609V336.635H255.633V330.645H254.497V333.254Z" fill="#7A7A7A"/>
<path d="M260.105 333.085L259.392 332.952C258.558 332.795 258.377 332.565 258.377 332.179C258.377 331.756 258.74 331.382 259.537 331.382C260.479 331.382 260.841 331.974 260.986 332.384L261.989 331.998C261.747 331.237 261.035 330.476 259.549 330.476C258.305 330.476 257.29 331.213 257.29 332.288C257.29 333.435 258.148 333.821 259.174 334.027L259.899 334.159C260.721 334.316 260.974 334.618 260.974 335.041C260.974 335.572 260.527 335.874 259.694 335.874C258.715 335.874 258.281 335.355 258.123 334.739L257.048 335.089C257.302 336.225 258.425 336.804 259.682 336.804C261.228 336.804 262.122 336.08 262.122 334.944C262.122 333.616 260.793 333.23 260.105 333.085Z" fill="#7A7A7A"/>
<path d="M280.876 330.476C279.221 330.476 278.025 331.829 278.025 333.652C278.025 335.452 279.257 336.804 280.876 336.804C282.483 336.804 283.715 335.476 283.715 333.652C283.715 331.829 282.531 330.476 280.876 330.476ZM280.876 335.826C279.886 335.826 279.209 335.126 279.209 333.664C279.209 332.191 279.886 331.454 280.876 331.454C281.855 331.454 282.531 332.191 282.531 333.664C282.531 335.126 281.855 335.826 280.876 335.826Z" fill="#7A7A7A"/>
<path d="M299.987 331.1C299.431 331.1 298.98 331.551 298.98 332.106C298.98 332.662 299.431 333.113 299.987 333.113C300.542 333.113 300.993 332.662 300.993 332.106C300.993 331.551 300.542 331.1 299.987 331.1Z" fill="#C4C4C4"/>
<path d="M315.904 335.202C317.752 335.202 318.852 333.789 318.852 331.905C318.852 330.021 317.752 328.608 315.904 328.608C314.056 328.608 312.957 330.021 312.957 331.905C312.957 333.789 314.056 335.202 315.904 335.202Z" fill="#E5EDFF"/>
<path d="M324.454 335.335C325.384 335.335 326.06 334.743 326.06 333.125C326.06 331.495 325.384 330.939 324.454 330.939C323.499 330.939 322.811 331.652 322.811 333.125C322.811 334.598 323.499 335.335 324.454 335.335Z" fill="#E5EDFF"/>
<path d="M331.049 330.879C330.276 330.879 329.588 331.482 329.491 332.521H332.535C332.523 331.446 331.847 330.879 331.049 330.879Z" fill="#E5EDFF"/>
<path d="M305.02 340.158H348.307V324.055H305.02V340.158ZM335.278 330.142H336.378V331.144C336.498 330.855 337.078 329.973 338.335 329.973C339.808 329.973 340.412 330.879 340.412 332.207V336.132H339.277V332.473C339.277 331.398 338.782 330.963 338.008 330.963C336.438 330.963 336.414 332.702 336.414 333.548V336.132H335.278V330.142ZM331.049 329.973C332.837 329.973 333.9 331.47 333.683 333.427H329.467C329.515 334.864 330.312 335.347 331.134 335.347C332.1 335.347 332.523 334.622 332.692 334.2L333.731 334.574C333.296 335.721 332.342 336.301 331.098 336.301C329.431 336.301 328.331 335.178 328.331 333.161C328.331 331.205 329.491 329.973 331.049 329.973ZM321.736 330.142H322.835V331.048C323.125 330.553 323.729 329.973 324.78 329.973C326.193 329.973 327.232 331.169 327.232 333.137C327.232 335.093 326.193 336.301 324.78 336.301C323.729 336.301 323.161 335.721 322.871 335.226V336.374V338.487H321.736V330.142ZM315.916 327.509C318.344 327.509 320.132 329.285 320.132 331.905C320.132 334.538 318.344 336.301 315.916 336.301C313.476 336.301 311.664 334.538 311.664 331.905C311.664 329.285 313.488 327.509 315.916 327.509Z" fill="#E5EDFF"/>
<path d="M331.098 336.301C332.342 336.301 333.296 335.721 333.731 334.574L332.692 334.2C332.523 334.622 332.1 335.347 331.134 335.347C330.313 335.347 329.515 334.864 329.467 333.427H333.683C333.9 331.47 332.837 329.973 331.049 329.973C329.491 329.973 328.331 331.205 328.331 333.161C328.331 335.178 329.431 336.301 331.098 336.301ZM331.049 330.879C331.847 330.879 332.523 331.446 332.535 332.521H329.491C329.588 331.482 330.276 330.879 331.049 330.879Z" fill="#0B3DB2"/>
<path d="M336.414 333.548C336.414 332.702 336.438 330.963 338.008 330.963C338.782 330.963 339.277 331.398 339.277 332.473V336.132H340.412V332.207C340.412 330.879 339.808 329.973 338.335 329.973C337.078 329.973 336.498 330.854 336.378 331.144V330.142H335.278V336.132H336.414V333.548Z" fill="#0B3DB2"/>
<path d="M322.871 336.373V335.226C323.161 335.721 323.729 336.301 324.78 336.301C326.193 336.301 327.232 335.093 327.232 333.137C327.232 331.168 326.193 329.973 324.78 329.973C323.729 329.973 323.125 330.553 322.835 331.048V330.142H321.736V338.487H322.871V336.373ZM324.454 330.939C325.384 330.939 326.06 331.495 326.06 333.125C326.06 334.743 325.384 335.335 324.454 335.335C323.499 335.335 322.811 334.598 322.811 333.125C322.811 331.652 323.499 330.939 324.454 330.939Z" fill="#0B3DB2"/>
<path d="M315.916 336.301C318.344 336.301 320.132 334.538 320.132 331.905C320.132 329.285 318.344 327.509 315.916 327.509C313.488 327.509 311.664 329.285 311.664 331.905C311.664 334.538 313.476 336.301 315.916 336.301ZM315.904 328.608C317.752 328.608 318.852 330.021 318.852 331.905C318.852 333.789 317.752 335.202 315.904 335.202C314.056 335.202 312.957 333.789 312.957 331.905C312.957 330.021 314.056 328.608 315.904 328.608Z" fill="#0B3DB2"/>
<path d="M494.273 303.928H399.647C397.979 303.928 396.627 305.279 396.627 306.947V335.126C396.627 336.793 397.979 338.145 399.647 338.145H494.273C495.941 338.145 497.293 336.793 497.293 335.126V306.947C497.293 305.279 495.941 303.928 494.273 303.928ZM496.287 336.132C496.287 336.688 495.836 337.138 495.28 337.138H398.64C398.084 337.138 397.633 336.688 397.633 336.132V305.94C397.633 305.385 398.084 304.934 398.64 304.934H495.28C495.836 304.934 496.287 305.385 496.287 305.94V336.132Z" fill="#C4C4C4"/>
<path d="M439.118 319.207C439.118 318.22 438.385 317.784 437.413 317.784H434.975V320.644H437.413C438.385 320.644 439.118 320.193 439.118 319.207Z" fill="white"/>
<path d="M445.743 320.122C444.897 320.122 444.235 320.686 444.108 321.714H447.307C447.251 320.686 446.631 320.122 445.743 320.122Z" fill="white"/>
<path d="M480.247 320.122C479.402 320.122 478.74 320.686 478.613 321.714H481.812C481.755 320.686 481.135 320.122 480.247 320.122Z" fill="white"/>
<path d="M460.941 320.235C459.898 320.235 459.179 321.024 459.179 322.588C459.179 324.138 459.898 324.885 460.941 324.885C461.969 324.885 462.688 324.138 462.688 322.588C462.688 321.024 461.969 320.235 460.941 320.235Z" fill="white"/>
<path d="M418.834 317.285L421.907 320.364H411.055V321.707H421.907L418.827 324.786L419.78 325.732L424.478 321.035L419.78 316.339L418.834 317.285Z" fill="black"/>
<path d="M438.583 321.545C439.823 321.306 441.021 320.503 441.021 318.84C441.021 317.305 439.823 316.206 437.737 316.206H433.143V326.068H434.975V322.179H436.863C438.132 322.179 438.709 322.63 438.893 323.814L439.231 326.068H441.204L440.753 323.659C440.513 322.306 439.837 321.7 438.583 321.545ZM437.413 320.644H434.975V317.784H437.413C438.385 317.784 439.118 318.22 439.118 319.207C439.118 320.193 438.385 320.644 437.413 320.644Z" fill="black"/>
<path d="M460.941 318.84C458.883 318.84 457.389 320.362 457.389 322.56C457.389 324.702 458.897 326.28 460.941 326.28C462.984 326.28 464.478 324.786 464.478 322.56C464.478 320.362 462.998 318.84 460.941 318.84ZM460.941 324.885C459.898 324.885 459.179 324.138 459.179 322.588C459.179 321.024 459.898 320.235 460.941 320.235C461.969 320.235 462.688 321.024 462.688 322.588C462.688 324.138 461.969 324.885 460.941 324.885Z" fill="black"/>
<path d="M445.799 324.927C444.897 324.927 444.122 324.406 444.066 322.983H449.013C449.238 320.658 447.998 318.84 445.743 318.84C443.798 318.84 442.346 320.32 442.346 322.56C442.346 324.885 443.699 326.28 445.771 326.28C447.631 326.28 448.604 325.336 449.055 324.237L447.505 323.659C447.251 324.251 446.786 324.927 445.799 324.927ZM445.743 320.122C446.631 320.122 447.251 320.686 447.307 321.715H444.108C444.235 320.686 444.897 320.122 445.743 320.122Z" fill="black"/>
<path d="M453.968 321.813L453.052 321.644C452.207 321.489 451.995 321.278 451.995 320.869C451.995 320.447 452.348 320.08 453.137 320.08C454.011 320.08 454.476 320.616 454.673 321.151L456.125 320.531C455.829 319.742 454.955 318.84 453.207 318.84C451.502 318.84 450.332 319.714 450.332 321.024C450.332 322.377 451.263 322.856 452.615 323.123L453.56 323.307C454.377 323.462 454.589 323.786 454.589 324.18C454.589 324.659 454.152 324.997 453.334 324.997C452.066 324.997 451.728 324.138 451.629 323.743L450.05 324.251C450.346 325.533 451.685 326.265 453.264 326.265C455.223 326.265 456.364 325.378 456.364 324.011C456.364 322.574 455.068 322.039 453.968 321.813Z" fill="black"/>
<path d="M480.304 324.927C479.402 324.927 478.627 324.406 478.57 322.983H483.517C483.743 320.658 482.502 318.84 480.247 318.84C478.303 318.84 476.851 320.32 476.851 322.56C476.851 324.885 478.204 326.28 480.276 326.28C482.136 326.28 483.108 325.336 483.559 324.237L482.009 323.659C481.755 324.251 481.29 324.927 480.304 324.927ZM480.247 320.122C481.135 320.122 481.755 320.686 481.812 321.715H478.613C478.739 320.686 479.402 320.122 480.247 320.122Z" fill="black"/>
<path d="M473.352 322.335C472.971 323.56 472.76 324.237 472.647 324.575C472.534 324.251 472.323 323.589 471.9 322.335L470.829 319.052H469.025L471.604 326.068H473.676L476.128 319.052H474.381L473.352 322.335Z" fill="black"/>
<path d="M466.086 326.068H467.791V316.206H466.086V326.068Z" fill="black"/>
<path d="M244.229 126.3C244.229 126.988 244.682 127.423 245.588 127.423C246.639 127.423 247.654 126.717 247.654 125.104V124.38C245.806 124.579 244.229 124.996 244.229 126.3Z" fill="white"/>
<path d="M262.681 120.594C262.191 119.163 261.974 118.547 261.793 118.04C261.63 118.529 261.412 119.199 260.905 120.612L259.836 123.655H263.732L262.681 120.594Z" fill="white"/>
<path d="M208.167 126.3C208.167 126.988 208.62 127.423 209.526 127.423C210.577 127.423 211.591 126.717 211.591 125.104V124.38C209.743 124.579 208.167 124.996 208.167 126.3Z" fill="white"/>
<path d="M276.765 119.797H274.554V128.818H276.765V119.797Z" fill="#111111"/>
<path d="M281.976 129.561C281.705 130.304 281.415 130.521 280.762 130.521H278.642V132.351H280.998C282.574 132.351 283.299 131.698 283.825 130.177L287.503 119.797H285.202L283.933 123.655L283.136 126.083C282.973 125.702 282.756 125.249 282.085 123.673L280.436 119.797H278.044L282.248 128.746L281.976 129.561Z" fill="#111111"/>
<path d="M276.819 116.12H274.464V118.384H276.819V116.12Z" fill="#111111"/>
<path d="M291.907 129.09C293.683 129.09 294.516 127.93 294.879 127.333V128.818H297.071V119.797H294.861V124.036C294.861 125.467 294.535 127.224 292.813 127.224C291.853 127.224 291.255 126.681 291.255 125.286V119.797H289.044V125.811C289.044 127.786 290.041 129.09 291.907 129.09Z" fill="#111111"/>
<path d="M259.111 125.684H264.438L265.525 128.818H268.153L263.405 116.138H260.289L255.469 128.818H258.006L259.111 125.684ZM260.905 120.612C261.412 119.199 261.63 118.529 261.793 118.04C261.974 118.547 262.191 119.163 262.681 120.594L263.732 123.655H259.836L260.905 120.612Z" fill="#111111"/>
<path d="M271.882 116.138H269.689V128.818H271.882V116.138Z" fill="#111111"/>
<path d="M209.942 121.192C211.102 121.192 211.591 121.735 211.591 122.623V122.931C208.638 123.202 205.92 123.981 205.92 126.499C205.92 128.093 207.116 129.09 208.801 129.09C210.323 129.09 211.283 128.329 211.827 127.478C211.936 128.275 212.334 128.818 213.476 128.818H215.161V127.079H214.327C213.856 127.079 213.784 126.97 213.784 126.536V122.895C213.784 120.684 212.425 119.525 209.942 119.525C207.406 119.525 205.992 120.848 205.793 122.188L207.804 122.713C208.04 121.916 208.601 121.192 209.942 121.192ZM211.591 125.105C211.591 126.717 210.577 127.423 209.526 127.423C208.62 127.423 208.167 126.988 208.167 126.3C208.167 124.996 209.743 124.579 211.591 124.38V125.105Z" fill="#111111"/>
<path d="M219.375 129.09C221.151 129.09 221.984 127.93 222.347 127.333V128.818H224.539V119.797H222.328V124.036C222.328 125.467 222.002 127.224 220.281 127.224C219.32 127.224 218.723 126.681 218.723 125.286V119.797H216.512V125.811C216.512 127.786 217.508 129.09 219.375 129.09Z" fill="#111111"/>
<path d="M246.005 121.192C247.165 121.192 247.654 121.735 247.654 122.623V122.931C244.701 123.202 241.983 123.981 241.983 126.499C241.983 128.093 243.178 129.09 244.864 129.09C246.386 129.09 247.346 128.329 247.89 127.478C247.998 128.275 248.397 128.818 249.539 128.818H251.224V127.079H250.39C249.919 127.079 249.847 126.97 249.847 126.536V122.895C249.847 120.684 248.488 119.525 246.005 119.525C243.468 119.525 242.055 120.848 241.856 122.188L243.867 122.713C244.103 121.916 244.664 121.192 246.005 121.192ZM247.654 125.105C247.654 126.717 246.639 127.423 245.588 127.423C244.682 127.423 244.229 126.988 244.229 126.3C244.229 124.996 245.806 124.579 247.654 124.38V125.105Z" fill="#111111"/>
<path d="M231.569 128.818L232.728 124.706C233.181 123.148 233.344 122.587 233.489 122.007C233.634 122.55 233.815 123.148 234.25 124.724L235.41 128.818H238.056L241.009 119.797H238.726L237.82 122.913C237.131 125.412 236.932 126.191 236.805 126.626C236.66 126.191 236.443 125.394 235.954 123.583L234.866 119.797H232.257L231.224 123.42C230.681 125.358 230.463 126.21 230.336 126.681C230.191 126.191 229.956 125.322 229.376 123.112L228.452 119.797H226.169L229.086 128.818H231.569Z" fill="#111111"/>
<path d="M195.271 123.293H201.215V128.818H203.57V116.138H201.215V121.264H195.271V116.138H192.916V128.818H195.271V123.293Z" fill="#111111"/>
<path d="M295.96 141.901H191.267V150.959H295.96V141.901Z" fill="#E0E0E0"/>
<path d="M301.268 147.244C301.718 147.244 302.083 146.881 302.083 146.431C302.083 145.98 301.718 145.615 301.268 145.615C300.818 145.615 300.454 145.98 300.454 146.431C300.454 146.881 300.818 147.244 301.268 147.244Z" fill="#E0E0E0"/>
<path d="M306.577 150.959H355.904V141.901H306.577V150.959Z" fill="#E0E0E0"/>
<path d="M179.417 152.341V114.098C179.417 113.541 178.967 113.091 178.411 113.091H140.157C139.602 113.091 139.151 113.541 139.151 114.098V152.341C139.151 152.584 139.248 152.798 139.392 152.972H179.177C179.321 152.798 179.417 152.584 179.417 152.341ZM168.235 143.849H163.62V135.388H154.949V143.849H150.334V122.708H154.949V131.067H163.62V122.708H168.235V143.849Z" fill="black"/>
<path d="M163.62 131.067H154.948V122.708H150.333V143.848H154.948V135.387H163.62V143.848H168.234V122.708H163.62V131.067Z" fill="white"/>
<path d="M519.44 176.255H114.76V174.866H519.44V176.255Z" fill="#F2F2F2"/>
<path d="M510.003 297.119V345.663H129.861V297.119H510.003Z" fill="white"/>
<path d="M433.329 207.911C432.483 207.911 431.821 208.474 431.694 209.503H434.893C434.837 208.474 434.217 207.911 433.329 207.911Z" fill="white"/>
<path d="M482.82 207.911C481.975 207.911 481.313 208.474 481.186 209.503H484.385C484.328 208.474 483.708 207.911 482.82 207.911Z" fill="white"/>
<path d="M400.452 214.863H402.755V209.831H407.7V207.818H402.667V202.786H400.653V207.818H395.62V209.831H400.452V214.863Z" fill="black"/>
<path d="M420.881 208.799V205.981L426.448 213.857H428.182V203.994H426.35V208.362V210.757L421.572 203.994H419.049V213.857H420.881V208.799Z" fill="black"/>
<path d="M433.357 214.068C435.217 214.068 436.19 213.124 436.641 212.025L435.09 211.447C434.837 212.039 434.372 212.715 433.385 212.715C432.483 212.715 431.708 212.194 431.652 210.771H436.598C436.824 208.446 435.584 206.629 433.329 206.629C431.384 206.629 429.932 208.108 429.932 210.348C429.932 212.673 431.285 214.068 433.357 214.068ZM433.329 207.911C434.217 207.911 434.837 208.474 434.893 209.503H431.694C431.821 208.474 432.483 207.911 433.329 207.911Z" fill="black"/>
<path d="M441.639 213.857L442.541 210.658C442.893 209.447 443.02 209.01 443.133 208.559C443.245 208.982 443.386 209.447 443.725 210.672L444.627 213.857H446.684L448.981 206.84H447.206L446.501 209.263C445.965 211.208 445.81 211.814 445.712 212.152C445.599 211.814 445.43 211.194 445.049 209.785L444.204 206.84H442.174L441.371 209.658C440.948 211.166 440.779 211.828 440.68 212.194C440.568 211.814 440.384 211.137 439.933 209.418L439.215 206.84H437.439L439.708 213.857H441.639Z" fill="black"/>
<path d="M473.802 214.068C475.183 214.068 475.831 213.166 476.113 212.701V213.857H477.818V206.84H476.099V210.137C476.099 211.25 475.845 212.617 474.506 212.617C473.759 212.617 473.294 212.194 473.294 211.109V206.84H471.575V211.518C471.575 213.053 472.35 214.068 473.802 214.068Z" fill="black"/>
<path d="M482.849 214.068C484.709 214.068 485.681 213.124 486.132 212.025L484.582 211.447C484.328 212.039 483.863 212.715 482.877 212.715C481.975 212.715 481.2 212.194 481.143 210.771H486.09C486.316 208.446 485.075 206.629 482.821 206.629C480.876 206.629 479.424 208.108 479.424 210.348C479.424 212.673 480.777 214.068 482.849 214.068ZM482.821 207.911C483.708 207.911 484.328 208.474 484.385 209.503H481.186C481.313 208.474 481.975 207.911 482.821 207.911Z" fill="black"/>
<path d="M467.097 212.786C465.829 212.786 465.491 211.926 465.392 211.532L463.814 212.039C464.11 213.321 465.448 214.054 467.027 214.054C468.986 214.054 470.127 213.166 470.127 211.799C470.127 210.362 468.831 209.827 467.732 209.602L466.815 209.432C465.97 209.277 465.758 209.066 465.758 208.658C465.758 208.235 466.111 207.869 466.9 207.869C467.774 207.869 468.239 208.404 468.436 208.939L469.888 208.319C469.592 207.53 468.718 206.629 466.971 206.629C465.265 206.629 464.095 207.502 464.095 208.813C464.095 210.165 465.026 210.644 466.379 210.912L467.323 211.095C468.14 211.25 468.352 211.574 468.352 211.969C468.352 212.448 467.915 212.786 467.097 212.786Z" fill="black"/>
<path d="M455.156 206.84H453.437V213.857H455.156V206.84Z" fill="black"/>
<path d="M455.199 203.98H453.366V205.741H455.199V203.98Z" fill="black"/>
<path d="M459.873 212.786C458.604 212.786 458.266 211.926 458.167 211.532L456.589 212.039C456.885 213.321 458.224 214.054 459.802 214.054C461.761 214.054 462.903 213.166 462.903 211.799C462.903 210.362 461.606 209.827 460.507 209.602L459.591 209.432C458.745 209.277 458.534 209.066 458.534 208.658C458.534 208.235 458.886 207.869 459.675 207.869C460.549 207.869 461.014 208.404 461.211 208.939L462.663 208.319C462.367 207.53 461.493 206.629 459.746 206.629C458.04 206.629 456.871 207.502 456.871 208.813C456.871 210.165 457.801 210.644 459.154 210.912L460.098 211.095C460.915 211.25 461.127 211.574 461.127 211.969C461.127 212.448 460.69 212.786 459.873 212.786Z" fill="black"/>
<path d="M492 218V228.716L495.194 225.481L500.381 234.39L502.041 233.631L496.684 224.724L501.078 224.357L492 218Z" fill="black"/>
<path d="M52.1046 95.4605L52.2061 95.3645L52.3021 95.466L52.2006 95.562L52.1046 95.4605Z" fill="#B8E1DF"/>
<path d="M52.1723 95.4931L52.2358 95.4949L52.2376 95.4313L52.174 95.4296L52.1723 95.4931Z" fill="white"/>
</svg>
