<svg width="455" height="421" viewBox="0 0 455 421" fill="none" xmlns="http://www.w3.org/2000/svg">
<path d="M11 25H22V36H11V25Z" fill="#1A1A1A"/>
<path d="M45 26H53V34H45V26Z" fill="black"/>
<rect x="15" y="29" width="3" height="3" fill="#1A1A1A"/>
<rect x="80" y="29" width="2" height="2" fill="#1A1A1A"/>
<path d="M76 25H86V35H76V25Z" fill="#1A1A1A"/>
<path d="M110 26H118V34H110V26Z" fill="black"/>
<path d="M141 25H151V35H141V25Z" fill="#1A1A1A"/>
<path d="M175 26H183V34H175V26Z" fill="black"/>
<rect x="145" y="29" width="2" height="2" fill="#1A1A1A"/>
<rect x="210" y="30" width="2" height="2" fill="#1A1A1A"/>
<path d="M240 26H248V34H240V26Z" fill="black"/>
<path d="M206 25H216V35H206V25Z" fill="#1A1A1A"/>
<path d="M271 26H281V36H271V26Z" fill="#1A1A1A"/>
<path d="M305 26H313V34H305V26Z" fill="black"/>
<rect x="275" y="30" width="2" height="2" fill="#1A1A1A"/>
<rect x="341" y="30" width="1" height="1" fill="#1A1A1A"/>
<path d="M336 26H346V36H336V26Z" fill="#1A1A1A"/>
<path d="M370 26H378V34H370V26Z" fill="black"/>
<path d="M402 26H411V35H402V26Z" fill="#1A1A1A"/>
<path d="M435 26H443V34H435V26Z" fill="black"/>
<rect x="406" y="30" width="1" height="1" fill="#1A1A1A"/>
<rect x="16" y="90" width="1" height="1" fill="#1A1A1A"/>
<path d="M45 86H53V94H45V86Z" fill="black"/>
<path d="M12 86H21V95H12V86Z" fill="#1A1A1A"/>
<path d="M77 86H86V95H77V86Z" fill="#1A1A1A"/>
<path d="M110 86H118V94H110V86Z" fill="black"/>
<path d="M142 86H151V95H142V86Z" fill="#1A1A1A"/>
<path d="M175 86H183V94H175V86Z" fill="black"/>
<path d="M207 86H216V95H207V86Z" fill="#1A1A1A"/>
<path d="M240 86H248V94H240V86Z" fill="black"/>
<path d="M272 86H281V95H272V86Z" fill="#1A1A1A"/>
<path d="M305 86H313V94H305V86Z" fill="black"/>
<path d="M337 86H346V95H337V86Z" fill="#1A1A1A"/>
<path d="M370 86H378V94H370V86Z" fill="black"/>
<path d="M402 86H411V95H402V86Z" fill="#1A1A1A"/>
<path d="M435 86H443V94H435V86Z" fill="black"/>
<path d="M12 146H20V154H12V146Z" fill="#1A1A1A"/>
<path d="M45 146H53V154H45V146Z" fill="black"/>
<path d="M77 146H85V154H77V146Z" fill="#1A1A1A"/>
<path d="M110 146H118V154H110V146Z" fill="black"/>
<path d="M142 146H150V154H142V146Z" fill="#1A1A1A"/>
<path d="M175 146H183V154H175V146Z" fill="black"/>
<path d="M207 146H215V154H207V146Z" fill="#1A1A1A"/>
<path d="M240 146H248V154H240V146Z" fill="black"/>
<path d="M272 146H280V154H272V146Z" fill="#1A1A1A"/>
<path d="M305 146H313V154H305V146Z" fill="black"/>
<path d="M337 146H345V154H337V146Z" fill="#1A1A1A"/>
<path d="M370 146H378V154H370V146Z" fill="black"/>
<path d="M402 146H410V154H402V146Z" fill="#1A1A1A"/>
<path d="M435 146H443V154H435V146Z" fill="black"/>
<path d="M12 206H20V214H12V206Z" fill="#1A1A1A"/>
<path d="M45 206H53V214H45V206Z" fill="black"/>
<path d="M77 206H85V214H77V206Z" fill="#1A1A1A"/>
<path d="M110 206H118V214H110V206Z" fill="black"/>
<path d="M142 206H150V214H142V206Z" fill="#1A1A1A"/>
<path d="M175 206H183V214H175V206Z" fill="black"/>
<path d="M207 206H215V214H207V206Z" fill="#1A1A1A"/>
<path d="M240 206H248V214H240V206Z" fill="black"/>
<path d="M272 206H280V214H272V206Z" fill="#1A1A1A"/>
<path d="M305 206H313V214H305V206Z" fill="black"/>
<path d="M337 206H345V214H337V206Z" fill="#1A1A1A"/>
<path d="M370 206H378V214H370V206Z" fill="black"/>
<path d="M402 206H410V214H402V206Z" fill="#1A1A1A"/>
<path d="M435 206H443V214H435V206Z" fill="black"/>
<path d="M12 266H20V274H12V266Z" fill="#1A1A1A"/>
<path d="M45 266H53V274H45V266Z" fill="black"/>
<path d="M77 266H85V274H77V266Z" fill="#1A1A1A"/>
<path d="M110 266H118V274H110V266Z" fill="black"/>
<path d="M142 266H150V274H142V266Z" fill="#1A1A1A"/>
<path d="M175 266H183V274H175V266Z" fill="black"/>
<path d="M207 266H215V274H207V266Z" fill="#1A1A1A"/>
<path d="M240 266H248V274H240V266Z" fill="black"/>
<path d="M272 266H280V274H272V266Z" fill="#1A1A1A"/>
<path d="M305 266H313V274H305V266Z" fill="black"/>
<path d="M337 266H345V274H337V266Z" fill="#1A1A1A"/>
<path d="M370 266H378V274H370V266Z" fill="black"/>
<path d="M402 266H410V274H402V266Z" fill="#1A1A1A"/>
<path d="M435 266H443V274H435V266Z" fill="black"/>
<path d="M12 326H20V334H12V326Z" fill="#1A1A1A"/>
<path d="M45 326H53V334H45V326Z" fill="black"/>
<path d="M77 326H85V334H77V326Z" fill="#1A1A1A"/>
<path d="M110 326H118V334H110V326Z" fill="black"/>
<path d="M142 326H150V334H142V326Z" fill="#1A1A1A"/>
<path d="M175 326H183V334H175V326Z" fill="black"/>
<path d="M207 326H215V334H207V326Z" fill="#1A1A1A"/>
<path d="M240 326H248V334H240V326Z" fill="black"/>
<path d="M272 326H280V334H272V326Z" fill="#1A1A1A"/>
<path d="M305 326H313V334H305V326Z" fill="black"/>
<path d="M337 326H345V334H337V326Z" fill="#1A1A1A"/>
<path d="M370 326H378V334H370V326Z" fill="black"/>
<path d="M402 326H410V334H402V326Z" fill="#1A1A1A"/>
<path d="M435 326H443V334H435V326Z" fill="black"/>
<path d="M12 386H20V394H12V386Z" fill="#1A1A1A"/>
<path d="M45 386H53V394H45V386Z" fill="black"/>
<path d="M77 386H85V394H77V386Z" fill="#1A1A1A"/>
<path d="M110 386H118V394H110V386Z" fill="black"/>
<path d="M142 386H150V394H142V386Z" fill="#1A1A1A"/>
<path d="M175 386H183V394H175V386Z" fill="black"/>
<path d="M207 386H215V394H207V386Z" fill="#1A1A1A"/>
<path d="M240 386H248V394H240V386Z" fill="black"/>
<path d="M272 386H280V394H272V386Z" fill="#1A1A1A"/>
<path d="M305 386H313V394H305V386Z" fill="black"/>
<path d="M337 386H345V394H337V386Z" fill="#1A1A1A"/>
<path d="M370 386H378V394H370V386Z" fill="black"/>
<path d="M402 386H410V394H402V386Z" fill="#1A1A1A"/>
<path d="M435 386H443V394H435V386Z" fill="black"/>
</svg>
