<svg width="551" height="504" viewBox="0 0 551 504" fill="none" xmlns="http://www.w3.org/2000/svg">
<path d="M0 2.99999C0 1.34314 1.34315 0 3 0H597C598.657 0 600 1.34315 600 3V417C600 418.657 598.657 420 597 420H3C1.34314 420 0 418.657 0 417V2.99999Z" fill="black"/>
<rect x="17.3281" y="38" width="566" height="1" fill="#F7F8FA" fill-opacity="0.24"/>
<path d="M23.2988 85H17.709V84.2207L20.6621 80.9395C21.0996 80.4434 21.4004 80.041 21.5645 79.7324C21.7324 79.4199 21.8164 79.0977 21.8164 78.7656C21.8164 78.3203 21.6816 77.9551 21.4121 77.6699C21.1426 77.3848 20.7832 77.2422 20.334 77.2422C19.7949 77.2422 19.375 77.3965 19.0742 77.7051C18.7773 78.0098 18.6289 78.4355 18.6289 78.9824H17.5449C17.5449 78.1973 17.7969 77.5625 18.3008 77.0781C18.8086 76.5938 19.4863 76.3516 20.334 76.3516C21.127 76.3516 21.7539 76.5605 22.2148 76.9785C22.6758 77.3926 22.9062 77.9453 22.9062 78.6367C22.9062 79.4766 22.3711 80.4766 21.3008 81.6367L19.0156 84.1152H23.2988V85Z" fill="#F7F8FA" fill-opacity="0.24"/>
<path d="M22.2852 118.135H23.4688V119.02H22.2852V121H21.1953V119.02H17.3105V118.381L21.1309 112.469H22.2852V118.135ZM18.541 118.135H21.1953V113.951L21.0664 114.186L18.541 118.135Z" fill="#F7F8FA" fill-opacity="0.24"/>
<path d="M21.9629 148.463V149.383H21.7637C20.9199 149.398 20.248 149.648 19.748 150.133C19.248 150.617 18.959 151.299 18.8809 152.178C19.3301 151.662 19.9434 151.404 20.7207 151.404C21.4629 151.404 22.0547 151.666 22.4961 152.189C22.9414 152.713 23.1641 153.389 23.1641 154.217C23.1641 155.096 22.9238 155.799 22.4434 156.326C21.9668 156.854 21.3262 157.117 20.5215 157.117C19.7051 157.117 19.043 156.805 18.5352 156.18C18.0273 155.551 17.7734 154.742 17.7734 153.754V153.338C17.7734 151.768 18.1074 150.568 18.7754 149.74C19.4473 148.908 20.4453 148.482 21.7695 148.463H21.9629ZM20.5391 152.307C20.168 152.307 19.8262 152.418 19.5137 152.641C19.2012 152.863 18.9844 153.143 18.8633 153.479V153.877C18.8633 154.58 19.0215 155.146 19.3379 155.576C19.6543 156.006 20.0488 156.221 20.5215 156.221C21.0098 156.221 21.3926 156.041 21.6699 155.682C21.9512 155.322 22.0918 154.852 22.0918 154.27C22.0918 153.684 21.9492 153.211 21.6641 152.852C21.3828 152.488 21.0078 152.307 20.5391 152.307Z" fill="#F7F8FA" fill-opacity="0.24"/>
<path d="M22.8828 186.695C22.8828 187.121 22.7695 187.5 22.543 187.832C22.3203 188.164 22.0176 188.424 21.6348 188.611C22.0801 188.803 22.4316 189.082 22.6895 189.449C22.9512 189.816 23.082 190.232 23.082 190.697C23.082 191.436 22.832 192.023 22.332 192.461C21.8359 192.898 21.1816 193.117 20.3691 193.117C19.5488 193.117 18.8906 192.898 18.3945 192.461C17.9023 192.02 17.6562 191.432 17.6562 190.697C17.6562 190.236 17.7812 189.82 18.0312 189.449C18.2852 189.078 18.6348 188.797 19.0801 188.605C18.7012 188.418 18.4023 188.158 18.1836 187.826C17.9648 187.494 17.8555 187.117 17.8555 186.695C17.8555 185.977 18.0859 185.406 18.5469 184.984C19.0078 184.562 19.6152 184.352 20.3691 184.352C21.1191 184.352 21.7246 184.562 22.1855 184.984C22.6504 185.406 22.8828 185.977 22.8828 186.695ZM21.998 190.674C21.998 190.197 21.8457 189.809 21.541 189.508C21.2402 189.207 20.8457 189.057 20.3574 189.057C19.8691 189.057 19.4766 189.205 19.1797 189.502C18.8867 189.799 18.7402 190.189 18.7402 190.674C18.7402 191.158 18.8828 191.539 19.168 191.816C19.457 192.094 19.8574 192.232 20.3691 192.232C20.877 192.232 21.2754 192.094 21.5645 191.816C21.8535 191.535 21.998 191.154 21.998 190.674ZM20.3691 185.242C19.9434 185.242 19.5977 185.375 19.332 185.641C19.0703 185.902 18.9395 186.26 18.9395 186.713C18.9395 187.146 19.0684 187.498 19.3262 187.768C19.5879 188.033 19.9355 188.166 20.3691 188.166C20.8027 188.166 21.1484 188.033 21.4062 187.768C21.668 187.498 21.7988 187.146 21.7988 186.713C21.7988 186.279 21.6641 185.926 21.3945 185.652C21.125 185.379 20.7832 185.242 20.3691 185.242Z" fill="#F7F8FA" fill-opacity="0.24"/>
<path d="M21.2715 229H20.1816V221.775L17.9961 222.578V221.594L21.1016 220.428H21.2715V229ZM29.7969 225.361C29.7969 226.631 29.5801 227.574 29.1465 228.191C28.7129 228.809 28.0352 229.117 27.1133 229.117C26.2031 229.117 25.5293 228.816 25.0918 228.215C24.6543 227.609 24.4277 226.707 24.4121 225.508V224.061C24.4121 222.807 24.6289 221.875 25.0625 221.266C25.4961 220.656 26.1758 220.352 27.1016 220.352C28.0195 220.352 28.6953 220.646 29.1289 221.236C29.5625 221.822 29.7852 222.729 29.7969 223.955V225.361ZM28.7129 223.879C28.7129 222.961 28.584 222.293 28.3262 221.875C28.0684 221.453 27.6602 221.242 27.1016 221.242C26.5469 221.242 26.1426 221.451 25.8887 221.869C25.6348 222.287 25.5039 222.93 25.4961 223.797V225.531C25.4961 226.453 25.6289 227.135 25.8945 227.576C26.1641 228.014 26.5703 228.232 27.1133 228.232C27.6484 228.232 28.0449 228.025 28.3027 227.611C28.5645 227.197 28.7012 226.545 28.7129 225.654V223.879Z" fill="#F7F8FA" fill-opacity="0.24"/>
<path d="M21.2715 265H20.1816V257.775L17.9961 258.578V257.594L21.1016 256.428H21.2715V265ZM30.0371 265H24.4473V264.221L27.4004 260.939C27.8379 260.443 28.1387 260.041 28.3027 259.732C28.4707 259.42 28.5547 259.098 28.5547 258.766C28.5547 258.32 28.4199 257.955 28.1504 257.67C27.8809 257.385 27.5215 257.242 27.0723 257.242C26.5332 257.242 26.1133 257.396 25.8125 257.705C25.5156 258.01 25.3672 258.436 25.3672 258.982H24.2832C24.2832 258.197 24.5352 257.562 25.0391 257.078C25.5469 256.594 26.2246 256.352 27.0723 256.352C27.8652 256.352 28.4922 256.561 28.9531 256.979C29.4141 257.393 29.6445 257.945 29.6445 258.637C29.6445 259.477 29.1094 260.477 28.0391 261.637L25.7539 264.115H30.0371V265Z" fill="#F7F8FA" fill-opacity="0.24"/>
<path d="M21.2715 301H20.1816V293.775L17.9961 294.578V293.594L21.1016 292.428H21.2715V301ZM29.0234 298.135H30.207V299.02H29.0234V301H27.9336V299.02H24.0488V298.381L27.8691 292.469H29.0234V298.135ZM25.2793 298.135H27.9336V293.951L27.8047 294.186L25.2793 298.135Z" fill="#F7F8FA" fill-opacity="0.24"/>
<path d="M21.2715 337H20.1816V329.775L17.9961 330.578V329.594L21.1016 328.428H21.2715V337ZM28.7012 328.463V329.383H28.502C27.6582 329.398 26.9863 329.648 26.4863 330.133C25.9863 330.617 25.6973 331.299 25.6191 332.178C26.0684 331.662 26.6816 331.404 27.459 331.404C28.2012 331.404 28.793 331.666 29.2344 332.189C29.6797 332.713 29.9023 333.389 29.9023 334.217C29.9023 335.096 29.6621 335.799 29.1816 336.326C28.7051 336.854 28.0645 337.117 27.2598 337.117C26.4434 337.117 25.7812 336.805 25.2734 336.18C24.7656 335.551 24.5117 334.742 24.5117 333.754V333.338C24.5117 331.768 24.8457 330.568 25.5137 329.74C26.1855 328.908 27.1836 328.482 28.5078 328.463H28.7012ZM27.2773 332.307C26.9062 332.307 26.5645 332.418 26.252 332.641C25.9395 332.863 25.7227 333.143 25.6016 333.479V333.877C25.6016 334.58 25.7598 335.146 26.0762 335.576C26.3926 336.006 26.7871 336.221 27.2598 336.221C27.748 336.221 28.1309 336.041 28.4082 335.682C28.6895 335.322 28.8301 334.852 28.8301 334.27C28.8301 333.684 28.6875 333.211 28.4023 332.852C28.1211 332.488 27.7461 332.307 27.2773 332.307Z" fill="#F7F8FA" fill-opacity="0.24"/>
<path d="M21.2715 373H20.1816V365.775L17.9961 366.578V365.594L21.1016 364.428H21.2715V373ZM29.6211 366.695C29.6211 367.121 29.5078 367.5 29.2812 367.832C29.0586 368.164 28.7559 368.424 28.373 368.611C28.8184 368.803 29.1699 369.082 29.4277 369.449C29.6895 369.816 29.8203 370.232 29.8203 370.697C29.8203 371.436 29.5703 372.023 29.0703 372.461C28.5742 372.898 27.9199 373.117 27.1074 373.117C26.2871 373.117 25.6289 372.898 25.1328 372.461C24.6406 372.02 24.3945 371.432 24.3945 370.697C24.3945 370.236 24.5195 369.82 24.7695 369.449C25.0234 369.078 25.373 368.797 25.8184 368.605C25.4395 368.418 25.1406 368.158 24.9219 367.826C24.7031 367.494 24.5938 367.117 24.5938 366.695C24.5938 365.977 24.8242 365.406 25.2852 364.984C25.7461 364.562 26.3535 364.352 27.1074 364.352C27.8574 364.352 28.4629 364.562 28.9238 364.984C29.3887 365.406 29.6211 365.977 29.6211 366.695ZM28.7363 370.674C28.7363 370.197 28.584 369.809 28.2793 369.508C27.9785 369.207 27.584 369.057 27.0957 369.057C26.6074 369.057 26.2148 369.205 25.918 369.502C25.625 369.799 25.4785 370.189 25.4785 370.674C25.4785 371.158 25.6211 371.539 25.9062 371.816C26.1953 372.094 26.5957 372.232 27.1074 372.232C27.6152 372.232 28.0137 372.094 28.3027 371.816C28.5918 371.535 28.7363 371.154 28.7363 370.674ZM27.1074 365.242C26.6816 365.242 26.3359 365.375 26.0703 365.641C25.8086 365.902 25.6777 366.26 25.6777 366.713C25.6777 367.146 25.8066 367.498 26.0645 367.768C26.3262 368.033 26.6738 368.166 27.1074 368.166C27.541 368.166 27.8867 368.033 28.1445 367.768C28.4062 367.498 28.5371 367.146 28.5371 366.713C28.5371 366.279 28.4023 365.926 28.1328 365.652C27.8633 365.379 27.5215 365.242 27.1074 365.242Z" fill="#F7F8FA" fill-opacity="0.24"/>
<path d="M23.2988 409H17.709V408.221L20.6621 404.939C21.0996 404.443 21.4004 404.041 21.5645 403.732C21.7324 403.42 21.8164 403.098 21.8164 402.766C21.8164 402.32 21.6816 401.955 21.4121 401.67C21.1426 401.385 20.7832 401.242 20.334 401.242C19.7949 401.242 19.375 401.396 19.0742 401.705C18.7773 402.01 18.6289 402.436 18.6289 402.982H17.5449C17.5449 402.197 17.7969 401.562 18.3008 401.078C18.8086 400.594 19.4863 400.352 20.334 400.352C21.127 400.352 21.7539 400.561 22.2148 400.979C22.6758 401.393 22.9062 401.945 22.9062 402.637C22.9062 403.477 22.3711 404.477 21.3008 405.637L19.0156 408.115H23.2988V409ZM29.7969 405.361C29.7969 406.631 29.5801 407.574 29.1465 408.191C28.7129 408.809 28.0352 409.117 27.1133 409.117C26.2031 409.117 25.5293 408.816 25.0918 408.215C24.6543 407.609 24.4277 406.707 24.4121 405.508V404.061C24.4121 402.807 24.6289 401.875 25.0625 401.266C25.4961 400.656 26.1758 400.352 27.1016 400.352C28.0195 400.352 28.6953 400.646 29.1289 401.236C29.5625 401.822 29.7852 402.729 29.7969 403.955V405.361ZM28.7129 403.879C28.7129 402.961 28.584 402.293 28.3262 401.875C28.0684 401.453 27.6602 401.242 27.1016 401.242C26.5469 401.242 26.1426 401.451 25.8887 401.869C25.6348 402.287 25.5039 402.93 25.4961 403.797V405.531C25.4961 406.453 25.6289 407.135 25.8945 407.576C26.1641 408.014 26.5703 408.232 27.1133 408.232C27.6484 408.232 28.0449 408.025 28.3027 407.611C28.5645 407.197 28.7012 406.545 28.7129 405.654V403.879Z" fill="#F7F8FA" fill-opacity="0.24"/>
<path d="M23.2988 445H17.709V444.221L20.6621 440.939C21.0996 440.443 21.4004 440.041 21.5645 439.732C21.7324 439.42 21.8164 439.098 21.8164 438.766C21.8164 438.32 21.6816 437.955 21.4121 437.67C21.1426 437.385 20.7832 437.242 20.334 437.242C19.7949 437.242 19.375 437.396 19.0742 437.705C18.7773 438.01 18.6289 438.436 18.6289 438.982H17.5449C17.5449 438.197 17.7969 437.562 18.3008 437.078C18.8086 436.594 19.4863 436.352 20.334 436.352C21.127 436.352 21.7539 436.561 22.2148 436.979C22.6758 437.393 22.9062 437.945 22.9062 438.637C22.9062 439.477 22.3711 440.477 21.3008 441.637L19.0156 444.115H23.2988V445ZM30.0371 445H24.4473V444.221L27.4004 440.939C27.8379 440.443 28.1387 440.041 28.3027 439.732C28.4707 439.42 28.5547 439.098 28.5547 438.766C28.5547 438.32 28.4199 437.955 28.1504 437.67C27.8809 437.385 27.5215 437.242 27.0723 437.242C26.5332 437.242 26.1133 437.396 25.8125 437.705C25.5156 438.01 25.3672 438.436 25.3672 438.982H24.2832C24.2832 438.197 24.5352 437.562 25.0391 437.078C25.5469 436.594 26.2246 436.352 27.0723 436.352C27.8652 436.352 28.4922 436.561 28.9531 436.979C29.4141 437.393 29.6445 437.945 29.6445 438.637C29.6445 439.477 29.1094 440.477 28.0391 441.637L25.7539 444.115H30.0371V445Z" fill="#F7F8FA" fill-opacity="0.24"/>
<path d="M23.2988 481H17.709V480.221L20.6621 476.939C21.0996 476.443 21.4004 476.041 21.5645 475.732C21.7324 475.42 21.8164 475.098 21.8164 474.766C21.8164 474.32 21.6816 473.955 21.4121 473.67C21.1426 473.385 20.7832 473.242 20.334 473.242C19.7949 473.242 19.375 473.396 19.0742 473.705C18.7773 474.01 18.6289 474.436 18.6289 474.982H17.5449C17.5449 474.197 17.7969 473.562 18.3008 473.078C18.8086 472.594 19.4863 472.352 20.334 472.352C21.127 472.352 21.7539 472.561 22.2148 472.979C22.6758 473.393 22.9062 473.945 22.9062 474.637C22.9062 475.477 22.3711 476.477 21.3008 477.637L19.0156 480.115H23.2988V481ZM29.0234 478.135H30.207V479.02H29.0234V481H27.9336V479.02H24.0488V478.381L27.8691 472.469H29.0234V478.135ZM25.2793 478.135H27.9336V473.951L27.8047 474.186L25.2793 478.135Z" fill="#F7F8FA" fill-opacity="0.24"/>
<path d="M21.2715 67H20.1816V59.7754L17.9961 60.5781V59.5938L21.1016 58.4277H21.2715V67Z" fill="#F7F8FA" fill-opacity="0.24"/>
<path d="M18.207 134.723L18.6406 130.469H23.0117V131.471H19.5605L19.3027 133.797C19.7207 133.551 20.1953 133.428 20.7266 133.428C21.5039 133.428 22.1211 133.686 22.5781 134.201C23.0352 134.713 23.2637 135.406 23.2637 136.281C23.2637 137.16 23.0254 137.854 22.5488 138.361C22.0762 138.865 21.4141 139.117 20.5625 139.117C19.8086 139.117 19.1934 138.908 18.7168 138.49C18.2402 138.072 17.9688 137.494 17.9023 136.756H18.9277C18.9941 137.244 19.168 137.613 19.4492 137.863C19.7305 138.109 20.1016 138.232 20.5625 138.232C21.0664 138.232 21.4609 138.061 21.7461 137.717C22.0352 137.373 22.1797 136.898 22.1797 136.293C22.1797 135.723 22.0234 135.266 21.7109 134.922C21.4023 134.574 20.9902 134.4 20.4746 134.4C20.002 134.4 19.6309 134.504 19.3613 134.711L19.0742 134.945L18.207 134.723Z" fill="#F7F8FA" fill-opacity="0.24"/>
<path d="M21.8633 207.25C21.6367 207.52 21.3652 207.736 21.0488 207.9C20.7363 208.064 20.3926 208.146 20.0176 208.146C19.5254 208.146 19.0957 208.025 18.7285 207.783C18.3652 207.541 18.084 207.201 17.8848 206.764C17.6855 206.322 17.5859 205.836 17.5859 205.305C17.5859 204.734 17.6934 204.221 17.9082 203.764C18.127 203.307 18.4355 202.957 18.834 202.715C19.2324 202.473 19.6973 202.352 20.2285 202.352C21.0723 202.352 21.7363 202.668 22.2207 203.301C22.709 203.93 22.9531 204.789 22.9531 205.879V206.195C22.9531 207.855 22.625 209.068 21.9688 209.834C21.3125 210.596 20.3223 210.986 18.998 211.006H18.7871V210.092H19.0156C19.9102 210.076 20.5977 209.844 21.0781 209.395C21.5586 208.941 21.8203 208.227 21.8633 207.25ZM20.1934 207.25C20.5566 207.25 20.8906 207.139 21.1953 206.916C21.5039 206.693 21.7285 206.418 21.8691 206.09V205.656C21.8691 204.945 21.7148 204.367 21.4062 203.922C21.0977 203.477 20.707 203.254 20.2344 203.254C19.7578 203.254 19.375 203.438 19.0859 203.805C18.7969 204.168 18.6523 204.648 18.6523 205.246C18.6523 205.828 18.791 206.309 19.0684 206.688C19.3496 207.062 19.7246 207.25 20.1934 207.25Z" fill="#F7F8FA" fill-opacity="0.24"/>
<path d="M21.2715 283H20.1816V275.775L17.9961 276.578V275.594L21.1016 274.428H21.2715V283ZM26.0234 278.207H26.8379C27.3496 278.199 27.752 278.064 28.0449 277.803C28.3379 277.541 28.4844 277.188 28.4844 276.742C28.4844 275.742 27.9863 275.242 26.9902 275.242C26.5215 275.242 26.1465 275.377 25.8652 275.646C25.5879 275.912 25.4492 276.266 25.4492 276.707H24.3652C24.3652 276.031 24.6113 275.471 25.1035 275.025C25.5996 274.576 26.2285 274.352 26.9902 274.352C27.7949 274.352 28.4258 274.564 28.8828 274.99C29.3398 275.416 29.5684 276.008 29.5684 276.766C29.5684 277.137 29.4473 277.496 29.2051 277.844C28.9668 278.191 28.6406 278.451 28.2266 278.623C28.6953 278.771 29.0566 279.018 29.3105 279.361C29.5684 279.705 29.6973 280.125 29.6973 280.621C29.6973 281.387 29.4473 281.994 28.9473 282.443C28.4473 282.893 27.7969 283.117 26.9961 283.117C26.1953 283.117 25.543 282.9 25.0391 282.467C24.5391 282.033 24.2891 281.461 24.2891 280.75H25.3789C25.3789 281.199 25.5254 281.559 25.8184 281.828C26.1113 282.098 26.5039 282.232 26.9961 282.232C27.5195 282.232 27.9199 282.096 28.1973 281.822C28.4746 281.549 28.6133 281.156 28.6133 280.645C28.6133 280.148 28.4609 279.768 28.1562 279.502C27.8516 279.236 27.4121 279.1 26.8379 279.092H26.0234V278.207Z" fill="#F7F8FA" fill-opacity="0.24"/>
<path d="M21.2715 355H20.1816V347.775L17.9961 348.578V347.594L21.1016 346.428H21.2715V355ZM29.9551 347.078L26.4219 355H25.2852L28.8066 347.359H24.1895V346.469H29.9551V347.078Z" fill="#F7F8FA" fill-opacity="0.24"/>
<path d="M23.2988 427H17.709V426.221L20.6621 422.939C21.0996 422.443 21.4004 422.041 21.5645 421.732C21.7324 421.42 21.8164 421.098 21.8164 420.766C21.8164 420.32 21.6816 419.955 21.4121 419.67C21.1426 419.385 20.7832 419.242 20.334 419.242C19.7949 419.242 19.375 419.396 19.0742 419.705C18.7773 420.01 18.6289 420.436 18.6289 420.982H17.5449C17.5449 420.197 17.7969 419.562 18.3008 419.078C18.8086 418.594 19.4863 418.352 20.334 418.352C21.127 418.352 21.7539 418.561 22.2148 418.979C22.6758 419.393 22.9062 419.945 22.9062 420.637C22.9062 421.477 22.3711 422.477 21.3008 423.637L19.0156 426.115H23.2988V427ZM28.0098 427H26.9199V419.775L24.7344 420.578V419.594L27.8398 418.428H28.0098V427Z" fill="#F7F8FA" fill-opacity="0.24"/>
<path d="M23.2988 499H17.709V498.221L20.6621 494.939C21.0996 494.443 21.4004 494.041 21.5645 493.732C21.7324 493.42 21.8164 493.098 21.8164 492.766C21.8164 492.32 21.6816 491.955 21.4121 491.67C21.1426 491.385 20.7832 491.242 20.334 491.242C19.7949 491.242 19.375 491.396 19.0742 491.705C18.7773 492.01 18.6289 492.436 18.6289 492.982H17.5449C17.5449 492.197 17.7969 491.562 18.3008 491.078C18.8086 490.594 19.4863 490.352 20.334 490.352C21.127 490.352 21.7539 490.561 22.2148 490.979C22.6758 491.393 22.9062 491.945 22.9062 492.637C22.9062 493.477 22.3711 494.477 21.3008 495.637L19.0156 498.115H23.2988V499ZM24.9453 494.723L25.3789 490.469H29.75V491.471H26.2988L26.041 493.797C26.459 493.551 26.9336 493.428 27.4648 493.428C28.2422 493.428 28.8594 493.686 29.3164 494.201C29.7734 494.713 30.002 495.406 30.002 496.281C30.002 497.16 29.7637 497.854 29.2871 498.361C28.8145 498.865 28.1523 499.117 27.3008 499.117C26.5469 499.117 25.9316 498.908 25.4551 498.49C24.9785 498.072 24.707 497.494 24.6406 496.756H25.666C25.7324 497.244 25.9062 497.613 26.1875 497.863C26.4688 498.109 26.8398 498.232 27.3008 498.232C27.8047 498.232 28.1992 498.061 28.4844 497.717C28.7734 497.373 28.918 496.898 28.918 496.293C28.918 495.723 28.7617 495.266 28.4492 494.922C28.1406 494.574 27.7285 494.4 27.2129 494.4C26.7402 494.4 26.3691 494.504 26.0996 494.711L25.8125 494.945L24.9453 494.723Z" fill="#F7F8FA" fill-opacity="0.24"/>
<path d="M19.2852 98.207H20.0996C20.6113 98.1992 21.0137 98.0645 21.3066 97.8027C21.5996 97.541 21.7461 97.1875 21.7461 96.7422C21.7461 95.7422 21.248 95.2422 20.252 95.2422C19.7832 95.2422 19.4082 95.377 19.127 95.6465C18.8496 95.9121 18.7109 96.2656 18.7109 96.707H17.627C17.627 96.0312 17.873 95.4707 18.3652 95.0254C18.8613 94.5762 19.4902 94.3516 20.252 94.3516C21.0566 94.3516 21.6875 94.5645 22.1445 94.9902C22.6016 95.416 22.8301 96.0078 22.8301 96.7656C22.8301 97.1367 22.709 97.4961 22.4668 97.8438C22.2285 98.1914 21.9023 98.4512 21.4883 98.623C21.957 98.7715 22.3184 99.0176 22.5723 99.3613C22.8301 99.7051 22.959 100.125 22.959 100.621C22.959 101.387 22.709 101.994 22.209 102.443C21.709 102.893 21.0586 103.117 20.2578 103.117C19.457 103.117 18.8047 102.9 18.3008 102.467C17.8008 102.033 17.5508 101.461 17.5508 100.75H18.6406C18.6406 101.199 18.7871 101.559 19.0801 101.828C19.373 102.098 19.7656 102.232 20.2578 102.232C20.7812 102.232 21.1816 102.096 21.459 101.822C21.7363 101.549 21.875 101.156 21.875 100.645C21.875 100.148 21.7227 99.7676 21.418 99.502C21.1133 99.2363 20.6738 99.0996 20.0996 99.0918H19.2852V98.207Z" fill="#F7F8FA" fill-opacity="0.24"/>
<path d="M21.2715 247H20.1816V239.775L17.9961 240.578V239.594L21.1016 238.428H21.2715V247ZM28.0098 247H26.9199V239.775L24.7344 240.578V239.594L27.8398 238.428H28.0098V247Z" fill="#F7F8FA" fill-opacity="0.24"/>
<path d="M21.2715 391H20.1816V383.775L17.9961 384.578V383.594L21.1016 382.428H21.2715V391ZM28.6016 387.25C28.375 387.52 28.1035 387.736 27.7871 387.9C27.4746 388.064 27.1309 388.146 26.7559 388.146C26.2637 388.146 25.834 388.025 25.4668 387.783C25.1035 387.541 24.8223 387.201 24.623 386.764C24.4238 386.322 24.3242 385.836 24.3242 385.305C24.3242 384.734 24.4316 384.221 24.6465 383.764C24.8652 383.307 25.1738 382.957 25.5723 382.715C25.9707 382.473 26.4355 382.352 26.9668 382.352C27.8105 382.352 28.4746 382.668 28.959 383.301C29.4473 383.93 29.6914 384.789 29.6914 385.879V386.195C29.6914 387.855 29.3633 389.068 28.707 389.834C28.0508 390.596 27.0605 390.986 25.7363 391.006H25.5254V390.092H25.7539C26.6484 390.076 27.3359 389.844 27.8164 389.395C28.2969 388.941 28.5586 388.227 28.6016 387.25ZM26.9316 387.25C27.2949 387.25 27.6289 387.139 27.9336 386.916C28.2422 386.693 28.4668 386.418 28.6074 386.09V385.656C28.6074 384.945 28.4531 384.367 28.1445 383.922C27.8359 383.477 27.4453 383.254 26.9727 383.254C26.4961 383.254 26.1133 383.438 25.8242 383.805C25.5352 384.168 25.3906 384.648 25.3906 385.246C25.3906 385.828 25.5293 386.309 25.8066 386.688C26.0879 387.062 26.4629 387.25 26.9316 387.25Z" fill="#F7F8FA" fill-opacity="0.24"/>
<path d="M23.2168 167.078L19.6836 175H18.5469L22.0684 167.359H17.4512V166.469H23.2168V167.078Z" fill="#F7F8FA" fill-opacity="0.24"/>
<path d="M23.2988 463H17.709V462.221L20.6621 458.939C21.0996 458.443 21.4004 458.041 21.5645 457.732C21.7324 457.42 21.8164 457.098 21.8164 456.766C21.8164 456.32 21.6816 455.955 21.4121 455.67C21.1426 455.385 20.7832 455.242 20.334 455.242C19.7949 455.242 19.375 455.396 19.0742 455.705C18.7773 456.01 18.6289 456.436 18.6289 456.982H17.5449C17.5449 456.197 17.7969 455.562 18.3008 455.078C18.8086 454.594 19.4863 454.352 20.334 454.352C21.127 454.352 21.7539 454.561 22.2148 454.979C22.6758 455.393 22.9062 455.945 22.9062 456.637C22.9062 457.477 22.3711 458.477 21.3008 459.637L19.0156 462.115H23.2988V463ZM26.0234 458.207H26.8379C27.3496 458.199 27.752 458.064 28.0449 457.803C28.3379 457.541 28.4844 457.188 28.4844 456.742C28.4844 455.742 27.9863 455.242 26.9902 455.242C26.5215 455.242 26.1465 455.377 25.8652 455.646C25.5879 455.912 25.4492 456.266 25.4492 456.707H24.3652C24.3652 456.031 24.6113 455.471 25.1035 455.025C25.5996 454.576 26.2285 454.352 26.9902 454.352C27.7949 454.352 28.4258 454.564 28.8828 454.99C29.3398 455.416 29.5684 456.008 29.5684 456.766C29.5684 457.137 29.4473 457.496 29.2051 457.844C28.9668 458.191 28.6406 458.451 28.2266 458.623C28.6953 458.771 29.0566 459.018 29.3105 459.361C29.5684 459.705 29.6973 460.125 29.6973 460.621C29.6973 461.387 29.4473 461.994 28.9473 462.443C28.4473 462.893 27.7969 463.117 26.9961 463.117C26.1953 463.117 25.543 462.9 25.0391 462.467C24.5391 462.033 24.2891 461.461 24.2891 460.75H25.3789C25.3789 461.199 25.5254 461.559 25.8184 461.828C26.1113 462.098 26.5039 462.232 26.9961 462.232C27.5195 462.232 27.9199 462.096 28.1973 461.822C28.4746 461.549 28.6133 461.156 28.6133 460.645C28.6133 460.148 28.4609 459.768 28.1562 459.502C27.8516 459.236 27.4121 459.1 26.8379 459.092H26.0234V458.207Z" fill="#F7F8FA" fill-opacity="0.24"/>
<path d="M21.2715 319H20.1816V311.775L17.9961 312.578V311.594L21.1016 310.428H21.2715V319ZM24.9453 314.723L25.3789 310.469H29.75V311.471H26.2988L26.041 313.797C26.459 313.551 26.9336 313.428 27.4648 313.428C28.2422 313.428 28.8594 313.686 29.3164 314.201C29.7734 314.713 30.002 315.406 30.002 316.281C30.002 317.16 29.7637 317.854 29.2871 318.361C28.8145 318.865 28.1523 319.117 27.3008 319.117C26.5469 319.117 25.9316 318.908 25.4551 318.49C24.9785 318.072 24.707 317.494 24.6406 316.756H25.666C25.7324 317.244 25.9062 317.613 26.1875 317.863C26.4688 318.109 26.8398 318.232 27.3008 318.232C27.8047 318.232 28.1992 318.061 28.4844 317.717C28.7734 317.373 28.918 316.898 28.918 316.293C28.918 315.723 28.7617 315.266 28.4492 314.922C28.1406 314.574 27.7285 314.4 27.2129 314.4C26.7402 314.4 26.3691 314.504 26.0996 314.711L25.8125 314.945L24.9453 314.723Z" fill="#F7F8FA" fill-opacity="0.24"/>
<path d="M48.3633 68.2324C48.75 68.2324 49.0879 68.1152 49.377 67.8809C49.666 67.6465 49.8262 67.3535 49.8574 67.002H50.8828C50.8633 67.3652 50.7383 67.7109 50.5078 68.0391C50.2773 68.3672 49.9688 68.6289 49.582 68.8242C49.1992 69.0195 48.793 69.1172 48.3633 69.1172C47.5 69.1172 46.8125 68.8301 46.3008 68.2559C45.793 67.6777 45.5391 66.8887 45.5391 65.8887V65.707C45.5391 65.0898 45.6523 64.541 45.8789 64.0605C46.1055 63.5801 46.4297 63.207 46.8516 62.9414C47.2773 62.6758 47.7793 62.543 48.3574 62.543C49.0684 62.543 49.6582 62.7559 50.127 63.1816C50.5996 63.6074 50.8516 64.1602 50.8828 64.8398H49.8574C49.8262 64.4297 49.6699 64.0938 49.3887 63.832C49.1113 63.5664 48.7676 63.4336 48.3574 63.4336C47.8066 63.4336 47.3789 63.6328 47.0742 64.0312C46.7734 64.4258 46.623 64.998 46.623 65.748V65.9531C46.623 66.6836 46.7734 67.2461 47.0742 67.6406C47.375 68.0352 47.8047 68.2324 48.3633 68.2324ZM55.166 63.6328C55.002 63.6055 54.8242 63.5918 54.6328 63.5918C53.9219 63.5918 53.4395 63.8945 53.1855 64.5V69H52.1016V62.6602H53.1562L53.1738 63.3926C53.5293 62.8262 54.0332 62.543 54.6855 62.543C54.8965 62.543 55.0566 62.5703 55.166 62.625V63.6328ZM58.6816 69.1172C57.8223 69.1172 57.123 68.8359 56.584 68.2734C56.0449 67.707 55.7754 66.9512 55.7754 66.0059V65.8066C55.7754 65.1777 55.8945 64.6172 56.1328 64.125C56.375 63.6289 56.7109 63.2422 57.1406 62.9648C57.5742 62.6836 58.043 62.543 58.5469 62.543C59.3711 62.543 60.0117 62.8145 60.4688 63.3574C60.9258 63.9004 61.1543 64.6777 61.1543 65.6895V66.1406H56.8594C56.875 66.7656 57.0566 67.2715 57.4043 67.6582C57.7559 68.041 58.2012 68.2324 58.7402 68.2324C59.123 68.2324 59.4473 68.1543 59.7129 67.998C59.9785 67.8418 60.2109 67.6348 60.4102 67.377L61.0723 67.8926C60.541 68.709 59.7441 69.1172 58.6816 69.1172ZM58.5469 63.4336C58.1094 63.4336 57.7422 63.5938 57.4453 63.9141C57.1484 64.2305 56.9648 64.6758 56.8945 65.25H60.0703V65.168C60.0391 64.6172 59.8906 64.1914 59.625 63.8906C59.3594 63.5859 59 63.4336 58.5469 63.4336ZM66.3281 69C66.2656 68.875 66.2148 68.6523 66.1758 68.332C65.6719 68.8555 65.0703 69.1172 64.3711 69.1172C63.7461 69.1172 63.2324 68.9414 62.8301 68.5898C62.4316 68.2344 62.2324 67.7852 62.2324 67.2422C62.2324 66.582 62.4824 66.0703 62.9824 65.707C63.4863 65.3398 64.1934 65.1562 65.1035 65.1562H66.1582V64.6582C66.1582 64.2793 66.0449 63.9785 65.8184 63.7559C65.5918 63.5293 65.2578 63.416 64.8164 63.416C64.4297 63.416 64.1055 63.5137 63.8438 63.709C63.582 63.9043 63.4512 64.1406 63.4512 64.418H62.3613C62.3613 64.1016 62.4727 63.7969 62.6953 63.5039C62.9219 63.207 63.2266 62.9727 63.6094 62.8008C63.9961 62.6289 64.4199 62.543 64.8809 62.543C65.6113 62.543 66.1836 62.7266 66.5977 63.0938C67.0117 63.457 67.2266 63.959 67.2422 64.5996V67.5176C67.2422 68.0996 67.3164 68.5625 67.4648 68.9062V69H66.3281ZM64.5293 68.1738C64.8691 68.1738 65.1914 68.0859 65.4961 67.9102C65.8008 67.7344 66.0215 67.5059 66.1582 67.2246V65.9238H65.3086C63.9805 65.9238 63.3164 66.3125 63.3164 67.0898C63.3164 67.4297 63.4297 67.6953 63.6562 67.8867C63.8828 68.0781 64.1738 68.1738 64.5293 68.1738ZM70.4121 61.125V62.6602H71.5957V63.498H70.4121V67.4297C70.4121 67.6836 70.4648 67.875 70.5703 68.0039C70.6758 68.1289 70.8555 68.1914 71.1094 68.1914C71.2344 68.1914 71.4062 68.168 71.625 68.1211V69C71.3398 69.0781 71.0625 69.1172 70.793 69.1172C70.3086 69.1172 69.9434 68.9707 69.6973 68.6777C69.4512 68.3848 69.3281 67.9688 69.3281 67.4297V63.498H68.1738V62.6602H69.3281V61.125H70.4121ZM75.498 69.1172C74.6387 69.1172 73.9395 68.8359 73.4004 68.2734C72.8613 67.707 72.5918 66.9512 72.5918 66.0059V65.8066C72.5918 65.1777 72.7109 64.6172 72.9492 64.125C73.1914 63.6289 73.5273 63.2422 73.957 62.9648C74.3906 62.6836 74.8594 62.543 75.3633 62.543C76.1875 62.543 76.8281 62.8145 77.2852 63.3574C77.7422 63.9004 77.9707 64.6777 77.9707 65.6895V66.1406H73.6758C73.6914 66.7656 73.873 67.2715 74.2207 67.6582C74.5723 68.041 75.0176 68.2324 75.5566 68.2324C75.9395 68.2324 76.2637 68.1543 76.5293 67.998C76.7949 67.8418 77.0273 67.6348 77.2266 67.377L77.8887 67.8926C77.3574 68.709 76.5605 69.1172 75.498 69.1172ZM75.3633 63.4336C74.9258 63.4336 74.5586 63.5938 74.2617 63.9141C73.9648 64.2305 73.7812 64.6758 73.7109 65.25H76.8867V65.168C76.8555 64.6172 76.707 64.1914 76.4414 63.8906C76.1758 63.5859 75.8164 63.4336 75.3633 63.4336ZM84.2227 65.0566H80.5254V68.0801H84.8203V69H79.4004V60.4688H84.7617V61.3945H80.5254V64.1367H84.2227V65.0566ZM87.9902 67.5293L89.5605 62.6602H90.668L88.3945 69H87.5684L85.2715 62.6602H86.3789L87.9902 67.5293ZM94.2598 69.1172C93.4004 69.1172 92.7012 68.8359 92.1621 68.2734C91.623 67.707 91.3535 66.9512 91.3535 66.0059V65.8066C91.3535 65.1777 91.4727 64.6172 91.7109 64.125C91.9531 63.6289 92.2891 63.2422 92.7188 62.9648C93.1523 62.6836 93.6211 62.543 94.125 62.543C94.9492 62.543 95.5898 62.8145 96.0469 63.3574C96.5039 63.9004 96.7324 64.6777 96.7324 65.6895V66.1406H92.4375C92.4531 66.7656 92.6348 67.2715 92.9824 67.6582C93.334 68.041 93.7793 68.2324 94.3184 68.2324C94.7012 68.2324 95.0254 68.1543 95.291 67.998C95.5566 67.8418 95.7891 67.6348 95.9883 67.377L96.6504 67.8926C96.1191 68.709 95.3223 69.1172 94.2598 69.1172ZM94.125 63.4336C93.6875 63.4336 93.3203 63.5938 93.0234 63.9141C92.7266 64.2305 92.543 64.6758 92.4727 65.25H95.6484V65.168C95.6172 64.6172 95.4688 64.1914 95.2031 63.8906C94.9375 63.5859 94.5781 63.4336 94.125 63.4336ZM99.0176 62.6602L99.0527 63.457C99.5371 62.8477 100.17 62.543 100.951 62.543C102.291 62.543 102.967 63.2988 102.979 64.8105V69H101.895V64.8047C101.891 64.3477 101.785 64.0098 101.578 63.791C101.375 63.5723 101.057 63.4629 100.623 63.4629C100.271 63.4629 99.9629 63.5566 99.6973 63.7441C99.4316 63.9316 99.2246 64.1777 99.0762 64.4824V69H97.9922V62.6602H99.0176ZM106.084 61.125V62.6602H107.268V63.498H106.084V67.4297C106.084 67.6836 106.137 67.875 106.242 68.0039C106.348 68.1289 106.527 68.1914 106.781 68.1914C106.906 68.1914 107.078 68.168 107.297 68.1211V69C107.012 69.0781 106.734 69.1172 106.465 69.1172C105.98 69.1172 105.615 68.9707 105.369 68.6777C105.123 68.3848 105 67.9688 105 67.4297V63.498H103.846V62.6602H105V61.125H106.084ZM108.498 65.5371C108.498 64.6543 108.615 63.8066 108.85 62.9941C109.088 62.1816 109.441 61.4434 109.91 60.7793C110.379 60.1152 110.865 59.6465 111.369 59.373L111.592 60.0879C111.021 60.5254 110.553 61.1934 110.186 62.0918C109.822 62.9902 109.623 63.9961 109.588 65.1094L109.582 65.6074C109.582 67.1152 109.857 68.4238 110.408 69.5332C110.74 70.1973 111.135 70.7168 111.592 71.0918L111.369 71.7539C110.85 71.4648 110.354 70.9805 109.881 70.3008C108.959 68.9727 108.498 67.3848 108.498 65.5371ZM115.184 68.2324C115.57 68.2324 115.908 68.1152 116.197 67.8809C116.486 67.6465 116.646 67.3535 116.678 67.002H117.703C117.684 67.3652 117.559 67.7109 117.328 68.0391C117.098 68.3672 116.789 68.6289 116.402 68.8242C116.02 69.0195 115.613 69.1172 115.184 69.1172C114.32 69.1172 113.633 68.8301 113.121 68.2559C112.613 67.6777 112.359 66.8887 112.359 65.8887V65.707C112.359 65.0898 112.473 64.541 112.699 64.0605C112.926 63.5801 113.25 63.207 113.672 62.9414C114.098 62.6758 114.6 62.543 115.178 62.543C115.889 62.543 116.479 62.7559 116.947 63.1816C117.42 63.6074 117.672 64.1602 117.703 64.8398H116.678C116.646 64.4297 116.49 64.0938 116.209 63.832C115.932 63.5664 115.588 63.4336 115.178 63.4336C114.627 63.4336 114.199 63.6328 113.895 64.0312C113.594 64.4258 113.443 64.998 113.443 65.748V65.9531C113.443 66.6836 113.594 67.2461 113.895 67.6406C114.195 68.0352 114.625 68.2324 115.184 68.2324ZM122.836 68.373C122.414 68.8691 121.795 69.1172 120.979 69.1172C120.303 69.1172 119.787 68.9219 119.432 68.5312C119.08 68.1367 118.902 67.5547 118.898 66.7852V62.6602H119.982V66.7559C119.982 67.7168 120.373 68.1973 121.154 68.1973C121.982 68.1973 122.533 67.8887 122.807 67.2715V62.6602H123.891V69H122.859L122.836 68.373ZM129.234 67.3184C129.234 67.0254 129.123 66.7988 128.9 66.6387C128.682 66.4746 128.297 66.334 127.746 66.2168C127.199 66.0996 126.764 65.959 126.439 65.7949C126.119 65.6309 125.881 65.4355 125.725 65.209C125.572 64.9824 125.496 64.7129 125.496 64.4004C125.496 63.8809 125.715 63.4414 126.152 63.082C126.594 62.7227 127.156 62.543 127.84 62.543C128.559 62.543 129.141 62.7285 129.586 63.0996C130.035 63.4707 130.26 63.9453 130.26 64.5234H129.17C129.17 64.2266 129.043 63.9707 128.789 63.7559C128.539 63.541 128.223 63.4336 127.84 63.4336C127.445 63.4336 127.137 63.5195 126.914 63.6914C126.691 63.8633 126.58 64.0879 126.58 64.3652C126.58 64.627 126.684 64.8242 126.891 64.957C127.098 65.0898 127.471 65.2168 128.01 65.3379C128.553 65.459 128.992 65.6035 129.328 65.7715C129.664 65.9395 129.912 66.1426 130.072 66.3809C130.236 66.6152 130.318 66.9023 130.318 67.2422C130.318 67.8086 130.092 68.2637 129.639 68.6074C129.186 68.9473 128.598 69.1172 127.875 69.1172C127.367 69.1172 126.918 69.0273 126.527 68.8477C126.137 68.668 125.83 68.418 125.607 68.0977C125.389 67.7734 125.279 67.4238 125.279 67.0488H126.363C126.383 67.4121 126.527 67.7012 126.797 67.916C127.07 68.127 127.43 68.2324 127.875 68.2324C128.285 68.2324 128.613 68.1504 128.859 67.9863C129.109 67.8184 129.234 67.5957 129.234 67.3184ZM133.201 61.125V62.6602H134.385V63.498H133.201V67.4297C133.201 67.6836 133.254 67.875 133.359 68.0039C133.465 68.1289 133.645 68.1914 133.898 68.1914C134.023 68.1914 134.195 68.168 134.414 68.1211V69C134.129 69.0781 133.852 69.1172 133.582 69.1172C133.098 69.1172 132.732 68.9707 132.486 68.6777C132.24 68.3848 132.117 67.9688 132.117 67.4297V63.498H130.963V62.6602H132.117V61.125H133.201ZM135.252 65.7715C135.252 65.1504 135.373 64.5918 135.615 64.0957C135.861 63.5996 136.201 63.2168 136.635 62.9473C137.072 62.6777 137.57 62.543 138.129 62.543C138.992 62.543 139.689 62.8418 140.221 63.4395C140.756 64.0371 141.023 64.832 141.023 65.8242V65.9004C141.023 66.5176 140.904 67.0723 140.666 67.5645C140.432 68.0527 140.094 68.4336 139.652 68.707C139.215 68.9805 138.711 69.1172 138.141 69.1172C137.281 69.1172 136.584 68.8184 136.049 68.2207C135.518 67.623 135.252 66.832 135.252 65.8477V65.7715ZM136.342 65.9004C136.342 66.6035 136.504 67.168 136.828 67.5938C137.156 68.0195 137.594 68.2324 138.141 68.2324C138.691 68.2324 139.129 68.0176 139.453 67.5879C139.777 67.1543 139.939 66.5488 139.939 65.7715C139.939 65.0762 139.773 64.5137 139.441 64.084C139.113 63.6504 138.676 63.4336 138.129 63.4336C137.594 63.4336 137.162 63.6465 136.834 64.0723C136.506 64.498 136.342 65.1074 136.342 65.9004ZM143.402 62.6602L143.432 63.3633C143.896 62.8164 144.523 62.543 145.312 62.543C146.199 62.543 146.803 62.8828 147.123 63.5625C147.334 63.2578 147.607 63.0117 147.943 62.8242C148.283 62.6367 148.684 62.543 149.145 62.543C150.535 62.543 151.242 63.2793 151.266 64.752V69H150.182V64.8164C150.182 64.3633 150.078 64.0254 149.871 63.8027C149.664 63.5762 149.316 63.4629 148.828 63.4629C148.426 63.4629 148.092 63.584 147.826 63.8262C147.561 64.0645 147.406 64.3867 147.363 64.793V69H146.273V64.8457C146.273 63.9238 145.822 63.4629 144.92 63.4629C144.209 63.4629 143.723 63.7656 143.461 64.3711V69H142.377V62.6602H143.402ZM155.537 69.1172C154.678 69.1172 153.979 68.8359 153.439 68.2734C152.9 67.707 152.631 66.9512 152.631 66.0059V65.8066C152.631 65.1777 152.75 64.6172 152.988 64.125C153.23 63.6289 153.566 63.2422 153.996 62.9648C154.43 62.6836 154.898 62.543 155.402 62.543C156.227 62.543 156.867 62.8145 157.324 63.3574C157.781 63.9004 158.01 64.6777 158.01 65.6895V66.1406H153.715C153.73 66.7656 153.912 67.2715 154.26 67.6582C154.611 68.041 155.057 68.2324 155.596 68.2324C155.979 68.2324 156.303 68.1543 156.568 67.998C156.834 67.8418 157.066 67.6348 157.266 67.377L157.928 67.8926C157.396 68.709 156.6 69.1172 155.537 69.1172ZM155.402 63.4336C154.965 63.4336 154.598 63.5938 154.301 63.9141C154.004 64.2305 153.82 64.6758 153.75 65.25H156.926V65.168C156.895 64.6172 156.746 64.1914 156.48 63.8906C156.215 63.5859 155.855 63.4336 155.402 63.4336ZM162.334 63.6328C162.17 63.6055 161.992 63.5918 161.801 63.5918C161.09 63.5918 160.607 63.8945 160.354 64.5V69H159.27V62.6602H160.324L160.342 63.3926C160.697 62.8262 161.201 62.543 161.854 62.543C162.064 62.543 162.225 62.5703 162.334 62.625V63.6328ZM164.713 69H163.588V60.4688H164.713V69ZM166.342 65.7773C166.342 64.8047 166.572 64.0234 167.033 63.4336C167.494 62.8398 168.098 62.543 168.844 62.543C169.586 62.543 170.174 62.7969 170.607 63.3047V60H171.691V69H170.695L170.643 68.3203C170.209 68.8516 169.605 69.1172 168.832 69.1172C168.098 69.1172 167.498 68.8164 167.033 68.2148C166.572 67.6133 166.342 66.8281 166.342 65.8594V65.7773ZM167.426 65.9004C167.426 66.6191 167.574 67.1816 167.871 67.5879C168.168 67.9941 168.578 68.1973 169.102 68.1973C169.789 68.1973 170.291 67.8887 170.607 67.2715V64.3594C170.283 63.7617 169.785 63.4629 169.113 63.4629C168.582 63.4629 168.168 63.668 167.871 64.0781C167.574 64.4883 167.426 65.0957 167.426 65.9004ZM173.344 68.4316C173.344 68.2441 173.398 68.0879 173.508 67.9629C173.621 67.8379 173.789 67.7754 174.012 67.7754C174.234 67.7754 174.402 67.8379 174.516 67.9629C174.633 68.0879 174.691 68.2441 174.691 68.4316C174.691 68.6113 174.633 68.7617 174.516 68.8828C174.402 69.0039 174.234 69.0645 174.012 69.0645C173.789 69.0645 173.621 69.0039 173.508 68.8828C173.398 68.7617 173.344 68.6113 173.344 68.4316ZM173.35 63.2578C173.35 63.0703 173.404 62.9141 173.514 62.7891C173.627 62.6641 173.795 62.6016 174.018 62.6016C174.24 62.6016 174.408 62.6641 174.521 62.7891C174.639 62.9141 174.697 63.0703 174.697 63.2578C174.697 63.4375 174.639 63.5879 174.521 63.709C174.408 63.8301 174.24 63.8906 174.018 63.8906C173.795 63.8906 173.627 63.8301 173.514 63.709C173.404 63.5879 173.35 63.4375 173.35 63.2578ZM179.924 60.6504L179.801 62.8066H179.045L179.051 60H179.924V60.6504ZM183.551 68.2324C183.938 68.2324 184.275 68.1152 184.564 67.8809C184.854 67.6465 185.014 67.3535 185.045 67.002H186.07C186.051 67.3652 185.926 67.7109 185.695 68.0391C185.465 68.3672 185.156 68.6289 184.77 68.8242C184.387 69.0195 183.98 69.1172 183.551 69.1172C182.688 69.1172 182 68.8301 181.488 68.2559C180.98 67.6777 180.727 66.8887 180.727 65.8887V65.707C180.727 65.0898 180.84 64.541 181.066 64.0605C181.293 63.5801 181.617 63.207 182.039 62.9414C182.465 62.6758 182.967 62.543 183.545 62.543C184.256 62.543 184.846 62.7559 185.314 63.1816C185.787 63.6074 186.039 64.1602 186.07 64.8398H185.045C185.014 64.4297 184.857 64.0938 184.576 63.832C184.299 63.5664 183.955 63.4336 183.545 63.4336C182.994 63.4336 182.566 63.6328 182.262 64.0312C181.961 64.4258 181.811 64.998 181.811 65.748V65.9531C181.811 66.6836 181.961 67.2461 182.262 67.6406C182.562 68.0352 182.992 68.2324 183.551 68.2324ZM191.859 69.8848H186.492V69H191.859V69.8848ZM196.154 69H195.064V61.7754L192.879 62.5781V61.5938L195.984 60.4277H196.154V69ZM204.92 69H199.33V68.2207L202.283 64.9395C202.721 64.4434 203.021 64.041 203.186 63.7324C203.354 63.4199 203.438 63.0977 203.438 62.7656C203.438 62.3203 203.303 61.9551 203.033 61.6699C202.764 61.3848 202.404 61.2422 201.955 61.2422C201.416 61.2422 200.996 61.3965 200.695 61.7051C200.398 62.0098 200.25 62.4355 200.25 62.9824H199.166C199.166 62.1973 199.418 61.5625 199.922 61.0781C200.43 60.5938 201.107 60.3516 201.955 60.3516C202.748 60.3516 203.375 60.5605 203.836 60.9785C204.297 61.3926 204.527 61.9453 204.527 62.6367C204.527 63.4766 203.992 64.4766 202.922 65.6367L200.637 68.1152H204.92V69ZM207.645 64.207H208.459C208.971 64.1992 209.373 64.0645 209.666 63.8027C209.959 63.541 210.105 63.1875 210.105 62.7422C210.105 61.7422 209.607 61.2422 208.611 61.2422C208.143 61.2422 207.768 61.377 207.486 61.6465C207.209 61.9121 207.07 62.2656 207.07 62.707H205.986C205.986 62.0312 206.232 61.4707 206.725 61.0254C207.221 60.5762 207.85 60.3516 208.611 60.3516C209.416 60.3516 210.047 60.5645 210.504 60.9902C210.961 61.416 211.189 62.0078 211.189 62.7656C211.189 63.1367 211.068 63.4961 210.826 63.8438C210.588 64.1914 210.262 64.4512 209.848 64.623C210.316 64.7715 210.678 65.0176 210.932 65.3613C211.189 65.7051 211.318 66.125 211.318 66.6211C211.318 67.3867 211.068 67.9941 210.568 68.4434C210.068 68.8926 209.418 69.1172 208.617 69.1172C207.816 69.1172 207.164 68.9004 206.66 68.4668C206.16 68.0332 205.91 67.4609 205.91 66.75H207C207 67.1992 207.146 67.5586 207.439 67.8281C207.732 68.0977 208.125 68.2324 208.617 68.2324C209.141 68.2324 209.541 68.0957 209.818 67.8223C210.096 67.5488 210.234 67.1562 210.234 66.6445C210.234 66.1484 210.082 65.7676 209.777 65.502C209.473 65.2363 209.033 65.0996 208.459 65.0918H207.645V64.207ZM213.58 60.6504L213.457 62.8066H212.701L212.707 60H213.58V60.6504ZM214.98 70.6992L214.365 70.2773C214.732 69.7656 214.924 69.2383 214.939 68.6953V67.7168H216V68.5664C216 68.9609 215.902 69.3555 215.707 69.75C215.516 70.1445 215.273 70.4609 214.98 70.6992ZM225.715 65.9004C225.715 66.8691 225.492 67.6484 225.047 68.2383C224.602 68.8242 224.004 69.1172 223.254 69.1172C222.453 69.1172 221.834 68.834 221.396 68.2676L221.344 69H220.348V60H221.432V63.3574C221.869 62.8145 222.473 62.543 223.242 62.543C224.012 62.543 224.615 62.834 225.053 63.416C225.494 63.998 225.715 64.7949 225.715 65.8066V65.9004ZM224.631 65.7773C224.631 65.0391 224.488 64.4688 224.203 64.0664C223.918 63.6641 223.508 63.4629 222.973 63.4629C222.258 63.4629 221.744 63.7949 221.432 64.459V67.2012C221.764 67.8652 222.281 68.1973 222.984 68.1973C223.504 68.1973 223.908 67.9961 224.197 67.5938C224.486 67.1914 224.631 66.5859 224.631 65.7773ZM228.264 69H227.18V60H228.264V69ZM229.717 65.7715C229.717 65.1504 229.838 64.5918 230.08 64.0957C230.326 63.5996 230.666 63.2168 231.1 62.9473C231.537 62.6777 232.035 62.543 232.594 62.543C233.457 62.543 234.154 62.8418 234.686 63.4395C235.221 64.0371 235.488 64.832 235.488 65.8242V65.9004C235.488 66.5176 235.369 67.0723 235.131 67.5645C234.896 68.0527 234.559 68.4336 234.117 68.707C233.68 68.9805 233.176 69.1172 232.605 69.1172C231.746 69.1172 231.049 68.8184 230.514 68.2207C229.982 67.623 229.717 66.832 229.717 65.8477V65.7715ZM230.807 65.9004C230.807 66.6035 230.969 67.168 231.293 67.5938C231.621 68.0195 232.059 68.2324 232.605 68.2324C233.156 68.2324 233.594 68.0176 233.918 67.5879C234.242 67.1543 234.404 66.5488 234.404 65.7715C234.404 65.0762 234.238 64.5137 233.906 64.084C233.578 63.6504 233.141 63.4336 232.594 63.4336C232.059 63.4336 231.627 63.6465 231.299 64.0723C230.971 64.498 230.807 65.1074 230.807 65.9004ZM239.391 68.2324C239.777 68.2324 240.115 68.1152 240.404 67.8809C240.693 67.6465 240.854 67.3535 240.885 67.002H241.91C241.891 67.3652 241.766 67.7109 241.535 68.0391C241.305 68.3672 240.996 68.6289 240.609 68.8242C240.227 69.0195 239.82 69.1172 239.391 69.1172C238.527 69.1172 237.84 68.8301 237.328 68.2559C236.82 67.6777 236.566 66.8887 236.566 65.8887V65.707C236.566 65.0898 236.68 64.541 236.906 64.0605C237.133 63.5801 237.457 63.207 237.879 62.9414C238.305 62.6758 238.807 62.543 239.385 62.543C240.096 62.543 240.686 62.7559 241.154 63.1816C241.627 63.6074 241.879 64.1602 241.91 64.8398H240.885C240.854 64.4297 240.697 64.0938 240.416 63.832C240.139 63.5664 239.795 63.4336 239.385 63.4336C238.834 63.4336 238.406 63.6328 238.102 64.0312C237.801 64.4258 237.65 64.998 237.65 65.748V65.9531C237.65 66.6836 237.801 67.2461 238.102 67.6406C238.402 68.0352 238.832 68.2324 239.391 68.2324ZM244.898 66.0645L244.219 66.7734V69H243.135V60H244.219V65.4434L244.799 64.7461L246.773 62.6602H248.092L245.625 65.3086L248.379 69H247.107L244.898 66.0645ZM252.902 67.3184C252.902 67.0254 252.791 66.7988 252.568 66.6387C252.35 66.4746 251.965 66.334 251.414 66.2168C250.867 66.0996 250.432 65.959 250.107 65.7949C249.787 65.6309 249.549 65.4355 249.393 65.209C249.24 64.9824 249.164 64.7129 249.164 64.4004C249.164 63.8809 249.383 63.4414 249.82 63.082C250.262 62.7227 250.824 62.543 251.508 62.543C252.227 62.543 252.809 62.7285 253.254 63.0996C253.703 63.4707 253.928 63.9453 253.928 64.5234H252.838C252.838 64.2266 252.711 63.9707 252.457 63.7559C252.207 63.541 251.891 63.4336 251.508 63.4336C251.113 63.4336 250.805 63.5195 250.582 63.6914C250.359 63.8633 250.248 64.0879 250.248 64.3652C250.248 64.627 250.352 64.8242 250.559 64.957C250.766 65.0898 251.139 65.2168 251.678 65.3379C252.221 65.459 252.66 65.6035 252.996 65.7715C253.332 65.9395 253.58 66.1426 253.74 66.3809C253.904 66.6152 253.986 66.9023 253.986 67.2422C253.986 67.8086 253.76 68.2637 253.307 68.6074C252.854 68.9473 252.266 69.1172 251.543 69.1172C251.035 69.1172 250.586 69.0273 250.195 68.8477C249.805 68.668 249.498 68.418 249.275 68.0977C249.057 67.7734 248.947 67.4238 248.947 67.0488H250.031C250.051 67.4121 250.195 67.7012 250.465 67.916C250.738 68.127 251.098 68.2324 251.543 68.2324C251.953 68.2324 252.281 68.1504 252.527 67.9863C252.777 67.8184 252.902 67.5957 252.902 67.3184ZM255.363 68.4316C255.363 68.2441 255.418 68.0879 255.527 67.9629C255.641 67.8379 255.809 67.7754 256.031 67.7754C256.254 67.7754 256.422 67.8379 256.535 67.9629C256.652 68.0879 256.711 68.2441 256.711 68.4316C256.711 68.6113 256.652 68.7617 256.535 68.8828C256.422 69.0039 256.254 69.0645 256.031 69.0645C255.809 69.0645 255.641 69.0039 255.527 68.8828C255.418 68.7617 255.363 68.6113 255.363 68.4316ZM255.369 63.2578C255.369 63.0703 255.424 62.9141 255.533 62.7891C255.646 62.6641 255.814 62.6016 256.037 62.6016C256.26 62.6016 256.428 62.6641 256.541 62.7891C256.658 62.9141 256.717 63.0703 256.717 63.2578C256.717 63.4375 256.658 63.5879 256.541 63.709C256.428 63.8301 256.26 63.8906 256.037 63.8906C255.814 63.8906 255.646 63.8301 255.533 63.709C255.424 63.5879 255.369 63.4375 255.369 63.2578ZM264.164 71.1445C263.473 70.9492 262.951 70.627 262.6 70.1777C262.252 69.7324 262.078 69.1426 262.078 68.4082V67.2422C262.078 66.293 261.664 65.8184 260.836 65.8184V64.9688C261.664 64.9688 262.078 64.4961 262.078 63.5508V62.332C262.086 61.6172 262.26 61.041 262.6 60.6035C262.943 60.1621 263.465 59.8418 264.164 59.6426L264.387 60.3164C263.57 60.5781 263.162 61.2598 263.162 62.3613V63.5449C263.162 64.4316 262.836 65.0488 262.184 65.3965C262.836 65.748 263.162 66.3711 263.162 67.2656V68.4727C263.174 69.5469 263.582 70.2129 264.387 70.4707L264.164 71.1445ZM265.371 68.4316C265.371 68.2441 265.426 68.0879 265.535 67.9629C265.648 67.8379 265.816 67.7754 266.039 67.7754C266.262 67.7754 266.43 67.8379 266.543 67.9629C266.66 68.0879 266.719 68.2441 266.719 68.4316C266.719 68.6113 266.66 68.7617 266.543 68.8828C266.43 69.0039 266.262 69.0645 266.039 69.0645C265.816 69.0645 265.648 69.0039 265.535 68.8828C265.426 68.7617 265.371 68.6113 265.371 68.4316ZM268.535 68.4316C268.535 68.2441 268.59 68.0879 268.699 67.9629C268.812 67.8379 268.98 67.7754 269.203 67.7754C269.426 67.7754 269.594 67.8379 269.707 67.9629C269.824 68.0879 269.883 68.2441 269.883 68.4316C269.883 68.6113 269.824 68.7617 269.707 68.8828C269.594 69.0039 269.426 69.0645 269.203 69.0645C268.98 69.0645 268.812 69.0039 268.699 68.8828C268.59 68.7617 268.535 68.6113 268.535 68.4316ZM271.699 68.4316C271.699 68.2441 271.754 68.0879 271.863 67.9629C271.977 67.8379 272.145 67.7754 272.367 67.7754C272.59 67.7754 272.758 67.8379 272.871 67.9629C272.988 68.0879 273.047 68.2441 273.047 68.4316C273.047 68.6113 272.988 68.7617 272.871 68.8828C272.758 69.0039 272.59 69.0645 272.367 69.0645C272.145 69.0645 271.977 69.0039 271.863 68.8828C271.754 68.7617 271.699 68.6113 271.699 68.4316ZM274.131 70.4707C274.924 70.2168 275.334 69.5703 275.361 68.5312V67.2422C275.361 66.3398 275.715 65.7246 276.422 65.3965C275.715 65.0762 275.361 64.4609 275.361 63.5508V62.3613C275.361 61.2598 274.953 60.5781 274.137 60.3164L274.359 59.6426C275.051 59.8379 275.57 60.1562 275.918 60.5977C276.266 61.0352 276.441 61.6152 276.445 62.3379V63.5684C276.445 64.502 276.859 64.9688 277.688 64.9688V65.8184C276.859 65.8184 276.445 66.293 276.445 67.2422V68.4258C276.445 69.1602 276.268 69.748 275.912 70.1895C275.561 70.6309 275.043 70.9492 274.359 71.1445L274.131 70.4707ZM281.408 65.5957C281.408 66.4668 281.293 67.3027 281.062 68.1035C280.836 68.9004 280.486 69.6367 280.014 70.3125C279.545 70.9883 279.053 71.4688 278.537 71.7539L278.309 71.0918C278.91 70.6309 279.393 69.916 279.756 68.9473C280.123 67.9746 280.311 66.8965 280.318 65.7129V65.5254C280.318 64.7051 280.232 63.9434 280.061 63.2402C279.889 62.5332 279.648 61.9004 279.34 61.3418C279.035 60.7832 278.691 60.3477 278.309 60.0352L278.537 59.373C279.053 59.6582 279.543 60.1348 280.008 60.8027C280.477 61.4707 280.826 62.207 281.057 63.0117C281.291 63.8164 281.408 64.6777 281.408 65.5957ZM288.938 71.1445C288.246 70.9492 287.725 70.627 287.373 70.1777C287.025 69.7324 286.852 69.1426 286.852 68.4082V67.2422C286.852 66.293 286.438 65.8184 285.609 65.8184V64.9688C286.438 64.9688 286.852 64.4961 286.852 63.5508V62.332C286.859 61.6172 287.033 61.041 287.373 60.6035C287.717 60.1621 288.238 59.8418 288.938 59.6426L289.16 60.3164C288.344 60.5781 287.936 61.2598 287.936 62.3613V63.5449C287.936 64.4316 287.609 65.0488 286.957 65.3965C287.609 65.748 287.936 66.3711 287.936 67.2656V68.4727C287.947 69.5469 288.355 70.2129 289.16 70.4707L288.938 71.1445ZM295.729 69.1172C294.869 69.1172 294.17 68.8359 293.631 68.2734C293.092 67.707 292.822 66.9512 292.822 66.0059V65.8066C292.822 65.1777 292.941 64.6172 293.18 64.125C293.422 63.6289 293.758 63.2422 294.188 62.9648C294.621 62.6836 295.09 62.543 295.594 62.543C296.418 62.543 297.059 62.8145 297.516 63.3574C297.973 63.9004 298.201 64.6777 298.201 65.6895V66.1406H293.906C293.922 66.7656 294.104 67.2715 294.451 67.6582C294.803 68.041 295.248 68.2324 295.787 68.2324C296.17 68.2324 296.494 68.1543 296.76 67.998C297.025 67.8418 297.258 67.6348 297.457 67.377L298.119 67.8926C297.588 68.709 296.791 69.1172 295.729 69.1172ZM295.594 63.4336C295.156 63.4336 294.789 63.5938 294.492 63.9141C294.195 64.2305 294.012 64.6758 293.941 65.25H297.117V65.168C297.086 64.6172 296.938 64.1914 296.672 63.8906C296.406 63.5859 296.047 63.4336 295.594 63.4336ZM301.471 67.5293L303.041 62.6602H304.148L301.875 69H301.049L298.752 62.6602H299.859L301.471 67.5293ZM307.74 69.1172C306.881 69.1172 306.182 68.8359 305.643 68.2734C305.104 67.707 304.834 66.9512 304.834 66.0059V65.8066C304.834 65.1777 304.953 64.6172 305.191 64.125C305.434 63.6289 305.77 63.2422 306.199 62.9648C306.633 62.6836 307.102 62.543 307.605 62.543C308.43 62.543 309.07 62.8145 309.527 63.3574C309.984 63.9004 310.213 64.6777 310.213 65.6895V66.1406H305.918C305.934 66.7656 306.115 67.2715 306.463 67.6582C306.814 68.041 307.26 68.2324 307.799 68.2324C308.182 68.2324 308.506 68.1543 308.771 67.998C309.037 67.8418 309.27 67.6348 309.469 67.377L310.131 67.8926C309.6 68.709 308.803 69.1172 307.74 69.1172ZM307.605 63.4336C307.168 63.4336 306.801 63.5938 306.504 63.9141C306.207 64.2305 306.023 64.6758 305.953 65.25H309.129V65.168C309.098 64.6172 308.949 64.1914 308.684 63.8906C308.418 63.5859 308.059 63.4336 307.605 63.4336ZM312.498 62.6602L312.533 63.457C313.018 62.8477 313.65 62.543 314.432 62.543C315.771 62.543 316.447 63.2988 316.459 64.8105V69H315.375V64.8047C315.371 64.3477 315.266 64.0098 315.059 63.791C314.855 63.5723 314.537 63.4629 314.104 63.4629C313.752 63.4629 313.443 63.5566 313.178 63.7441C312.912 63.9316 312.705 64.1777 312.557 64.4824V69H311.473V62.6602H312.498ZM319.564 61.125V62.6602H320.748V63.498H319.564V67.4297C319.564 67.6836 319.617 67.875 319.723 68.0039C319.828 68.1289 320.008 68.1914 320.262 68.1914C320.387 68.1914 320.559 68.168 320.777 68.1211V69C320.492 69.0781 320.215 69.1172 319.945 69.1172C319.461 69.1172 319.096 68.9707 318.85 68.6777C318.604 68.3848 318.48 67.9688 318.48 67.4297V63.498H317.326V62.6602H318.48V61.125H319.564ZM327.879 71.1445C327.188 70.9492 326.666 70.627 326.314 70.1777C325.967 69.7324 325.793 69.1426 325.793 68.4082V67.2422C325.793 66.293 325.379 65.8184 324.551 65.8184V64.9688C325.379 64.9688 325.793 64.4961 325.793 63.5508V62.332C325.801 61.6172 325.975 61.041 326.314 60.6035C326.658 60.1621 327.18 59.8418 327.879 59.6426L328.102 60.3164C327.285 60.5781 326.877 61.2598 326.877 62.3613V63.5449C326.877 64.4316 326.551 65.0488 325.898 65.3965C326.551 65.748 326.877 66.3711 326.877 67.2656V68.4727C326.889 69.5469 327.297 70.2129 328.102 70.4707L327.879 71.1445ZM333.217 69H332.133V62.6602H333.217V69ZM332.045 60.9785C332.045 60.8027 332.098 60.6543 332.203 60.5332C332.312 60.4121 332.473 60.3516 332.684 60.3516C332.895 60.3516 333.055 60.4121 333.164 60.5332C333.273 60.6543 333.328 60.8027 333.328 60.9785C333.328 61.1543 333.273 61.3008 333.164 61.418C333.055 61.5352 332.895 61.5938 332.684 61.5938C332.473 61.5938 332.312 61.5352 332.203 61.418C332.098 61.3008 332.045 61.1543 332.045 60.9785ZM334.693 65.7773C334.693 64.8047 334.924 64.0234 335.385 63.4336C335.846 62.8398 336.449 62.543 337.195 62.543C337.938 62.543 338.525 62.7969 338.959 63.3047V60H340.043V69H339.047L338.994 68.3203C338.561 68.8516 337.957 69.1172 337.184 69.1172C336.449 69.1172 335.85 68.8164 335.385 68.2148C334.924 67.6133 334.693 66.8281 334.693 65.8594V65.7773ZM335.777 65.9004C335.777 66.6191 335.926 67.1816 336.223 67.5879C336.52 67.9941 336.93 68.1973 337.453 68.1973C338.141 68.1973 338.643 67.8887 338.959 67.2715V64.3594C338.635 63.7617 338.137 63.4629 337.465 63.4629C336.934 63.4629 336.52 63.668 336.223 64.0781C335.926 64.4883 335.777 65.0957 335.777 65.9004ZM350.074 65.9004C350.074 66.8691 349.852 67.6484 349.406 68.2383C348.961 68.8242 348.363 69.1172 347.613 69.1172C346.812 69.1172 346.193 68.834 345.756 68.2676L345.703 69H344.707V60H345.791V63.3574C346.229 62.8145 346.832 62.543 347.602 62.543C348.371 62.543 348.975 62.834 349.412 63.416C349.854 63.998 350.074 64.7949 350.074 65.8066V65.9004ZM348.99 65.7773C348.99 65.0391 348.848 64.4688 348.562 64.0664C348.277 63.6641 347.867 63.4629 347.332 63.4629C346.617 63.4629 346.104 63.7949 345.791 64.459V67.2012C346.123 67.8652 346.641 68.1973 347.344 68.1973C347.863 68.1973 348.268 67.9961 348.557 67.5938C348.846 67.1914 348.99 66.5859 348.99 65.7773ZM352.623 69H351.539V60H352.623V69ZM354.076 65.7715C354.076 65.1504 354.197 64.5918 354.439 64.0957C354.686 63.5996 355.025 63.2168 355.459 62.9473C355.896 62.6777 356.395 62.543 356.953 62.543C357.816 62.543 358.514 62.8418 359.045 63.4395C359.58 64.0371 359.848 64.832 359.848 65.8242V65.9004C359.848 66.5176 359.729 67.0723 359.49 67.5645C359.256 68.0527 358.918 68.4336 358.477 68.707C358.039 68.9805 357.535 69.1172 356.965 69.1172C356.105 69.1172 355.408 68.8184 354.873 68.2207C354.342 67.623 354.076 66.832 354.076 65.8477V65.7715ZM355.166 65.9004C355.166 66.6035 355.328 67.168 355.652 67.5938C355.98 68.0195 356.418 68.2324 356.965 68.2324C357.516 68.2324 357.953 68.0176 358.277 67.5879C358.602 67.1543 358.764 66.5488 358.764 65.7715C358.764 65.0762 358.598 64.5137 358.266 64.084C357.938 63.6504 357.5 63.4336 356.953 63.4336C356.418 63.4336 355.986 63.6465 355.658 64.0723C355.33 64.498 355.166 65.1074 355.166 65.9004ZM363.75 68.2324C364.137 68.2324 364.475 68.1152 364.764 67.8809C365.053 67.6465 365.213 67.3535 365.244 67.002H366.27C366.25 67.3652 366.125 67.7109 365.895 68.0391C365.664 68.3672 365.355 68.6289 364.969 68.8242C364.586 69.0195 364.18 69.1172 363.75 69.1172C362.887 69.1172 362.199 68.8301 361.688 68.2559C361.18 67.6777 360.926 66.8887 360.926 65.8887V65.707C360.926 65.0898 361.039 64.541 361.266 64.0605C361.492 63.5801 361.816 63.207 362.238 62.9414C362.664 62.6758 363.166 62.543 363.744 62.543C364.455 62.543 365.045 62.7559 365.514 63.1816C365.986 63.6074 366.238 64.1602 366.27 64.8398H365.244C365.213 64.4297 365.057 64.0938 364.775 63.832C364.498 63.5664 364.154 63.4336 363.744 63.4336C363.193 63.4336 362.766 63.6328 362.461 64.0312C362.16 64.4258 362.01 64.998 362.01 65.748V65.9531C362.01 66.6836 362.16 67.2461 362.461 67.6406C362.762 68.0352 363.191 68.2324 363.75 68.2324ZM369.258 66.0645L368.578 66.7734V69H367.494V60H368.578V65.4434L369.158 64.7461L371.133 62.6602H372.451L369.984 65.3086L372.738 69H371.467L369.258 66.0645ZM377.262 67.3184C377.262 67.0254 377.15 66.7988 376.928 66.6387C376.709 66.4746 376.324 66.334 375.773 66.2168C375.227 66.0996 374.791 65.959 374.467 65.7949C374.146 65.6309 373.908 65.4355 373.752 65.209C373.6 64.9824 373.523 64.7129 373.523 64.4004C373.523 63.8809 373.742 63.4414 374.18 63.082C374.621 62.7227 375.184 62.543 375.867 62.543C376.586 62.543 377.168 62.7285 377.613 63.0996C378.062 63.4707 378.287 63.9453 378.287 64.5234H377.197C377.197 64.2266 377.07 63.9707 376.816 63.7559C376.566 63.541 376.25 63.4336 375.867 63.4336C375.473 63.4336 375.164 63.5195 374.941 63.6914C374.719 63.8633 374.607 64.0879 374.607 64.3652C374.607 64.627 374.711 64.8242 374.918 64.957C375.125 65.0898 375.498 65.2168 376.037 65.3379C376.58 65.459 377.02 65.6035 377.355 65.7715C377.691 65.9395 377.939 66.1426 378.1 66.3809C378.264 66.6152 378.346 66.9023 378.346 67.2422C378.346 67.8086 378.119 68.2637 377.666 68.6074C377.213 68.9473 376.625 69.1172 375.902 69.1172C375.395 69.1172 374.945 69.0273 374.555 68.8477C374.164 68.668 373.857 68.418 373.635 68.0977C373.416 67.7734 373.307 67.4238 373.307 67.0488H374.391C374.41 67.4121 374.555 67.7012 374.824 67.916C375.098 68.127 375.457 68.2324 375.902 68.2324C376.312 68.2324 376.641 68.1504 376.887 67.9863C377.137 67.8184 377.262 67.5957 377.262 67.3184ZM385.617 71.1445C384.926 70.9492 384.404 70.627 384.053 70.1777C383.705 69.7324 383.531 69.1426 383.531 68.4082V67.2422C383.531 66.293 383.117 65.8184 382.289 65.8184V64.9688C383.117 64.9688 383.531 64.4961 383.531 63.5508V62.332C383.539 61.6172 383.713 61.041 384.053 60.6035C384.396 60.1621 384.918 59.8418 385.617 59.6426L385.84 60.3164C385.023 60.5781 384.615 61.2598 384.615 62.3613V63.5449C384.615 64.4316 384.289 65.0488 383.637 65.3965C384.289 65.748 384.615 66.3711 384.615 67.2656V68.4727C384.627 69.5469 385.035 70.2129 385.84 70.4707L385.617 71.1445ZM46.998 87H45.9141V80.6602H46.998V87ZM45.8262 78.9785C45.8262 78.8027 45.8789 78.6543 45.9844 78.5332C46.0938 78.4121 46.2539 78.3516 46.4648 78.3516C46.6758 78.3516 46.8359 78.4121 46.9453 78.5332C47.0547 78.6543 47.1094 78.8027 47.1094 78.9785C47.1094 79.1543 47.0547 79.3008 46.9453 79.418C46.8359 79.5352 46.6758 79.5938 46.4648 79.5938C46.2539 79.5938 46.0938 79.5352 45.9844 79.418C45.8789 79.3008 45.8262 79.1543 45.8262 78.9785ZM48.4746 83.7773C48.4746 82.8047 48.7051 82.0234 49.166 81.4336C49.627 80.8398 50.2305 80.543 50.9766 80.543C51.7188 80.543 52.3066 80.7969 52.7402 81.3047V78H53.8242V87H52.8281L52.7754 86.3203C52.3418 86.8516 51.7383 87.1172 50.9648 87.1172C50.2305 87.1172 49.6309 86.8164 49.166 86.2148C48.7051 85.6133 48.4746 84.8281 48.4746 83.8594V83.7773ZM49.5586 83.9004C49.5586 84.6191 49.707 85.1816 50.0039 85.5879C50.3008 85.9941 50.7109 86.1973 51.2344 86.1973C51.9219 86.1973 52.4238 85.8887 52.7402 85.2715V82.3594C52.416 81.7617 51.918 81.4629 51.2461 81.4629C50.7148 81.4629 50.3008 81.668 50.0039 82.0781C49.707 82.4883 49.5586 83.0957 49.5586 83.9004ZM59.959 79.125V80.6602H61.1426V81.498H59.959V85.4297C59.959 85.6836 60.0117 85.875 60.1172 86.0039C60.2227 86.1289 60.4023 86.1914 60.6562 86.1914C60.7812 86.1914 60.9531 86.168 61.1719 86.1211V87C60.8867 87.0781 60.6094 87.1172 60.3398 87.1172C59.8555 87.1172 59.4902 86.9707 59.2441 86.6777C58.998 86.3848 58.875 85.9688 58.875 85.4297V81.498H57.7207V80.6602H58.875V79.125H59.959ZM64.4883 85.4121L65.9648 80.6602H67.125L64.5762 87.9785C64.1816 89.0332 63.5547 89.5605 62.6953 89.5605L62.4902 89.543L62.0859 89.4668V88.5879L62.3789 88.6113C62.7461 88.6113 63.0312 88.5371 63.2344 88.3887C63.4414 88.2402 63.6113 87.9688 63.7441 87.5742L63.9844 86.9297L61.7227 80.6602H62.9062L64.4883 85.4121ZM73.4531 83.9004C73.4531 84.8652 73.2324 85.6426 72.791 86.2324C72.3496 86.8223 71.752 87.1172 70.998 87.1172C70.2285 87.1172 69.623 86.873 69.1816 86.3848V89.4375H68.0977V80.6602H69.0879L69.1406 81.3633C69.582 80.8164 70.1953 80.543 70.9805 80.543C71.7422 80.543 72.3438 80.8301 72.7852 81.4043C73.2305 81.9785 73.4531 82.7773 73.4531 83.8008V83.9004ZM72.3691 83.7773C72.3691 83.0625 72.2168 82.498 71.9121 82.084C71.6074 81.6699 71.1895 81.4629 70.6582 81.4629C70.002 81.4629 69.5098 81.7539 69.1816 82.3359V85.3652C69.5059 85.9434 70.002 86.2324 70.6699 86.2324C71.1895 86.2324 71.6016 86.0273 71.9062 85.6172C72.2148 85.2031 72.3691 84.5898 72.3691 83.7773ZM77.4668 87.1172C76.6074 87.1172 75.9082 86.8359 75.3691 86.2734C74.8301 85.707 74.5605 84.9512 74.5605 84.0059V83.8066C74.5605 83.1777 74.6797 82.6172 74.918 82.125C75.1602 81.6289 75.4961 81.2422 75.9258 80.9648C76.3594 80.6836 76.8281 80.543 77.332 80.543C78.1562 80.543 78.7969 80.8145 79.2539 81.3574C79.7109 81.9004 79.9395 82.6777 79.9395 83.6895V84.1406H75.6445C75.6602 84.7656 75.8418 85.2715 76.1895 85.6582C76.541 86.041 76.9863 86.2324 77.5254 86.2324C77.9082 86.2324 78.2324 86.1543 78.498 85.998C78.7637 85.8418 78.9961 85.6348 79.1953 85.377L79.8574 85.8926C79.3262 86.709 78.5293 87.1172 77.4668 87.1172ZM77.332 81.4336C76.8945 81.4336 76.5273 81.5938 76.2305 81.9141C75.9336 82.2305 75.75 82.6758 75.6797 83.25H78.8555V83.168C78.8242 82.6172 78.6758 82.1914 78.4102 81.8906C78.1445 81.5859 77.7852 81.4336 77.332 81.4336ZM86.7188 86.2324C87.1055 86.2324 87.4434 86.1152 87.7324 85.8809C88.0215 85.6465 88.1816 85.3535 88.2129 85.002H89.2383C89.2188 85.3652 89.0938 85.7109 88.8633 86.0391C88.6328 86.3672 88.3242 86.6289 87.9375 86.8242C87.5547 87.0195 87.1484 87.1172 86.7188 87.1172C85.8555 87.1172 85.168 86.8301 84.6562 86.2559C84.1484 85.6777 83.8945 84.8887 83.8945 83.8887V83.707C83.8945 83.0898 84.0078 82.541 84.2344 82.0605C84.4609 81.5801 84.7852 81.207 85.207 80.9414C85.6328 80.6758 86.1348 80.543 86.7129 80.543C87.4238 80.543 88.0137 80.7559 88.4824 81.1816C88.9551 81.6074 89.207 82.1602 89.2383 82.8398H88.2129C88.1816 82.4297 88.0254 82.0938 87.7441 81.832C87.4668 81.5664 87.123 81.4336 86.7129 81.4336C86.1621 81.4336 85.7344 81.6328 85.4297 82.0312C85.1289 82.4258 84.9785 82.998 84.9785 83.748V83.9531C84.9785 84.6836 85.1289 85.2461 85.4297 85.6406C85.7305 86.0352 86.1602 86.2324 86.7188 86.2324ZM91.541 81.4277C92.0215 80.8379 92.6465 80.543 93.416 80.543C94.7559 80.543 95.4316 81.2988 95.4434 82.8105V87H94.3594V82.8047C94.3555 82.3477 94.25 82.0098 94.043 81.791C93.8398 81.5723 93.5215 81.4629 93.0879 81.4629C92.7363 81.4629 92.4277 81.5566 92.1621 81.7441C91.8965 81.9316 91.6895 82.1777 91.541 82.4824V87H90.457V78H91.541V81.4277ZM98.2441 87H97.1602V80.6602H98.2441V87ZM97.0723 78.9785C97.0723 78.8027 97.125 78.6543 97.2305 78.5332C97.3398 78.4121 97.5 78.3516 97.7109 78.3516C97.9219 78.3516 98.082 78.4121 98.1914 78.5332C98.3008 78.6543 98.3555 78.8027 98.3555 78.9785C98.3555 79.1543 98.3008 79.3008 98.1914 79.418C98.082 79.5352 97.9219 79.5938 97.7109 79.5938C97.5 79.5938 97.3398 79.5352 97.2305 79.418C97.125 79.3008 97.0723 79.1543 97.0723 78.9785ZM101.162 87H100.078V78H101.162V87ZM102.639 83.7773C102.639 82.8047 102.869 82.0234 103.33 81.4336C103.791 80.8398 104.395 80.543 105.141 80.543C105.883 80.543 106.471 80.7969 106.904 81.3047V78H107.988V87H106.992L106.939 86.3203C106.506 86.8516 105.902 87.1172 105.129 87.1172C104.395 87.1172 103.795 86.8164 103.33 86.2148C102.869 85.6133 102.639 84.8281 102.639 83.8594V83.7773ZM103.723 83.9004C103.723 84.6191 103.871 85.1816 104.168 85.5879C104.465 85.9941 104.875 86.1973 105.398 86.1973C106.086 86.1973 106.588 85.8887 106.904 85.2715V82.3594C106.58 81.7617 106.082 81.4629 105.41 81.4629C104.879 81.4629 104.465 81.668 104.168 82.0781C103.871 82.4883 103.723 83.0957 103.723 83.9004ZM112.74 81.6328C112.576 81.6055 112.398 81.5918 112.207 81.5918C111.496 81.5918 111.014 81.8945 110.76 82.5V87H109.676V80.6602H110.73L110.748 81.3926C111.104 80.8262 111.607 80.543 112.26 80.543C112.471 80.543 112.631 80.5703 112.74 80.625V81.6328ZM116.256 87.1172C115.396 87.1172 114.697 86.8359 114.158 86.2734C113.619 85.707 113.35 84.9512 113.35 84.0059V83.8066C113.35 83.1777 113.469 82.6172 113.707 82.125C113.949 81.6289 114.285 81.2422 114.715 80.9648C115.148 80.6836 115.617 80.543 116.121 80.543C116.945 80.543 117.586 80.8145 118.043 81.3574C118.5 81.9004 118.729 82.6777 118.729 83.6895V84.1406H114.434C114.449 84.7656 114.631 85.2715 114.979 85.6582C115.33 86.041 115.775 86.2324 116.314 86.2324C116.697 86.2324 117.021 86.1543 117.287 85.998C117.553 85.8418 117.785 85.6348 117.984 85.377L118.646 85.8926C118.115 86.709 117.318 87.1172 116.256 87.1172ZM116.121 81.4336C115.684 81.4336 115.316 81.5938 115.02 81.9141C114.723 82.2305 114.539 82.6758 114.469 83.25H117.645V83.168C117.613 82.6172 117.465 82.1914 117.199 81.8906C116.934 81.5859 116.574 81.4336 116.121 81.4336ZM121.014 80.6602L121.049 81.457C121.533 80.8477 122.166 80.543 122.947 80.543C124.287 80.543 124.963 81.2988 124.975 82.8105V87H123.891V82.8047C123.887 82.3477 123.781 82.0098 123.574 81.791C123.371 81.5723 123.053 81.4629 122.619 81.4629C122.268 81.4629 121.959 81.5566 121.693 81.7441C121.428 81.9316 121.221 82.1777 121.072 82.4824V87H119.988V80.6602H121.014ZM132.469 89.1445C131.777 88.9492 131.256 88.627 130.904 88.1777C130.557 87.7324 130.383 87.1426 130.383 86.4082V85.2422C130.383 84.293 129.969 83.8184 129.141 83.8184V82.9688C129.969 82.9688 130.383 82.4961 130.383 81.5508V80.332C130.391 79.6172 130.564 79.041 130.904 78.6035C131.248 78.1621 131.77 77.8418 132.469 77.6426L132.691 78.3164C131.875 78.5781 131.467 79.2598 131.467 80.3613V81.5449C131.467 82.4316 131.141 83.0488 130.488 83.3965C131.141 83.748 131.467 84.3711 131.467 85.2656V86.4727C131.479 87.5469 131.887 88.2129 132.691 88.4707L132.469 89.1445ZM136.652 86.4316C136.652 86.2441 136.707 86.0879 136.816 85.9629C136.93 85.8379 137.098 85.7754 137.32 85.7754C137.543 85.7754 137.711 85.8379 137.824 85.9629C137.941 86.0879 138 86.2441 138 86.4316C138 86.6113 137.941 86.7617 137.824 86.8828C137.711 87.0039 137.543 87.0645 137.32 87.0645C137.098 87.0645 136.93 87.0039 136.816 86.8828C136.707 86.7617 136.652 86.6113 136.652 86.4316ZM139.816 86.4316C139.816 86.2441 139.871 86.0879 139.98 85.9629C140.094 85.8379 140.262 85.7754 140.484 85.7754C140.707 85.7754 140.875 85.8379 140.988 85.9629C141.105 86.0879 141.164 86.2441 141.164 86.4316C141.164 86.6113 141.105 86.7617 140.988 86.8828C140.875 87.0039 140.707 87.0645 140.484 87.0645C140.262 87.0645 140.094 87.0039 139.98 86.8828C139.871 86.7617 139.816 86.6113 139.816 86.4316ZM142.98 86.4316C142.98 86.2441 143.035 86.0879 143.145 85.9629C143.258 85.8379 143.426 85.7754 143.648 85.7754C143.871 85.7754 144.039 85.8379 144.152 85.9629C144.27 86.0879 144.328 86.2441 144.328 86.4316C144.328 86.6113 144.27 86.7617 144.152 86.8828C144.039 87.0039 143.871 87.0645 143.648 87.0645C143.426 87.0645 143.258 87.0039 143.145 86.8828C143.035 86.7617 142.98 86.6113 142.98 86.4316ZM148.389 88.4707C149.182 88.2168 149.592 87.5703 149.619 86.5312V85.2422C149.619 84.3398 149.973 83.7246 150.68 83.3965C149.973 83.0762 149.619 82.4609 149.619 81.5508V80.3613C149.619 79.2598 149.211 78.5781 148.395 78.3164L148.617 77.6426C149.309 77.8379 149.828 78.1562 150.176 78.5977C150.523 79.0352 150.699 79.6152 150.703 80.3379V81.5684C150.703 82.502 151.117 82.9688 151.945 82.9688V83.8184C151.117 83.8184 150.703 84.293 150.703 85.2422V86.4258C150.703 87.1602 150.525 87.748 150.17 88.1895C149.818 88.6309 149.301 88.9492 148.617 89.1445L148.389 88.4707ZM155.432 88.4707C156.225 88.2168 156.635 87.5703 156.662 86.5312V85.2422C156.662 84.3398 157.016 83.7246 157.723 83.3965C157.016 83.0762 156.662 82.4609 156.662 81.5508V80.3613C156.662 79.2598 156.254 78.5781 155.438 78.3164L155.66 77.6426C156.352 77.8379 156.871 78.1562 157.219 78.5977C157.566 79.0352 157.742 79.6152 157.746 80.3379V81.5684C157.746 82.502 158.16 82.9688 158.988 82.9688V83.8184C158.16 83.8184 157.746 84.293 157.746 85.2422V86.4258C157.746 87.1602 157.568 87.748 157.213 88.1895C156.861 88.6309 156.344 88.9492 155.66 89.1445L155.432 88.4707ZM162.475 88.4707C163.268 88.2168 163.678 87.5703 163.705 86.5312V85.2422C163.705 84.3398 164.059 83.7246 164.766 83.3965C164.059 83.0762 163.705 82.4609 163.705 81.5508V80.3613C163.705 79.2598 163.297 78.5781 162.48 78.3164L162.703 77.6426C163.395 77.8379 163.914 78.1562 164.262 78.5977C164.609 79.0352 164.785 79.6152 164.789 80.3379V81.5684C164.789 82.502 165.203 82.9688 166.031 82.9688V83.8184C165.203 83.8184 164.789 84.293 164.789 85.2422V86.4258C164.789 87.1602 164.611 87.748 164.256 88.1895C163.904 88.6309 163.387 88.9492 162.703 89.1445L162.475 88.4707ZM169.518 88.4707C170.311 88.2168 170.721 87.5703 170.748 86.5312V85.2422C170.748 84.3398 171.102 83.7246 171.809 83.3965C171.102 83.0762 170.748 82.4609 170.748 81.5508V80.3613C170.748 79.2598 170.34 78.5781 169.523 78.3164L169.746 77.6426C170.438 77.8379 170.957 78.1562 171.305 78.5977C171.652 79.0352 171.828 79.6152 171.832 80.3379V81.5684C171.832 82.502 172.246 82.9688 173.074 82.9688V83.8184C172.246 83.8184 171.832 84.293 171.832 85.2422V86.4258C171.832 87.1602 171.654 87.748 171.299 88.1895C170.947 88.6309 170.43 88.9492 169.746 89.1445L169.518 88.4707Z" fill="white"/>
<g clip-path="url(#clip0_1_33)">
<path d="M17 14.657H25V22.657H17V14.657ZM36.657 13L42.314 18.657L36.657 24.314L31 18.657L36.657 13ZM48.314 14.657H56.314V22.657H48.314V14.657Z" fill="white"/>
</g>
<defs>
<clipPath id="clip0_1_33">
<rect width="40" height="12" fill="white" transform="translate(17 13)"/>
</clipPath>
</defs>
</svg>
