<svg width="81" height="65" viewBox="0 0 81 65" fill="none" xmlns="http://www.w3.org/2000/svg">
<g clip-path="url(#clip0_1_305)">
<path d="M47.0704 20.7787L32.1909 20.8728L32.0971 35.7982L46.9766 35.7041L47.0704 20.7787ZM35.3324 28.3152C35.3468 25.9596 37.2621 24.0384 39.6104 24.0239C41.9588 24.0094 43.8495 25.9061 43.8351 28.2616C43.82 30.6165 41.9046 32.5377 39.557 32.5529C37.2087 32.5674 35.3179 30.6708 35.3324 28.3152Z" fill="black"/>
<path d="M6.62177 35.7115H21.0803V21.0258H6.62177V35.7115Z" stroke="black" stroke-width="2.1"/>
<path d="M12.5903 43.1157L3.55017 57.743L20.7747 57.7822L12.5903 43.1157Z" fill="#5281E8"/>
<path d="M30.2869 52.7049C30.2869 57.8521 34.4472 62.0252 39.5786 62.0252C44.7101 62.0252 48.8704 57.8521 48.8704 52.7049C48.8704 47.5576 44.7101 43.3845 39.5786 43.3845C34.4472 43.3845 30.2869 47.5576 30.2869 52.7049Z" fill="black"/>
<path d="M18.5128 42.6612C23.4962 45.9321 24.961 52.6657 21.662 57.7255C18.3635 62.7845 11.6272 64.1361 6.64379 60.8652C1.66041 57.5942 0.196072 50.8599 3.49458 45.8009C6.79355 40.7411 13.5294 39.3902 18.5128 42.6612Z" stroke="black" stroke-width="3.15"/>
<path d="M29.7772 20.7718L34.4362 23.8296L24.1521 38.734L19.6188 40.5849L19.4931 35.6762L29.7772 20.7718Z" fill="black"/>
<path d="M29.7772 20.7718L34.4362 23.8296L24.1521 38.734L19.6188 40.5849L19.4931 35.6762L29.7772 20.7718Z" stroke="black" stroke-width="1.5876"/>
</g>
<defs>
<clipPath id="clip0_1_305">
<rect width="81" height="65" fill="white"/>
</clipPath>
</defs>
</svg>
