<svg width="80" height="26" viewBox="0 0 80 26" fill="none" xmlns="http://www.w3.org/2000/svg">
<g clip-path="url(#clip0_1_4)">
<path fill-rule="evenodd" clip-rule="evenodd" d="M20.167 25.708H24.574V1H20.167V25.708ZM47.987 5.448H52.365V1.075H47.987V5.45V5.448ZM71.317 25.678V13.661C71.317 9.258 69.25 6.931 65.342 6.931C62.894 6.931 61.126 7.936 59.937 10.006L59.796 10.251V7.365H55.418V25.678H59.796V15.073C59.796 12.278 61.389 10.473 63.856 10.473C65.931 10.473 66.939 11.622 66.939 13.987V25.678H71.316H71.317ZM74.299 25.678H79.974V20.008H74.299V25.678ZM52.354 25.708H47.946V7.41H52.354V25.707V25.708ZM38.37 18.477V17.67L38.288 17.677L34.22 18.03C34.125 18.04 31.886 18.301 31.36 19.282C31.125 19.722 31.082 20.278 31.244 20.808C31.377 21.244 31.708 21.856 32.526 22.288C32.916 22.528 33.429 22.677 34.051 22.729L34.118 22.739C34.152 22.744 34.185 22.749 34.221 22.751L34.269 22.745C34.365 22.749 34.463 22.752 34.563 22.752C36.804 22.752 38.37 20.994 38.37 18.477ZM38.548 22.818H38.502L38.482 22.858C37.346 25.048 35.543 26.113 32.969 26.113C29.633 26.113 27.212 23.753 27.212 20.504C27.212 17.358 29.559 15.128 33.192 14.823L38.301 14.388L38.37 14.382V13.118C38.37 11.268 37.341 10.291 35.396 10.291C33.458 10.291 32.242 11.288 32.206 12.898H27.83C28.002 9.215 30.963 6.931 35.576 6.931C40.087 6.931 42.674 9.212 42.674 13.191V22.317H45.79V25.678H38.803L38.768 22.892L38.766 22.818H38.548ZM12.325 12.772V5.112H4.585V12.846H12.325V12.773V12.772ZM10.962 1.12C11.028 1.128 11.095 1.137 11.149 1.148C15.011 1.654 17.994 4.947 17.994 8.944C17.9929 11.032 17.1626 13.034 15.6856 14.5099C14.2087 15.9857 12.206 16.8145 10.118 16.814C10.044 16.814 9.971 16.81 9.898 16.804C9.85669 16.8012 9.81536 16.7989 9.774 16.797H4.585V25.683H0V1.072H10.137L10.155 1.074C10.467 1.077 10.72 1.089 10.918 1.112L10.941 1.116C10.948 1.11719 10.955 1.11819 10.962 1.119V1.12Z" fill="black"/>
</g>
<defs>
<clipPath id="clip0_1_4">
<rect width="80" height="26" fill="white"/>
</clipPath>
</defs>
</svg>
